<svg id="Objects" xmlns="http://www.w3.org/2000/svg" width="650.19" height="692.995" viewBox="0 0 650.19 692.995">
  <g id="Group_168" data-name="Group 168" transform="translate(0)">
    <g id="Group_166" data-name="Group 166">
      <g id="Group_63" data-name="Group 63" transform="translate(56.068)">
        <g id="Group_56" data-name="Group 56" transform="translate(37.454)">
          <g id="Group_54" data-name="Group 54">
            <path id="Path_17" data-name="Path 17" d="M411.528,709.183l-223.316-1.032A48.643,48.643,0,0,1,139.793,659.3l2.365-559.856a48.645,48.645,0,0,1,48.87-48.438l223.316,1.03a48.645,48.645,0,0,1,48.419,48.851L460.4,660.743A48.645,48.645,0,0,1,411.528,709.183Z" transform="translate(-139.793 -51.005)" fill="#14365b"/>
          </g>
          <g id="Group_55" data-name="Group 55" transform="translate(14.968 23.19)">
            <path id="Path_18" data-name="Path 18" d="M149.044,214.835v.175l.032-.006Z" transform="translate(-147.718 50.534)" fill="#fff"/>
            <path id="Path_19" data-name="Path 19" d="M196.915,217.324l-43.84,8.375a263,263,0,0,0,3.792,42.124c.849,4.93,1.959,10.586,4.4,15.352A26.419,26.419,0,0,0,182,297.422c6.485-16.879,9.481-36.615,12.158-58.025Zm-9.353,18.316L184.4,264.492a31.294,31.294,0,0,1-1.839,8.815c-1.17,2.76-3.311,5.231-6.1,5.959-3.753.976-7.7-1.481-9.855-4.854s-2.9-7.491-3.605-11.484q-1.263-7.178-2.524-14.355c-.546-3.1-1.081-6.369-.09-9.342,1.617-4.852,6.753-7.366,11.575-8.247s9.879-.685,14.438-2.556l1.481,4.539Z" transform="translate(-144.648 52.429)" fill="#fff"/>
            <path id="Path_20" data-name="Path 20" d="M218.455,287.012c2.417-11.088,13.472-17.5,23.692-13.724l21.421,7.914a231.7,231.7,0,0,1,7.477-40.153l-62.3-23.331-2.9,23.163c-4.5,35.982-9.906,67.7-30.593,91.4a114.832,114.832,0,0,1-20.527,17.929l14.69,16.3a87.419,87.419,0,0,0,8.424-7.044C196.733,340.928,212.516,314.258,218.455,287.012Z" transform="translate(-143.391 52.729)" fill="#fff"/>
            <path id="Path_21" data-name="Path 21" d="M316.537,89.517V64.358l-40.9-.187a10.642,10.642,0,0,0-10.519,10.712C281.836,77.182,299.755,81.4,316.537,89.517Z" transform="translate(-59.347 -64.171)" fill="#fff"/>
            <path id="Path_22" data-name="Path 22" d="M246.734,284.551l39.043,14.621a58.352,58.352,0,0,1,24.155,17.168l55.373-39.97.12-28.509L344.4,270.455l-52.59-24.047L320,209.4l45.5,20.807.048-10.857-39.4-18.018,17.708-23.248,21.853,3.956.06-13.967-25.985-4.129Zm90.566-6.464-21.078,22.656L268.117,277.52l17.55-23.044Z" transform="translate(-73.343 11.791)" fill="#fff"/>
            <path id="Path_23" data-name="Path 23" d="M249.068,291.8,251.7,147.555l-48.394-14.579L186.382,268.324Zm-35.8-134.486H240.1v91.668H213.267Zm-11.179,87.2V262.4h-6.707V244.509Z" transform="translate(-119.291 -11.788)" fill="#fff"/>
            <path id="Path_24" data-name="Path 24" d="M263.846,231.355l48.789-63.242-48.789-14.7Z" transform="translate(-60.315 3.774)" fill="#fff"/>
            <path id="Path_25" data-name="Path 25" d="M301.927,99.634V199.7l21.874,3.475.051-12.074-3.5-.564a6.122,6.122,0,0,1-5.02-6.14l.014-46.26a5.912,5.912,0,0,1,8.756-5.423l.069-16.178c-3.105-2.334-6.165-4.687-9.171-7C310.579,106.124,306.255,102.8,301.927,99.634Z" transform="translate(-31.323 -37.172)" fill="#fff"/>
            <path id="Path_26" data-name="Path 26" d="M254.561,296.945a236.251,236.251,0,0,0-46.187,36.218c-6.989,7.052-13.619,14.466-20.606,21.328l13.423,14.9c4.567-4.083,9.161-8.394,13.816-12.77,15.907-14.947,33.287-31.265,54.2-42.452A82.32,82.32,0,0,1,254.561,296.945Z" transform="translate(-118.236 113.047)" fill="#fff"/>
            <path id="Path_27" data-name="Path 27" d="M324.3,111.794l.06-14.249a34,34,0,0,0-22.431-32.086v30.5C309.765,100.846,317.136,106.31,324.3,111.794Z" transform="translate(-31.323 -63.19)" fill="#fff"/>
            <path id="Path_28" data-name="Path 28" d="M219.794,272.336l83.746,30.938c6.934,2.445,6.313,12.956-.86,14.466a234.7,234.7,0,0,0-67.286,25.5A74.6,74.6,0,0,0,250.786,360.5a113.172,113.172,0,0,1,24.106-8.3,104.627,104.627,0,0,1,32.886-1.795,61.171,61.171,0,0,0,23.176-37.5c.123-.666.236-1.34.336-2.019,3.266-21.789-9.1-43.135-29.39-50.733l-74.777-28A223.9,223.9,0,0,0,219.794,272.336Z" transform="translate(-93.853 63.723)" fill="#fff"/>
            <path id="Path_29" data-name="Path 29" d="M197.492,64.263l-.9,0c.285.074.583.139.87.213Z" transform="translate(-111.515 -64.101)" fill="#fff"/>
            <path id="Path_30" data-name="Path 30" d="M201.711,270.189,218.8,133.519l-69.176-4.391-.5,118.6,5.735,31.415ZM165.616,142.637l42.272,2.052L200.383,213.9H165.616Zm33.537,84.678v29.067H158.909V227.315Z" transform="translate(-147.659 -14.717)" fill="#fff"/>
            <path id="Path_31" data-name="Path 31" d="M288.178,85.266c-7.567-.393-15.341-.618-22.859-.837-18.882-.551-38.4-1.118-57.736-4.328-.224-.037-.44-.083-.664-.122l-9.952,79.593L368.422,211.22V105.553c-2.508-1.525-5.043-2.98-7.637-4.313C337.354,89.2,309.675,86.379,288.178,85.266Zm-42.725,72.877-33.127-9.7,4.93-51.392h28.2Zm13.414-63.33h29.065v31.3H258.867ZM359.48,188.621l-91.668-24.937V148.471h33.536V114.934H359.48Z" transform="translate(-111.232 -52.135)" fill="#fff"/>
            <path id="Path_32" data-name="Path 32" d="M331.584,308.835c-31.871,6.973-56.493,30.11-78.217,50.527-20.844,19.589-40.53,38.09-64.088,42.216-3.782.662-7.893.983-12.245,1.321-7.389.579-15.734,1.231-24.141,3.794-1.5.458-2.98.988-4.447,1.559l-.085,20.053a46.818,46.818,0,0,1,9.7-4.248c11.126-3.391,22.992-2.644,34.42-4.645,56.038-9.814,87.366-80.711,142.985-92.877,29.6-6.476,61.277,6.082,82.774,28.416a125.857,125.857,0,0,1,21.034,29.828l.134-31.76a136.7,136.7,0,0,0-9.435-10.92C403.107,314.182,365.406,301.436,331.584,308.835Z" transform="translate(-148.237 120.523)" fill="#fff"/>
            <path id="Path_33" data-name="Path 33" d="M170.184,319.206a81.194,81.194,0,0,0,12.606-19.938,32.618,32.618,0,0,1-23.447-17.249c-2.853-5.569-4.085-11.8-5.015-17.194a269.923,269.923,0,0,1-3.877-42.1l-1.235.236L148.735,337.3C156.668,331.88,164.036,326.253,170.184,319.206Z" transform="translate(-147.953 56.539)" fill="#fff"/>
            <path id="Path_34" data-name="Path 34" d="M169.158,311.369l-14.823-16.454q-2.793,1.886-5.585,3.716l-.127,30.358C153.453,322.735,161.512,316.944,169.158,311.369Z" transform="translate(-148.038 111.501)" fill="#fff"/>
            <path id="Path_35" data-name="Path 35" d="M299.606,283.059a61.574,61.574,0,0,1-.678,9.108q-.188,1.252-.417,2.5a75.916,75.916,0,0,1-19.26,37.869,128.809,128.809,0,0,1,60.6,35.741l.063-15.008L322.08,340.538l12.863-33.774,5.161,2.167.208-49.379-40.891,18.786C299.542,279.9,299.606,281.477,299.606,283.059Z" transform="translate(-48.588 84.579)" fill="#fff"/>
            <path id="Path_36" data-name="Path 36" d="M149.546,374.313c9.715-2.961,18.783-3.671,26.783-4.3,4.077-.317,7.9-.616,11.1-1.175,13.471-2.358,26.247-11.073,39.139-22.133l-13.258-14.714a98.6,98.6,0,0,1-20.639,15.051,34.256,34.256,0,0,1-44.061-10.21l-.16,37.828.007.012C148.818,374.557,149.18,374.425,149.546,374.313Z" transform="translate(-148.173 139.731)" fill="#fff"/>
            <path id="Path_37" data-name="Path 37" d="M230.259,89.09c-20.96-5.029-38.774-13.231-53.194-24.523-10.179,1.42-16.592,5.793-20.615,10.917a36.1,36.1,0,0,0-6.122,15.091l12.81.849v61.71l-13.649-.75-.051,12.16,70.823,4.5Zm-55.942,64.516V91.993l42.013,2.783-6.446,60.782Z" transform="translate(-147.417 -63.869)" fill="#fff"/>
            <path id="Path_38" data-name="Path 38" d="M286.469,159.887l-58.508-17.624-2.64,144.672,24.46,9.161,36.689-47.556ZM241.752,266.5h-8.944v-26.83h8.944Zm13.414,0h-8.942v-26.83h8.942Zm13.414,0h-8.942v-26.83h8.942Zm-31.3-53.659V158.3l40.245,12.884v41.659Z" transform="translate(-89.645 -4.717)" fill="#fff"/>
            <path id="Path_39" data-name="Path 39" d="M292.577,285.505l43.621-20.04.141-33.381-51.6,37.249A61.431,61.431,0,0,1,292.577,285.505Z" transform="translate(-44.411 63.666)" fill="#fff"/>
            <path id="Path_40" data-name="Path 40" d="M202.617,90.224c.224.039.44.085.664.122,19.332,3.209,38.855,3.776,57.736,4.328,7.517.218,15.292.444,22.859.837,21.5,1.113,49.176,3.935,72.607,15.974,2.594,1.333,5.129,2.788,7.637,4.313V87.724c-16.782-8.113-34.7-12.335-51.42-14.633l0,.055-.035,7.729a10.644,10.644,0,0,1-10.52,10.767l-84.1-.384A10.654,10.654,0,0,1,207.614,80.4V73.179a13.386,13.386,0,0,0-2.033-6.654Z" transform="translate(-106.931 -62.379)" fill="#e3e4f2"/>
            <path id="Path_41" data-name="Path 41" d="M301.927,112.469c4.328,3.162,8.652,6.49,13.069,9.9,3.007,2.318,6.066,4.671,9.171,7l.13-30.762c-7.162-5.485-14.533-10.948-22.371-15.836Z" transform="translate(-31.323 -50.007)" fill="#e3e4f2"/>
            <path id="Path_42" data-name="Path 42" d="M221.425,64.519c-.287-.074-.585-.139-.87-.213l-.351-.1-9.578.127h-37.9a52.6,52.6,0,0,0-7.607.5c14.42,11.292,32.234,19.494,53.194,24.523Z" transform="translate(-135.475 -64.14)" fill="#e3e4f2"/>
            <path id="Path_43" data-name="Path 43" d="M335.526,318.724C279.907,330.89,248.58,401.787,192.541,411.6c-11.428,2-23.294,1.254-34.42,4.645a46.82,46.82,0,0,0-9.7,4.248l-.125,29.821a34.025,34.025,0,0,0,33.877,34.161L404.825,485.5a34.027,34.027,0,0,0,34.193-33.87l.315-74.665A125.861,125.861,0,0,0,418.3,347.14C396.8,324.806,365.129,312.248,335.526,318.724Z" transform="translate(-148.291 128.333)" fill="#e3e4f2"/>
            <path id="Path_44" data-name="Path 44" d="M192.6,368.162a98.6,98.6,0,0,0,20.639-15.051l-44.012-48.854c-7.646,5.575-15.706,11.366-20.535,17.62l-.153,36.074A34.256,34.256,0,0,0,192.6,368.162Z" transform="translate(-148.104 118.614)" fill="#e3e4f2"/>
            <path id="Path_45" data-name="Path 45" d="M258.748,296.223c-.534-2.822-1-5.673-1.33-8.576a149.81,149.81,0,0,1-.2-30L235.8,249.738c-10.219-3.776-21.275,2.637-23.692,13.724-5.939,27.246-21.722,53.916-40.615,72.459a87.423,87.423,0,0,1-8.424,7.044l20.911,23.211Z" transform="translate(-137.041 76.279)" fill="#e3e4f2"/>
            <path id="Path_46" data-name="Path 46" d="M216.377,346.373a236.252,236.252,0,0,1,46.187-36.218,103.562,103.562,0,0,1-13.1-30.561l-72.208,67.554L195.771,367.7C202.758,360.839,209.388,353.425,216.377,346.373Z" transform="translate(-126.239 99.837)" fill="#e3e4f2"/>
            <path id="Path_47" data-name="Path 47" d="M303.755,285.907l-83.746-30.938a140.536,140.536,0,0,0,.329,27.126c1.872,16.433,7.269,31.54,15.271,43.78a234.7,234.7,0,0,1,67.286-25.5C310.067,298.863,310.689,288.352,303.755,285.907Z" transform="translate(-94.068 81.089)" fill="#e3e4f2"/>
            <path id="Path_48" data-name="Path 48" d="M169.038,226.185c-4.823.881-9.959,3.394-11.575,8.247-.992,2.973-.456,6.242.09,9.342q1.263,7.176,2.524,14.355c.7,3.993,1.453,8.111,3.605,11.484s6.1,5.83,9.855,4.854c2.792-.727,4.933-3.2,6.1-5.959a31.293,31.293,0,0,0,1.839-8.815l3.165-28.852.314-2.672-1.481-4.539C178.917,225.5,173.859,225.3,169.038,226.185Z" transform="translate(-141.73 57.229)" fill="#e3e4f2"/>
            <path id="Path_49" data-name="Path 49" d="M309.55,124.173l-.014,46.26a6.122,6.122,0,0,0,5.02,6.14l3.5.564.247-58.386A5.912,5.912,0,0,0,309.55,124.173Z" transform="translate(-25.53 -23.207)" fill="#e3e4f2"/>
            <path id="Path_50" data-name="Path 50" d="M272.327,226.76l52.589,24.047,21.023-22.595.075-17.652-45.5-20.807Z" transform="translate(-53.858 31.439)" fill="#d3d4e9"/>
            <path id="Path_51" data-name="Path 51" d="M291.818,195.222l39.4,18.018.158-37.31-21.853-3.957Z" transform="translate(-39.019 17.902)" fill="#d3d4e9"/>
            <path id="Path_52" data-name="Path 52" d="M405.39,117.589V223.256L233.935,171.609l9.952-79.593,2.964-23.7c-1.483-2.221-4.042-4.146-8.505-4.146l-4.155.055-.014.107-.026.217-3.107,24.842-10,79.95-70.823-4.5-.058,13.737,69.176,4.391-17.088,136.67L155.4,328.592l-5.735-31.415-.137,32.363.032.169-.032.005-.06,13.953,1.235-.236a269.924,269.924,0,0,0,3.877,42.1c.93,5.4,2.161,11.625,5.015,17.194a32.618,32.618,0,0,0,23.447,17.249,81.194,81.194,0,0,1-12.606,19.938c-6.149,7.047-13.516,12.674-21.449,18.091l-.07,16.3q2.79-1.834,5.585-3.716l14.823,16.454L213.333,535.9,226.59,550.61c-12.891,11.059-25.668,19.775-39.139,22.133-3.2.558-7.019.858-11.1,1.175-8,.627-17.067,1.337-26.783,4.3-.366.111-.727.243-1.094.361l-.007-.012-.062,14.381c1.467-.571,2.947-1.1,4.447-1.559,8.407-2.563,16.752-3.214,24.141-3.794,4.352-.338,8.463-.659,12.245-1.321,23.558-4.125,43.244-22.626,64.088-42.216,21.724-20.417,46.346-43.554,78.217-50.527,33.821-7.4,71.522,5.347,98.393,33.263a136.7,136.7,0,0,1,9.435,10.92l.088-20.687a128.809,128.809,0,0,0-60.6-35.741,75.916,75.916,0,0,0,19.26-37.869q.23-1.247.417-2.5a61.573,61.573,0,0,0,.678-9.108c0-1.582-.063-3.158-.185-4.72L439.924,408.3l.063-15-43.621,20.04a61.431,61.431,0,0,0-7.841-16.173l51.6-37.249.034-7.59L384.789,392.3a58.352,58.352,0,0,0-24.155-17.168l-39.043-14.621,93.044-120.605,25.985,4.129.058-13.862L418.8,226.7V66.44a33.872,33.872,0,0,0-11.447-2.071l-1.967-.011v53.231Zm-4.87,118.469L351.731,299.3V221.361Zm-119.91-36.12-2.633,144.244-62.686-23.475,16.925-135.348ZM164.82,399.775c-2.443-4.766-3.553-10.422-4.4-15.352a263,263,0,0,1-3.792-42.124l43.84-8.375L197.706,356c-2.677,21.411-5.673,41.146-12.158,58.025A26.42,26.42,0,0,1,164.82,399.775Zm-5.284,67.336a114.833,114.833,0,0,0,20.527-17.929c20.687-23.706,26.094-55.418,30.593-91.4l2.9-23.163,62.3,23.331a231.7,231.7,0,0,0-7.477,40.153,149.808,149.808,0,0,0,.2,30c.329,2.9.8,5.754,1.33,8.576l-74.77,69.953-20.911-23.211Zm85.435,66.728c-4.655,4.375-9.249,8.687-13.816,12.77l-13.423-14.9-18.515-20.553L271.425,443.6a103.563,103.563,0,0,0,13.1,30.561,82.318,82.318,0,0,0,14.651,17.224C278.259,502.573,260.878,518.892,244.971,533.839Zm140.665-95.052c-.1.678-.213,1.353-.336,2.019a61.171,61.171,0,0,1-23.176,37.5,104.627,104.627,0,0,0-32.886,1.795,113.176,113.176,0,0,0-24.106,8.3,74.6,74.6,0,0,1-15.392-17.263c-8-12.24-13.4-27.346-15.271-43.78a140.535,140.535,0,0,1-.329-27.126,223.9,223.9,0,0,1,7.329-40.178l74.777,28C376.538,395.652,388.9,417,385.637,438.787Zm-101.761-92.4,2.64-144.672,58.508,17.624v88.653L308.335,355.55Z" transform="translate(-148.2 -64.171)" fill="#b5b7d6"/>
            <path id="Path_53" data-name="Path 53" d="M200.758,138.849,158.487,136.8v71.263h34.766Z" transform="translate(-140.529 -8.878)" fill="#d3d4e9"/>
            <rect id="Rectangle_25" data-name="Rectangle 25" width="40.245" height="29.065" transform="translate(11.25 212.599)" fill="#d3d4e9"/>
            <path id="Path_54" data-name="Path 54" d="M270.726,133.363H237.189v15.213l91.668,24.937V99.826H270.726Z" transform="translate(-80.61 -37.026)" fill="#d3d4e9"/>
            <path id="Path_55" data-name="Path 55" d="M205.687,141.061l33.126,9.7V89.67h-28.2Z" transform="translate(-104.593 -44.758)" fill="#d3d4e9"/>
            <rect id="Rectangle_26" data-name="Rectangle 26" width="29.066" height="31.301" transform="translate(147.635 42.677)" fill="#d3d4e9"/>
            <path id="Path_56" data-name="Path 56" d="M258.874,238.388l48.1,23.223,21.079-22.655-51.633-23.611Z" transform="translate(-64.101 50.923)" fill="#d3d4e9"/>
            <rect id="Rectangle_27" data-name="Rectangle 27" width="26.83" height="91.668" transform="translate(93.976 145.524)" fill="#d3d4e9"/>
            <rect id="Rectangle_28" data-name="Rectangle 28" width="6.707" height="17.886" transform="translate(76.089 232.721)" fill="#d3d4e9"/>
            <path id="Path_57" data-name="Path 57" d="M232.111,151.369v54.542h40.245V164.253Z" transform="translate(-84.476 2.216)" fill="#d3d4e9"/>
            <rect id="Rectangle_29" data-name="Rectangle 29" width="8.943" height="26.83" transform="translate(143.163 234.957)" fill="#d3d4e9"/>
            <rect id="Rectangle_30" data-name="Rectangle 30" width="8.943" height="26.83" transform="translate(156.578 234.957)" fill="#d3d4e9"/>
            <rect id="Rectangle_31" data-name="Rectangle 31" width="8.943" height="26.83" transform="translate(169.993 234.957)" fill="#d3d4e9"/>
            <path id="Path_58" data-name="Path 58" d="M163.117,80.187l-12.81-.849-.171-.011a33.648,33.648,0,0,0-.433,6.746l-.234,55.073,13.649.75Z" transform="translate(-147.395 -52.632)" fill="#d3d4e9"/>
            <path id="Path_59" data-name="Path 59" d="M163.564,80.138V141.75l35.567,1.953,6.446-60.783Z" transform="translate(-136.663 -52.015)" fill="#d3d4e9"/>
            <path id="Path_60" data-name="Path 60" d="M303.567,320.131,321.4,332.86l.188-44.336-5.161-2.167Z" transform="translate(-30.074 104.986)" fill="#d3d4e9"/>
          </g>
        </g>
        <g id="Group_62" data-name="Group 62" transform="translate(0 23.19)">
          <path id="Path_61" data-name="Path 61" d="M354.593,64.171V175.987l-28.508-28.508H118.528V64.171H354.593" transform="translate(-118.528 -64.171)" fill="#5987e4"/>
          <ellipse id="Ellipse_1" data-name="Ellipse 1" cx="31.466" cy="31.466" rx="31.466" ry="31.466" transform="translate(147.335 13.078)" fill="#184bb8"/>
          <g id="Group_57" data-name="Group 57" transform="translate(21.823 33.874)">
            <path id="Path_62" data-name="Path 62" d="M130.918,83.861c0-.254,24.343-.458,54.367-.458s54.371.2,54.371.458-24.338.46-54.371.46S130.918,84.115,130.918,83.861Z" transform="translate(-130.918 -83.403)" fill="#fff"/>
          </g>
          <g id="Group_58" data-name="Group 58" transform="translate(21.823 45.842)">
            <path id="Path_63" data-name="Path 63" d="M130.918,90.656c0-.254,24.343-.458,54.367-.458s54.371.2,54.371.458-24.338.458-54.371.458S130.918,90.91,130.918,90.656Z" transform="translate(-130.918 -90.198)" fill="#fff"/>
          </g>
          <g id="Group_59" data-name="Group 59" transform="translate(74.05 57.62)">
            <path id="Path_64" data-name="Path 64" d="M160.57,97.343c0-.254,12.652-.458,28.253-.458s28.257.2,28.257.458-12.648.46-28.257.46S160.57,97.6,160.57,97.343Z" transform="translate(-160.57 -96.885)" fill="#fff"/>
          </g>
          <g id="Group_60" data-name="Group 60" transform="translate(71.885 21.564)">
            <path id="Path_65" data-name="Path 65" d="M159.341,76.872c0-.254,13.136-.458,29.337-.458s29.339.2,29.339.458-13.132.46-29.339.46S159.341,77.126,159.341,76.872Z" transform="translate(-159.341 -76.414)" fill="#184bb8"/>
          </g>
          <g id="Group_61" data-name="Group 61" transform="translate(165.691 29.001)">
            <path id="Path_66" data-name="Path 66" d="M228.428,95.646a7.8,7.8,0,0,0,4.516-7.3,7.334,7.334,0,1,0-14.637.2,7.789,7.789,0,0,0,4.8,7.2c-11.232,1.9-10.5,14.135-10.5,14.135l26.635-.368S239.623,97.127,228.428,95.646Z" transform="translate(-212.599 -80.637)" fill="#fff"/>
          </g>
        </g>
      </g>
      <g id="Group_141" data-name="Group 141" transform="translate(295.952 92.725)">
        <g id="Group_69" data-name="Group 69" transform="translate(0 31.184)">
          <path id="Path_67" data-name="Path 67" d="M473.846,202.3c-8.236-12.09-13.791-18.091-25.618-22.369a46.31,46.31,0,0,0-14.054-2.693h0c-11.315,3.5-19.114,3.477-30.429-.007-5.795.726-10.748-3.45-40.336,14.864-12.211,7.556-20.59,12.567-35.093,20.026-3.958,1.851-6.756,2.917-7.368,2.549-2.69-1.612-31.868-55.01-31.868-55.01s-6.508-18.455-9.233-18.342-22.11.717-22.413,3.745.909,16.354,3.029,18.172,9.737,6.677,9.737,6.677,32.364,83.695,44.324,82.506c8.75-.87,42.49-14.881,59.987-22.346l3.889-1.384,2.293,48.525-.928,61.159,76.322-4.329-1.272-62.975c.59-15.671.183-20.738,1.807-33.724l22.862,8.694,4.079-25.823A132.9,132.9,0,0,0,473.846,202.3Z" transform="translate(-252.693 -106.157)" fill="#e5baab"/>
          <g id="Group_68" data-name="Group 68">
            <path id="Path_68" data-name="Path 68" d="M283.171,135.966c.625-13.478-19.063-20.116-26.182-8.986C247.056,142.5,273,170.632,273,170.632l.525-1.125S282.686,146.361,283.171,135.966Zm-9.457,7.188a7.541,7.541,0,1,1,.615-10.645A7.54,7.54,0,0,1,273.714,143.154Z" transform="translate(-254.723 -121.354)" fill="#0eae13"/>
            <g id="Group_64" data-name="Group 64" transform="translate(7.02 41.053)">
              <path id="Path_69" data-name="Path 69" d="M262.963,144.665c.132-.07.965,1.219,2.205,3.359l2.128,3.783c.389.727.81,1.439,1.219,2.292a3.871,3.871,0,0,1,.268,3.081,2.411,2.411,0,0,1-2.358,1.511,3.636,3.636,0,0,1-2.328-.969,25.182,25.182,0,0,1-2.54-3.084c-1.4-1.856-2.385-3.246-2.742-3.88l.231-.09c-.021.3-.056.447-.1.451s-.1-.134-.16-.433l-.076-.368.308.277c.541.486,1.687,1.749,3.2,3.516a33.142,33.142,0,0,0,2.538,2.836c.891.854,2.607,1.013,3.029-.167.562-1.421-.715-3.058-1.365-4.507q-1.007-2.034-1.923-3.891C263.427,146.148,262.831,144.734,262.963,144.665Z" transform="translate(-258.708 -144.662)" fill="#0eae13"/>
            </g>
            <g id="Group_65" data-name="Group 65" transform="translate(11.963 37.943)">
              <path id="Path_70" data-name="Path 70" d="M266.206,142.9c.1-.078,1.259.992,2.813,3.063a14.071,14.071,0,0,1,2.121,4.072,9.712,9.712,0,0,1,.453,2.737,4.124,4.124,0,0,1-.942,3.035,2.257,2.257,0,0,1-1.71.638,3.5,3.5,0,0,1-1.553-.5,8.815,8.815,0,0,1-2.084-1.858,17.608,17.608,0,0,1-2.543-3.794c-1.147-2.346-1.33-3.968-1.214-3.991.169-.053.615,1.472,1.883,3.627a20.058,20.058,0,0,0,2.61,3.489,8.319,8.319,0,0,0,1.872,1.61,1.607,1.607,0,0,0,1.985.012,3.247,3.247,0,0,0,.639-2.256,9.161,9.161,0,0,0-.35-2.464,15.237,15.237,0,0,0-1.8-3.928C267.039,144.273,266.068,143,266.206,142.9Z" transform="translate(-261.515 -142.897)" fill="#0eae13"/>
            </g>
            <g id="Group_67" data-name="Group 67" transform="translate(12.739 32.697)">
              <path id="Path_71" data-name="Path 71" d="M283.806,143.134l-18.441-2.8a3.225,3.225,0,0,0-2.422.269c-1.14.844-.68,2.661.12,3.833a14.632,14.632,0,0,0,7.174,5.194,43.567,43.567,0,0,0,8.779,1.906" transform="translate(-261.723 -139.684)" fill="#0eae13"/>
              <g id="Group_66" data-name="Group 66">
                <path id="Path_72" data-name="Path 72" d="M279.248,151.766a5.2,5.2,0,0,1-1.717-.042,37.308,37.308,0,0,1-4.622-.72,19.52,19.52,0,0,1-6.5-2.633,13,13,0,0,1-3.126-2.827,6.17,6.17,0,0,1-1.138-2.036,3.031,3.031,0,0,1,.218-2.6,2.631,2.631,0,0,1,2.455-.97c.8.067,1.471.208,2.179.31q2.077.33,4.019.643l6.8,1.15c3.864.687,6.242,1.185,6.221,1.332s-2.443-.085-6.337-.578l-6.832-.921-4.028-.581c-1.358-.162-3.019-.661-3.59.231a2.023,2.023,0,0,0-.077,1.673,5.146,5.146,0,0,0,.944,1.7,12.443,12.443,0,0,0,2.848,2.653,20.252,20.252,0,0,0,6.129,2.718C276.85,151.247,279.283,151.58,279.248,151.766Z" transform="translate(-261.955 -139.918)" fill="#0eae13"/>
              </g>
            </g>
          </g>
        </g>
        <g id="Group_71" data-name="Group 71" transform="translate(216.794 270.675)">
          <path id="Path_73" data-name="Path 73" d="M391.361,342.854a33.776,33.776,0,0,0,29.7-53.368c-4.787-6.684-11.8-11.368-18.66-15.9l-24.59-16.259,7.521,63.757,6.033,21.772" transform="translate(-377.808 -257.326)" fill="#184bb8"/>
          <g id="Group_70" data-name="Group 70" transform="translate(4.305 26.46)">
            <path id="Path_74" data-name="Path 74" d="M424.519,289.205a4.723,4.723,0,0,1-1.333,1.613,11.723,11.723,0,0,1-5.147,2.462c-4.75,1.126-11.729.132-18.21-3.371-6.522-3.482-11.257-8.276-14.533-11.708-1.633-1.742-2.906-3.193-3.771-4.208a9,9,0,0,1-1.27-1.643,9.2,9.2,0,0,1,1.532,1.4l3.974,4c3.38,3.3,8.132,7.956,14.5,11.35,6.323,3.419,13.064,4.465,17.649,3.546a12.3,12.3,0,0,0,5.055-2.1C424,289.746,424.454,289.152,424.519,289.205Z" transform="translate(-380.252 -272.349)" fill="#14365b"/>
          </g>
        </g>
        <g id="Group_94" data-name="Group 94" transform="translate(116.331 103.255)">
          <path id="Path_75" data-name="Path 75" d="M406.614,257.707l1.756-36.322s-12.484-10.455-8.4-57.411l-6-1.7s-3.7,59.1-33.682,56.509-19.449-55.7-19.449-55.7a14.552,14.552,0,0,0-8.9,3.676c-.229.111-1.324,19.4-1.918,35.769-3.11,5.916-5.166,12.437-4.752,19.063a23.466,23.466,0,0,0,5.566,13.8c.808,11.107,1.606,25.869,1.606,25.869L320.77,291.479l2.806,10.663,85.65-.96,2.526-11.4Z" transform="translate(-320.77 -162.273)" fill="#5987e4"/>
          <g id="Group_72" data-name="Group 72" transform="translate(68.83 54.654)">
            <path id="Path_76" data-name="Path 76" d="M363.952,193.312c.217.134-.52,1.719-1.642,3.544s-2.209,3.2-2.424,3.061.52-1.717,1.642-3.542S363.737,193.18,363.952,193.312Z" transform="translate(-359.849 -193.303)" fill="#fff"/>
          </g>
          <g id="Group_73" data-name="Group 73" transform="translate(69.81 78.402)">
            <path id="Path_77" data-name="Path 77" d="M367.118,213.6c-.181.178-1.827-1.2-3.676-3.079s-3.2-3.546-3.021-3.723,1.825,1.2,3.676,3.081S367.3,213.426,367.118,213.6Z" transform="translate(-360.405 -206.786)" fill="#fff"/>
          </g>
          <g id="Group_74" data-name="Group 74" transform="translate(18.258 62.249)">
            <path id="Path_78" data-name="Path 78" d="M339.915,197.641c.137.213-1.716,1.654-4.136,3.22s-4.5,2.663-4.636,2.45,1.716-1.654,4.137-3.22S339.777,197.428,339.915,197.641Z" transform="translate(-331.136 -197.615)" fill="#fff"/>
          </g>
          <g id="Group_75" data-name="Group 75" transform="translate(6.172 55.842)">
            <path id="Path_79" data-name="Path 79" d="M331.638,198.249c-.125.218-1.876-.551-3.907-1.719s-3.576-2.3-3.45-2.515,1.876.55,3.908,1.719S331.765,198.029,331.638,198.249Z" transform="translate(-324.274 -193.978)" fill="#fff"/>
          </g>
          <g id="Group_76" data-name="Group 76" transform="translate(13.122 23.429)">
            <path id="Path_80" data-name="Path 80" d="M328.939,175.575c.252.011.363,2.191.245,4.868s-.417,4.842-.671,4.831-.363-2.191-.245-4.87S328.685,175.563,328.939,175.575Z" transform="translate(-328.22 -175.575)" fill="#fff"/>
          </g>
          <g id="Group_77" data-name="Group 77" transform="translate(73.141 29.81)">
            <path id="Path_81" data-name="Path 81" d="M365.2,179.205c.226.114-.227,1.478-1.011,3.047s-1.6,2.749-1.832,2.637.227-1.478,1.011-3.047S364.97,179.092,365.2,179.205Z" transform="translate(-362.296 -179.198)" fill="#fff"/>
          </g>
          <g id="Group_78" data-name="Group 78" transform="translate(43.344 69.854)">
            <path id="Path_82" data-name="Path 82" d="M346.776,209.736c-.25.04-.733-1.673-1.078-3.829s-.423-3.933-.173-3.974.733,1.673,1.078,3.829S347.026,209.7,346.776,209.736Z" transform="translate(-345.379 -201.933)" fill="#fff"/>
          </g>
          <g id="Group_79" data-name="Group 79" transform="translate(60.166 53.648)">
            <path id="Path_83" data-name="Path 83" d="M358.966,192.819c.107.229-.706.838-1.818,1.361s-2.1.761-2.209.532.706-.838,1.818-1.362S358.856,192.59,358.966,192.819Z" transform="translate(-354.93 -192.732)" fill="#fff"/>
          </g>
          <g id="Group_80" data-name="Group 80" transform="translate(80.971 67.267)">
            <path id="Path_84" data-name="Path 84" d="M371.023,200.591c.077.241-.817.743-2,1.124s-2.2.491-2.279.25.817-.745,2-1.124S370.945,200.35,371.023,200.591Z" transform="translate(-366.741 -200.464)" fill="#fff"/>
          </g>
          <g id="Group_81" data-name="Group 81" transform="translate(17.861 47.168)">
            <path id="Path_85" data-name="Path 85" d="M334.575,195.177c-.218.129-1.207-1.134-2.205-2.823s-1.635-3.163-1.416-3.292,1.2,1.136,2.205,2.825S334.793,195.049,334.575,195.177Z" transform="translate(-330.911 -189.053)" fill="#fff"/>
          </g>
          <g id="Group_82" data-name="Group 82" transform="translate(20.613 77.091)">
            <path id="Path_86" data-name="Path 86" d="M334.624,208.5c-.24.1-.682-.44-1.228-1.039s-1.027-1.1-.9-1.33.926-.019,1.585.717S334.856,208.41,334.624,208.5Z" transform="translate(-332.473 -206.042)" fill="#fff"/>
          </g>
          <g id="Group_83" data-name="Group 83" transform="translate(11.688 114.106)">
            <path id="Path_87" data-name="Path 87" d="M327.517,234.391c-.247-.056-.069-1.744.4-3.769s1.044-3.621,1.291-3.563.069,1.744-.4,3.769S327.764,234.447,327.517,234.391Z" transform="translate(-327.406 -227.057)" fill="#fff"/>
          </g>
          <g id="Group_84" data-name="Group 84" transform="translate(24.827 116.272)">
            <path id="Path_88" data-name="Path 88" d="M340.231,234.1c-.187.173-1.534-.986-3.008-2.586s-2.522-3.038-2.336-3.211,1.534.986,3.01,2.589S340.416,233.929,340.231,234.1Z" transform="translate(-334.866 -228.287)" fill="#fff"/>
          </g>
          <g id="Group_85" data-name="Group 85" transform="translate(15.454 129.568)">
            <path id="Path_89" data-name="Path 89" d="M335.9,238.17c-.085.24-1.575-.072-3.327-.694s-3.107-1.321-3.021-1.561,1.575.074,3.327.7S335.982,237.932,335.9,238.17Z" transform="translate(-329.544 -235.836)" fill="#fff"/>
          </g>
          <g id="Group_86" data-name="Group 86" transform="translate(42.405 119.368)">
            <path id="Path_90" data-name="Path 90" d="M348.274,230.05c.227.111-.345,1.758-1.277,3.679s-1.874,3.391-2.1,3.28.343-1.758,1.277-3.679S348.045,229.941,348.274,230.05Z" transform="translate(-344.845 -230.045)" fill="#fff"/>
          </g>
          <g id="Group_87" data-name="Group 87" transform="translate(57.802 124.043)">
            <path id="Path_91" data-name="Path 91" d="M362.258,232.708c.211.1-.969,2.4-3.531,4.162-2.549,1.781-5.117,2.075-5.138,1.841-.067-.264,2.244-.93,4.615-2.594C360.6,234.481,362.032,232.553,362.258,232.708Z" transform="translate(-353.587 -232.699)" fill="#fff"/>
          </g>
          <g id="Group_88" data-name="Group 88" transform="translate(73.189 121.843)">
            <path id="Path_92" data-name="Path 92" d="M372.45,239.4c-.155.2-2.549-1.416-5.342-3.607s-4.933-4.13-4.777-4.331,2.549,1.416,5.342,3.609S372.607,239.2,372.45,239.4Z" transform="translate(-362.323 -231.45)" fill="#fff"/>
          </g>
          <g id="Group_89" data-name="Group 89" transform="translate(48.03 100.774)">
            <path id="Path_93" data-name="Path 93" d="M356.893,219.5c.162.194-1.686,2.017-4.127,4.072s-4.555,3.565-4.717,3.371,1.684-2.017,4.127-4.072S356.729,219.311,356.893,219.5Z" transform="translate(-348.039 -219.487)" fill="#fff"/>
          </g>
          <g id="Group_90" data-name="Group 90" transform="translate(24.266 94.153)">
            <path id="Path_94" data-name="Path 94" d="M341.608,223.227c-.185.174-1.911-1.362-3.856-3.428s-3.375-3.884-3.19-4.058,1.911,1.362,3.857,3.429S341.793,223.055,341.608,223.227Z" transform="translate(-334.547 -215.728)" fill="#fff"/>
          </g>
          <g id="Group_91" data-name="Group 91" transform="translate(46.321 89.316)">
            <path id="Path_95" data-name="Path 95" d="M356.312,213.054c.07.243-1.941,1.037-4.493,1.772s-4.678,1.136-4.749.891,1.943-1.036,4.495-1.772S356.242,212.811,356.312,213.054Z" transform="translate(-347.069 -212.983)" fill="#fff"/>
          </g>
          <g id="Group_92" data-name="Group 92" transform="translate(73.528 96.38)">
            <path id="Path_96" data-name="Path 96" d="M366.967,225.8c-.227.114-1.4-1.765-2.617-4.2s-2.022-4.493-1.8-4.606,1.4,1.765,2.617,4.2S367.193,225.687,366.967,225.8Z" transform="translate(-362.516 -216.993)" fill="#fff"/>
          </g>
          <g id="Group_93" data-name="Group 93" transform="translate(13.908 95.924)">
            <path id="Path_97" data-name="Path 97" d="M329.744,216.734c.252.023.259,2.114.014,4.666s-.646,4.6-.9,4.579-.259-2.112-.014-4.666S329.492,216.709,329.744,216.734Z" transform="translate(-328.666 -216.734)" fill="#fff"/>
          </g>
        </g>
        <g id="Group_101" data-name="Group 101" transform="translate(110.635)">
          <path id="Path_98" data-name="Path 98" d="M340.96,171.278c-4.349.491-8.835.6-13.02-.682s-8.06-4.15-9.684-8.215-.484-9.312,3.19-11.693c1.74-1.129,4.07-1.754,4.879-3.667.9-2.133-.653-4.416-1.666-6.5A14.52,14.52,0,0,1,344.98,121.6c.81-9.566,9.6-17.781,19.2-17.948s18.665,7.738,19.808,17.27c.336,2.808.106,5.825,1.531,8.266,1.624,2.783,4.948,4.051,7.2,6.357,4.388,4.5,3.8,11.848,1.793,17.8s-5.162,11.773-4.976,18.054" transform="translate(-317.536 -103.65)" fill="#14365b"/>
          <path id="Path_99" data-name="Path 99" d="M347.243,196.505c-.424-6.221-.891-11.88-.891-11.88s-12.933-1.053-14.027-13.826-1.025-42.3-1.025-42.3l23.22-12.056,23.433,18.985.424,59.9a15.584,15.584,0,0,1-14.462,15.655h0A15.587,15.587,0,0,1,347.243,196.505Z" transform="translate(-307.058 -93.909)" fill="#e5baab"/>
          <g id="Group_96" data-name="Group 96" transform="translate(25.672 52.221)">
            <path id="Path_100" data-name="Path 100" d="M333.052,136.188a1.639,1.639,0,1,0,1.6-1.677A1.64,1.64,0,0,0,333.052,136.188Z" transform="translate(-331.395 -132.375)" fill="#14365b"/>
            <g id="Group_95" data-name="Group 95">
              <path id="Path_101" data-name="Path 101" d="M332.141,135.366c.217.206,1.4-.851,3.162-.988,1.758-.164,3.105.678,3.283.439.088-.107-.141-.493-.729-.875a4.348,4.348,0,0,0-5.145.439C332.2,134.857,332.037,135.274,332.141,135.366Z" transform="translate(-332.111 -133.298)" fill="#14365b"/>
            </g>
          </g>
          <g id="Group_98" data-name="Group 98" transform="translate(45.214 51.749)">
            <path id="Path_102" data-name="Path 102" d="M343.826,135.927a1.638,1.638,0,1,0,1.6-1.677A1.639,1.639,0,0,0,343.826,135.927Z" transform="translate(-342.734 -132.101)" fill="#14365b"/>
            <g id="Group_97" data-name="Group 97">
              <path id="Path_103" data-name="Path 103" d="M343.236,135.1c.217.206,1.4-.851,3.162-.988,1.76-.164,3.105.678,3.283.439.088-.107-.141-.493-.729-.875a4.353,4.353,0,0,0-5.143.439C343.292,134.587,343.132,135,343.236,135.1Z" transform="translate(-343.206 -133.03)" fill="#14365b"/>
            </g>
          </g>
          <g id="Group_99" data-name="Group 99" transform="translate(34.677 53.474)">
            <path id="Path_104" data-name="Path 104" d="M341.793,149.4a11.173,11.173,0,0,1-2.9.229,3.029,3.029,0,0,1-.771-.049,1.119,1.119,0,0,1-.779-.627,2.857,2.857,0,0,1,.127-1.862q.507-1.765,1.064-3.7c1.552-5.24,2.971-9.437,3.174-9.377s-.893,4.354-2.445,9.592q-.586,1.929-1.12,3.683a2.491,2.491,0,0,0-.218,1.414c.093.315.523.373.976.386A11.071,11.071,0,0,1,341.793,149.4Z" transform="translate(-337.224 -134.01)" fill="#14365b"/>
          </g>
          <path id="Path_105" data-name="Path 105" d="M347.031,143.565c.121-.148-5.087,3.14-8.683,3.227a4.88,4.88,0,0,0,5.885,1.516C347.956,146.628,347.031,143.565,347.031,143.565Z" transform="translate(-301.691 -73.264)" fill="#fff"/>
          <path id="Path_106" data-name="Path 106" d="M339.845,157.806a31.953,31.953,0,0,0,16.812-6.135s-3.614,9.487-16.456,9.266Z" transform="translate(-300.551 -67.089)" fill="#d78776"/>
          <path id="Path_107" data-name="Path 107" d="M328.02,134.147c4.018,3.739,10.314,4.261,15.463,2.357s9.287-5.865,12.643-10.209a18.743,18.743,0,0,0,17.212,4.87c.923,11.656,2.94,18.756,7.306,30.439,0,0-1.014,5.094.534,4.387,1.5-8.07,2.915-16.657,4.414-24.727.544-2.927,1.067-6.057-.1-8.8-1.252-2.929-4.148-4.738-6.719-6.619-3.2-2.341-6.114-5.05-9.363-7.317s-6.934-4.109-10.885-4.4c-4.021-.292-7.963,1.037-11.776,2.348-4.34,1.492-8.784,3.042-12.317,5.969s-6.02,7.572-5.1,12.067" transform="translate(-309.554 -95.696)" fill="#14365b"/>
          <path id="Path_108" data-name="Path 108" d="M357.786,134.6a12.32,12.32,0,0,1,4.1-1.092,4.172,4.172,0,0,1,3.694,1.712,4.048,4.048,0,0,1,.368,3.066,5.742,5.742,0,0,1-8.058,3.833" transform="translate(-286.892 -80.917)" fill="#e5baab"/>
          <g id="Group_100" data-name="Group 100" transform="translate(50.705 50.566)">
            <path id="Path_109" data-name="Path 109" d="M348.283,132.359c.21-.028.345.879-.361,1.615s-1.613.65-1.6.439c-.016-.215.565-.437,1.046-.963C347.872,132.944,348.066,132.354,348.283,132.359Z" transform="translate(-346.324 -132.359)" fill="#14365b"/>
          </g>
        </g>
        <path id="Path_110" data-name="Path 110" d="M340.554,249.929,318.4,584.09c-1.635.3-22.425,4.245-21.872,7.271.578,3.149,53.249,1.268,53.249,1.268L380.76,302.318l48.25-56.944Z" transform="translate(-222.903 4.25)" fill="#e5baab"/>
        <g id="Group_109" data-name="Group 109" transform="translate(72.185 568.187)">
          <g id="Group_102" data-name="Group 102" transform="translate(0 24.997)">
            <path id="Path_111" data-name="Path 111" d="M349.825,441.592c0,.507-12.123.821-27.066.7s-27.058-.629-27.052-1.136,12.12-.819,27.068-.7S349.83,441.086,349.825,441.592Z" transform="translate(-295.706 -440.431)" fill="#14365b"/>
          </g>
          <g id="Group_103" data-name="Group 103" transform="translate(12.318 19.404)">
            <path id="Path_112" data-name="Path 112" d="M308.062,444.58c-.268.046-.692-2.006-2.188-4-1.46-2.022-3.292-3.04-3.169-3.281.06-.231,2.279.5,3.907,2.739C308.263,442.255,308.3,444.592,308.062,444.58Z" transform="translate(-302.7 -437.256)" fill="#14365b"/>
          </g>
          <g id="Group_104" data-name="Group 104" transform="translate(29.381 16.959)">
            <path id="Path_113" data-name="Path 113" d="M338.167,436.356c.007.31-6.328-.495-13.606,1.9-7.313,2.293-12,6.635-12.171,6.378a12.345,12.345,0,0,1,3.037-2.767,31.491,31.491,0,0,1,18.661-5.99A12.261,12.261,0,0,1,338.167,436.356Z" transform="translate(-312.387 -435.868)" fill="#14365b"/>
          </g>
          <g id="Group_105" data-name="Group 105" transform="translate(22.728 12.728)">
            <path id="Path_114" data-name="Path 114" d="M341.172,434.532c-.007.254-7.3.264-16.292.023s-16.276-.639-16.269-.893,7.3-.262,16.294-.023S341.179,434.278,341.172,434.532Z" transform="translate(-308.61 -433.466)" fill="#14365b"/>
          </g>
          <g id="Group_106" data-name="Group 106" transform="translate(22.728 7.815)">
            <path id="Path_115" data-name="Path 115" d="M341.508,430.876c.005.254-7.354.65-16.437.886s-16.454.222-16.461-.032,7.352-.65,16.439-.886S341.5,430.623,341.508,430.876Z" transform="translate(-308.61 -430.677)" fill="#14365b"/>
          </g>
          <path id="Path_116" data-name="Path 116" d="M296.091,440.9a2.087,2.087,0,0,0,1.092,2.725,4.789,4.789,0,0,0,3.23.074,12.851,12.851,0,0,1,3.223-.638c2.276.026,4.349,1.751,6.607,1.474,1.36-.167,2.547-1.048,3.9-1.254,2.378-.361,4.613,1.4,7.017,1.393,2.432-.005,4.634-1.814,7.059-1.631,2.207.167,4.07,1.962,6.284,2,1.723.025,3.306-1.03,5.027-1.1,2.357-.1,4.59,1.652,6.9,1.2a3.135,3.135,0,0,0,2.225-1.6,2.341,2.341,0,0,0-.363-2.635" transform="translate(-295.566 -415.078)" fill="#14365b"/>
          <g id="Group_107" data-name="Group 107" transform="translate(43.084)">
            <path id="Path_117" data-name="Path 117" d="M324.246,434.889c-.055.085-1.067-.366-2.3-1.67a6.866,6.866,0,0,1-1.564-2.753,5.616,5.616,0,0,1-.2-1.915,2.72,2.72,0,0,1,.921-2.041,1.4,1.4,0,0,1,1.356-.167,2.312,2.312,0,0,1,.916.717,6.462,6.462,0,0,1,.925,1.68,6.859,6.859,0,0,1,.379,3.144c-.238,1.816-1.023,2.7-1.094,2.635-.141-.067.4-1.027.446-2.681a6.9,6.9,0,0,0-.518-2.79,6.132,6.132,0,0,0-.83-1.416c-.358-.428-.761-.609-1.044-.379a1.959,1.959,0,0,0-.562,1.374,5.088,5.088,0,0,0,.123,1.628,6.971,6.971,0,0,0,1.244,2.55C323.464,434.121,324.34,434.771,324.246,434.889Z" transform="translate(-320.167 -426.239)" fill="#14365b"/>
          </g>
          <g id="Group_108" data-name="Group 108" transform="translate(46.531 3.118)">
            <path id="Path_118" data-name="Path 118" d="M322.707,432.463c-.1.005-.2-.914.525-2.142a5.081,5.081,0,0,1,1.761-1.723,4.845,4.845,0,0,1,1.393-.548,1.461,1.461,0,0,1,1.02.114,1.055,1.055,0,0,1,.442,1.11,4.652,4.652,0,0,1-3.526,3.94c-1.406.292-2.239-.127-2.2-.22.019-.146.851.005,2.017-.4a4.262,4.262,0,0,0,2.8-3.431c.011-.238.014-.224,0-.211a.7.7,0,0,0-.387-.016,4.4,4.4,0,0,0-1.154.405,5.1,5.1,0,0,0-1.634,1.353C323,431.671,322.853,432.493,322.707,432.463Z" transform="translate(-322.124 -428.009)" fill="#14365b"/>
          </g>
        </g>
        <g id="Group_118" data-name="Group 118" transform="translate(162.113 255.394)">
          <path id="Path_119" data-name="Path 119" d="M415.326,569.677l-.461.109L400.382,452.9,386.7,248.65,346.814,286.4c-.986,1.848,12.528,164.739,15.4,176.135,2.7,10.7,19.6,103.364,21.64,114.573-2.385,1.194-20.2,10.228-18.874,12.907,1.418,2.869,51.554-13.383,51.554-13.383Z" transform="translate(-346.763 -248.65)" fill="#e5baab"/>
          <g id="Group_117" data-name="Group 117" transform="translate(17.827 305.472)">
            <g id="Group_110" data-name="Group 110" transform="translate(0 22.615)">
              <path id="Path_120" data-name="Path 120" d="M409.051,434.977c.136.488-11.435,4.113-25.837,8.093s-26.194,6.815-26.328,6.327,11.431-4.113,25.839-8.1S408.915,434.489,409.051,434.977Z" transform="translate(-356.884 -434.922)" fill="#14365b"/>
            </g>
            <g id="Group_111" data-name="Group 111" transform="translate(10.131 27.578)">
              <path id="Path_121" data-name="Path 121" d="M369.785,443.371c-.243.118-1.217-1.74-3.2-3.248-1.959-1.545-4-2.02-3.947-2.286-.007-.24,2.33-.143,4.509,1.561C369.339,441.079,370.019,443.316,369.785,443.371Z" transform="translate(-362.636 -437.74)" fill="#14365b"/>
            </g>
            <g id="Group_112" data-name="Group 112" transform="translate(28.253 13.973)">
              <path id="Path_122" data-name="Path 122" d="M395.453,430.05c.092.3-6.221,1.261-12.565,5.553-6.4,4.211-9.717,9.67-9.955,9.471a12.273,12.273,0,0,1,2.161-3.493A31.483,31.483,0,0,1,391.4,430.7,12.3,12.3,0,0,1,395.453,430.05Z" transform="translate(-372.925 -430.016)" fill="#14365b"/>
            </g>
            <g id="Group_113" data-name="Group 113" transform="translate(18.35 10.434)">
              <path id="Path_123" data-name="Path 123" d="M398.854,428.031c.063.247-6.95,2.256-15.66,4.491s-15.827,3.847-15.891,3.6,6.948-2.256,15.662-4.491S398.79,427.786,398.854,428.031Z" transform="translate(-367.303 -428.006)" fill="#14365b"/>
            </g>
            <g id="Group_114" data-name="Group 114" transform="translate(17.239 4.79)">
              <path id="Path_124" data-name="Path 124" d="M398.073,424.821c.076.241-6.892,2.64-15.563,5.358s-15.762,4.726-15.838,4.484,6.89-2.642,15.563-5.36S398,424.58,398.073,424.821Z" transform="translate(-366.672 -424.802)" fill="#14365b"/>
            </g>
            <path id="Path_125" data-name="Path 125" d="M357.206,449.3a2.09,2.09,0,0,0,1.8,2.321,4.8,4.8,0,0,0,3.126-.814,13,13,0,0,1,2.924-1.5c2.2-.6,4.662.493,6.758-.393,1.263-.534,2.163-1.707,3.41-2.276,2.188-1,4.819.081,7.13-.585,2.339-.673,3.96-3.015,6.343-3.5,2.168-.444,4.453.77,6.589.2,1.664-.447,2.9-1.9,4.534-2.439,2.239-.74,4.867.331,6.968-.736a3.14,3.14,0,0,0,1.7-2.152,2.343,2.343,0,0,0-1.069-2.436" transform="translate(-356.673 -412.26)" fill="#14365b"/>
            <g id="Group_115" data-name="Group 115" transform="translate(34.935)">
              <path id="Path_126" data-name="Path 126" d="M382.459,429.821a5,5,0,0,1-2.67-.972,6.88,6.88,0,0,1-2.26-2.219,5.646,5.646,0,0,1-.717-1.788,2.722,2.722,0,0,1,.326-2.216,1.41,1.41,0,0,1,1.259-.534,2.324,2.324,0,0,1,1.076.439,6.468,6.468,0,0,1,1.351,1.365,6.82,6.82,0,0,1,1.226,2.919c.269,1.811-.245,2.874-.329,2.834-.153-.026.1-1.1-.3-2.7a6.92,6.92,0,0,0-1.265-2.54,6.057,6.057,0,0,0-1.185-1.136c-.463-.314-.9-.377-1.11-.077a1.958,1.958,0,0,0-.162,1.474,5.085,5.085,0,0,0,.564,1.531,6.971,6.971,0,0,0,1.9,2.114C381.5,429.3,382.517,429.684,382.459,429.821Z" transform="translate(-376.719 -422.082)" fill="#14365b"/>
            </g>
            <g id="Group_116" data-name="Group 116" transform="translate(39.92 1.264)">
              <path id="Path_127" data-name="Path 127" d="M379.963,428.253c-.1.032-.44-.824-.083-2.2a5.047,5.047,0,0,1,1.221-2.14A4.833,4.833,0,0,1,382.29,423a1.457,1.457,0,0,1,1.015-.169,1.056,1.056,0,0,1,.729.946,4.652,4.652,0,0,1-2.313,4.756c-1.27.666-2.186.491-2.172.389-.021-.144.819-.227,1.828-.941a4.259,4.259,0,0,0,1.749-4.067c-.055-.231-.048-.217-.056-.2a.694.694,0,0,0-.377.092,4.355,4.355,0,0,0-1,.706,5.083,5.083,0,0,0-1.2,1.747C380.028,427.409,380.111,428.241,379.963,428.253Z" transform="translate(-379.549 -422.8)" fill="#14365b"/>
            </g>
          </g>
        </g>
        <g id="Group_140" data-name="Group 140" transform="translate(91.424 235.721)">
          <path id="Path_128" data-name="Path 128" d="M419.992,237.481l-85.65.96L307.173,353.879s-6.679,28.259,26.741,29.543,49.141-13.258,77.027-2.5c18.108,6.985,44.342-6.043,43.052-9.013C438.539,336.278,438.9,285.153,419.992,237.481Z" transform="translate(-306.629 -237.481)" fill="#3a6cd6"/>
          <g id="Group_119" data-name="Group 119" transform="translate(107.207 2.375)">
            <path id="Path_129" data-name="Path 129" d="M399.776,378.912a9.271,9.271,0,0,1-.352-1.437c-.181-.949-.525-2.332-1-4.1a106.288,106.288,0,0,0-5.446-14.531c-2.609-6.015-6.191-13.029-8.763-21.4s-3.882-17.936-4.44-27.958c-.588-10.034-.609-19.6-1.2-28.252a128.684,128.684,0,0,0-3.258-22.762,73.156,73.156,0,0,0-5.189-14.589c-.8-1.649-1.472-2.9-1.96-3.739a8.972,8.972,0,0,1-.675-1.316,8.564,8.564,0,0,1,.833,1.221,41.446,41.446,0,0,1,2.121,3.674,68.506,68.506,0,0,1,5.5,14.589,124.509,124.509,0,0,1,3.473,22.864c.638,8.69.683,18.256,1.272,28.255.557,9.987,1.835,19.482,4.333,27.769s6.008,15.318,8.549,21.381a96.5,96.5,0,0,1,5.2,14.7c.421,1.795.71,3.2.831,4.16A8.818,8.818,0,0,1,399.776,378.912Z" transform="translate(-367.496 -238.83)" fill="#184bb8"/>
          </g>
          <g id="Group_120" data-name="Group 120" transform="translate(52.898 0.495)">
            <path id="Path_130" data-name="Path 130" d="M343.343,284.832c.011.021-.136.139-.463.269a3.012,3.012,0,0,1-1.536.157,5.263,5.263,0,0,1-4.107-3.646c-.838-2.33-.523-5.187-.488-8.225.093-3.093.194-6.455.3-9.985.238-7.086.505-13.5.745-18.138.13-2.165.241-4,.331-5.492a8.6,8.6,0,0,1,.247-2.01,8.744,8.744,0,0,1,.109,2.022q-.016,2.243-.039,5.5c-.074,4.645-.238,11.061-.475,18.145-.132,3.53-.257,6.89-.373,9.983-.088,3.066-.44,5.856.259,7.989a4.438,4.438,0,0,0,5.492,3.428Z" transform="translate(-336.662 -237.762)" fill="#184bb8"/>
          </g>
          <g id="Group_121" data-name="Group 121" transform="translate(58.236 4.599)">
            <path id="Path_131" data-name="Path 131" d="M340.843,240.462c-.1-.063.715-.7,2-.143a2.574,2.574,0,0,1,1.481,1.812,2.344,2.344,0,0,1-1.427,2.513,2.269,2.269,0,0,1-2.841-.585,2.294,2.294,0,0,1-.067-2.364,1.915,1.915,0,0,1,1.192-1c.372-.077.569.019.565.065.026.136-.8.19-1.168,1.2a1.7,1.7,0,0,0,.155,1.592,1.456,1.456,0,0,0,1.775.255,1.526,1.526,0,0,0,.979-1.548,2.029,2.029,0,0,0-.949-1.374C341.629,240.314,340.88,240.6,340.843,240.462Z" transform="translate(-339.693 -240.092)" fill="#184bb8"/>
          </g>
          <g id="Group_122" data-name="Group 122" transform="translate(89.347 1.599)">
            <path id="Path_132" data-name="Path 132" d="M383.383,259.643a4.738,4.738,0,0,1-1.525.233,32.4,32.4,0,0,1-4.2.039,25.462,25.462,0,0,1-13.182-4.137,16.684,16.684,0,0,1-7.07-11.736,11.421,11.421,0,0,1,.356-4.224,3.956,3.956,0,0,1,.6-1.428c.2.04-.777,2.131-.312,5.578A16.749,16.749,0,0,0,365,255.025a26.855,26.855,0,0,0,12.706,4.243C381.19,259.6,383.378,259.488,383.383,259.643Z" transform="translate(-357.356 -238.389)" fill="#184bb8"/>
          </g>
          <g id="Group_123" data-name="Group 123" transform="translate(21.793 0.167)">
            <path id="Path_133" data-name="Path 133" d="M332.022,237.576a3.833,3.833,0,0,1,.361,1.284,24.443,24.443,0,0,1,.358,3.6,30.228,30.228,0,0,1-2.059,11.746c-1.7,4.356-4.234,8.007-6.91,9.7a7.965,7.965,0,0,1-3.428,1.316,2.622,2.622,0,0,1-1.342-.065,10.548,10.548,0,0,0,4.4-1.782c2.418-1.719,4.763-5.258,6.425-9.5a33.8,33.8,0,0,0,2.263-11.412C332.173,239.461,331.863,237.6,332.022,237.576Z" transform="translate(-319.002 -237.576)" fill="#184bb8"/>
          </g>
          <g id="Group_124" data-name="Group 124" transform="translate(1.662 127.671)">
            <path id="Path_134" data-name="Path 134" d="M450.233,309.971a21.874,21.874,0,0,1-4.5,3.743,36.153,36.153,0,0,1-15,5.286c-6.711.96-14.864.521-23.614-1.118-8.766-1.483-18.314-3.919-28.532-4-10.239-.1-19.648,3.038-28.243,5.222a102.154,102.154,0,0,1-12.405,2.577,52.015,52.015,0,0,1-11.054.222,30.9,30.9,0,0,1-15.031-5.127,17.326,17.326,0,0,1-1.971-1.56,12.18,12.18,0,0,1-1.323-1.277,9.1,9.1,0,0,1-.983-1.152,38.893,38.893,0,0,0,4.479,3.7,31.355,31.355,0,0,0,14.887,4.777,52.138,52.138,0,0,0,10.9-.333,103.7,103.7,0,0,0,12.289-2.639c8.55-2.216,18.031-5.416,28.461-5.323,10.376.09,19.952,2.568,28.676,4.088,8.712,1.679,16.738,2.17,23.382,1.307a36.9,36.9,0,0,0,14.9-4.946A56.422,56.422,0,0,0,450.233,309.971Z" transform="translate(-307.572 -309.967)" fill="#184bb8"/>
          </g>
          <g id="Group_139" data-name="Group 139" transform="translate(109.637 0.613)">
            <g id="Group_125" data-name="Group 125">
              <path id="Path_135" data-name="Path 135" d="M370.391,240.076c-.217.13-.708-.255-1.1-.861s-.534-1.214-.324-1.356.7.243,1.1.861S370.608,239.946,370.391,240.076Z" transform="translate(-368.875 -237.829)" fill="#184bb8"/>
            </g>
            <g id="Group_126" data-name="Group 126" transform="translate(4.061 7.046)">
              <path id="Path_136" data-name="Path 136" d="M373.441,246.859c-.236.09-.914-.953-1.511-2.327s-.9-2.582-.673-2.695.905.93,1.513,2.328S373.679,246.769,373.441,246.859Z" transform="translate(-371.181 -241.829)" fill="#184bb8"/>
            </g>
            <g id="Group_127" data-name="Group 127" transform="translate(7.979 17.248)">
              <path id="Path_137" data-name="Path 137" d="M374.953,252.913c-.247.056-.763-1.074-1.154-2.524s-.511-2.69-.269-2.764.759,1.055,1.155,2.524S375.2,252.855,374.953,252.913Z" transform="translate(-373.405 -247.622)" fill="#184bb8"/>
            </g>
            <g id="Group_128" data-name="Group 128" transform="translate(10.447 27.898)">
              <path id="Path_138" data-name="Path 138" d="M375.854,259.073c-.25.033-.645-1.145-.879-2.63s-.222-2.727.026-2.774.643,1.133.879,2.63S376.105,259.04,375.854,259.073Z" transform="translate(-374.807 -253.668)" fill="#184bb8"/>
            </g>
            <g id="Group_129" data-name="Group 129" transform="translate(11.858 38.74)">
              <path id="Path_139" data-name="Path 139" d="M376.36,265.281c-.254.018-.564-1.185-.694-2.688s-.034-2.742.218-2.769.564,1.178.694,2.688S376.612,265.261,376.36,265.281Z" transform="translate(-375.608 -259.824)" fill="#184bb8"/>
            </g>
            <g id="Group_130" data-name="Group 130" transform="translate(12.623 49.66)">
              <path id="Path_140" data-name="Path 140" d="M376.653,271.5c-.254.012-.516-1.2-.59-2.714s.063-2.746.317-2.76.521,1.2.6,2.714S376.905,271.486,376.653,271.5Z" transform="translate(-376.042 -266.024)" fill="#184bb8"/>
            </g>
            <g id="Group_131" data-name="Group 131" transform="translate(13.154 60.605)">
              <path id="Path_141" data-name="Path 141" d="M376.969,277.705c-.252.016-.523-1.2-.6-2.709s.058-2.748.312-2.758.523,1.2.6,2.709S377.223,277.691,376.969,277.705Z" transform="translate(-376.344 -272.238)" fill="#184bb8"/>
            </g>
            <g id="Group_132" data-name="Group 132" transform="translate(13.882 71.536)">
              <path id="Path_142" data-name="Path 142" d="M377.53,283.9c-.252.028-.569-1.175-.708-2.684s-.048-2.749.206-2.769.569,1.182.708,2.684S377.782,283.869,377.53,283.9Z" transform="translate(-376.757 -278.444)" fill="#184bb8"/>
            </g>
            <g id="Group_133" data-name="Group 133" transform="translate(15.151 82.422)">
              <path id="Path_143" data-name="Path 143" d="M378.576,290.024c-.248.051-.655-1.124-.907-2.623s-.255-2.741,0-2.776.657,1.138.907,2.623S378.824,289.975,378.576,290.024Z" transform="translate(-377.477 -284.625)" fill="#184bb8"/>
            </g>
            <g id="Group_134" data-name="Group 134" transform="translate(17.324 93.165)">
              <path id="Path_144" data-name="Path 144" d="M380.354,295.985c-.24.081-.779-1.039-1.2-2.5s-.567-2.7-.322-2.758.784,1.059,1.2,2.5S380.6,295.906,380.354,295.985Z" transform="translate(-378.711 -290.724)" fill="#184bb8"/>
            </g>
            <g id="Group_135" data-name="Group 135" transform="translate(20.788 103.556)">
              <path id="Path_145" data-name="Path 145" d="M383.058,301.605c-.218.113-.963-.893-1.61-2.274-.616-1.4-.926-2.605-.692-2.7s.918.942,1.524,2.316C382.917,300.306,383.289,301.486,383.058,301.605Z" transform="translate(-380.678 -296.624)" fill="#184bb8"/>
            </g>
            <g id="Group_136" data-name="Group 136" transform="translate(25.697 113.352)">
              <path id="Path_146" data-name="Path 146" d="M386.167,306.993c-.222.12-.993-.856-1.723-2.179s-1.14-2.5-.919-2.619.993.852,1.724,2.179S386.39,306.874,386.167,306.993Z" transform="translate(-383.465 -302.185)" fill="#184bb8"/>
            </g>
            <g id="Group_137" data-name="Group 137" transform="translate(30.779 123.044)">
              <path id="Path_147" data-name="Path 147" d="M388.449,312.787c-.241.076-.884-.99-1.435-2.38s-.81-2.6-.579-2.712.87.956,1.434,2.38S388.691,312.711,388.449,312.787Z" transform="translate(-386.35 -307.688)" fill="#184bb8"/>
            </g>
            <g id="Group_138" data-name="Group 138" transform="translate(33.777 133.488)">
              <path id="Path_148" data-name="Path 148" d="M388.64,316.25c-.254.007-.511-.564-.574-1.275s.09-1.317.34-1.356.509.534.574,1.277S388.894,316.243,388.64,316.25Z" transform="translate(-388.052 -313.617)" fill="#184bb8"/>
            </g>
          </g>
        </g>
        <path id="Path_149" data-name="Path 149" d="M334.129,162.942s48.761,157.038,80.112,180.512l-2.468-13.789c-18.869-32.97-41.478-96.8-66.709-167.547C342.969,160.482,335.064,161.079,334.129,162.942Z" transform="translate(-194.268 -59.862)" fill="#184bb8"/>
        <path id="Path_150" data-name="Path 150" d="M407.345,202.091l16.881,37.587c-24.454-.155-51.23-5.786-62.473-8.835-.863-.819-1.8-1.749-2.834-2.836a15.514,15.514,0,0,1-2.864-4.289,23.82,23.82,0,0,1-2.064-6.092c-.18-1.967-2.614-2.737-3.521-1.219s-.537,6.948,2.593,12.509-6.063,1.819-9.435.518-13.983-4.842-15.177-4.114c-1.751,1.069-.909,3.2,2.487,4.419,3.438,1.238,13.342,5.612,12.615,7.375-.717,1.737-17.8-5.132-17.8-5.132s-3.431-2.064-4.336-.056c-1.638,3.621,17.025,9.575,18.815,10.1,1.243.361.523,2.309-.793,1.846-1.356-.475-16.893-7.251-18.594-3.582-1.305,2.818,15.309,5.043,17.8,8.252s-12.46-2.985-13.6-.241c-.424,1.022-.6,1.848,8.465,4.157,4.872,1.24,14.369,2.454,22.3,3.329,14.408,4.211,49.8,12.4,75.549,11.584,0,0,36.523.624,30.186-21.465-6.786-23.658-26.235-59.792-26.235-59.792Z" transform="translate(-204.439 -40.871)" fill="#e5baab"/>
        <path id="Path_151" data-name="Path 151" d="M359.661,137.991a1.285,1.285,0,0,0-1.457,1.1,1.252,1.252,0,0,0,1.251,1.31,1.221,1.221,0,0,0,1.083-1.437,1.192,1.192,0,0,0-1.62-.754" transform="translate(-175.942 -77.518)" fill="#5987e4"/>
      </g>
      <g id="Group_149" data-name="Group 149" transform="translate(0 259.347)">
        <path id="Path_152" data-name="Path 152" d="M94.332,199.293c24.59-10.874,36.442,66.709,38.041,72.745s5.767,6.769,12.941-2.276,13.346-5.552,13.346-5.552c13.5,8.217-4.808,56.1-4.634,59.993s-2.7,9.488,11.32,1.562,25.781-12.146,27.827,0c1.863,11.065-12.463,42.984-12.308,47.477s14.586-6.908,20.692-10.7c7.88-4.893,16.3-4.564,17.781,5.363,1.922,12.914-23.748,50.673-23.748,50.673L183.2,437.812l-22.524-6.061s-43.977-12.442-50.915-23.5c-5.332-8.5.853-14.23,10.022-15.634,7.107-1.09,25.485-1.812,22.679-5.326s-34.443-18.448-40.22-28.067c-6.346-10.561,5.335-15,21.14-18.1s9.985-5.476,7.583-8.548-47.441-27.547-42.529-42.566c0,0,2.418-6.665,13.749-4.458s14.02-1.06,11.311-6.686-44.151-72.276-18.4-80" transform="translate(-86.695 -198.25)" fill="#3a6cd6"/>
        <g id="Group_142" data-name="Group 142" transform="translate(17.365 23.105)">
          <path id="Path_153" data-name="Path 153" d="M188.855,463.837c-.476.174-21.523-56.208-47.006-125.914-25.49-69.731-45.763-126.382-45.286-126.555s21.518,56.193,47.01,125.925C169.054,407,189.33,463.663,188.855,463.837Z" transform="translate(-96.554 -211.368)" fill="#14365b"/>
        </g>
        <g id="Group_143" data-name="Group 143" transform="translate(51.082 88.717)">
          <path id="Path_154" data-name="Path 154" d="M115.769,275.414c-.472-.169,1.423-6.519,4.768-13.946,3.32-7.442,6.8-13.081,7.239-12.842s-2.272,6.21-5.566,13.592C118.894,269.584,116.25,275.59,115.769,275.414Z" transform="translate(-115.697 -248.619)" fill="#14365b"/>
        </g>
        <g id="Group_144" data-name="Group 144" transform="translate(20.827 102.676)">
          <path id="Path_155" data-name="Path 155" d="M98.522,256.632c.113-.47,7.257.941,15.551,4.3,8.3,3.334,14.429,7.273,14.184,7.69-.257.463-6.69-2.707-14.871-5.988C105.22,259.323,98.386,257.145,98.522,256.632Z" transform="translate(-98.52 -256.544)" fill="#14365b"/>
        </g>
        <g id="Group_145" data-name="Group 145" transform="translate(69.586 137.816)">
          <path id="Path_156" data-name="Path 156" d="M126.223,305.633c-.386-.329,4.882-7.118,11.764-15.158s12.775-14.3,13.159-13.967-4.881,7.114-11.766,15.16S126.607,305.962,126.223,305.633Z" transform="translate(-126.203 -276.495)" fill="#14365b"/>
        </g>
        <g id="Group_146" data-name="Group 146" transform="translate(28.741 158.561)">
          <path id="Path_157" data-name="Path 157" d="M103.013,288.41c.06-.488,9.636.312,21.249,2.6,11.619,2.267,20.789,5.141,20.659,5.613-.132.505-9.46-1.561-21.011-3.813C112.366,290.536,102.946,288.928,103.013,288.41Z" transform="translate(-103.013 -288.273)" fill="#14365b"/>
        </g>
        <g id="Group_147" data-name="Group 147" transform="translate(41.417 207.841)">
          <path id="Path_158" data-name="Path 158" d="M110.21,316.377c.072-.5,10.108.557,22.413,2.362s22.221,3.678,22.149,4.18-10.108-.557-22.416-2.364S110.136,316.877,110.21,316.377Z" transform="translate(-110.21 -316.252)" fill="#14365b"/>
        </g>
        <g id="Group_148" data-name="Group 148" transform="translate(87.068 184.589)">
          <path id="Path_159" data-name="Path 159" d="M136.14,332.134c-.338-.437,6.485-5.9,13.564-13.937,7.13-7.993,11.739-15.42,12.211-15.139.414.206-3.563,8.194-10.837,16.356C143.848,327.611,136.394,332.52,136.14,332.134Z" transform="translate(-136.128 -303.051)" fill="#14365b"/>
        </g>
      </g>
      <g id="Group_160" data-name="Group 160" transform="translate(153.668 177.891)">
        <g id="Group_150" data-name="Group 150" transform="translate(14.4)">
          <path id="Path_160" data-name="Path 160" d="M183.287,500.783c36.5-17.689,60.327-53.06,95.693-72.424,9.111-4.99,19.091-8.738,29.536-9.451,9.249-.631,18.117.141,27.17-2.441,12.666-3.611,20.366-11.759,25.932-23.56,6.859-14.538,12.016-33.654,5.441-49.083a64.825,64.825,0,0,0-32.028-33.088c-7.863-3.713-16.3-5.908-24.335-9.2-5.231-2.144-11.516-4.484-15.792-8.329-3.278-2.947-1.985-4.824.125-8.666a96.7,96.7,0,0,1,9.6-13.52c6.512-8.139,14.293-16.049,19.072-25.421,3.343-6.557,3.933-13.952,4.042-21.2.35-23.5,1.233-46.948,1.828-70.46.065-2.6-3.856-2.559-4.012,0-1.279,20.891-2.51,41.96-2.078,62.89.159,7.655.6,16.06-1.982,23.392-3.417,9.7-11.641,17.814-18.02,25.624-4.911,6.01-9.874,12.165-13.442,19.095-1.613,3.133-2.573,5.263-.661,8.435,4.294,7.123,16.07,10.58,23.338,13.377,9.187,3.537,18.535,5.992,27.1,11.075,8.2,4.872,14.617,11.82,19.692,19.85,7.369,11.655,8.2,22.695,5.076,35.982-4.053,17.212-11.644,34.434-29.731,39.781-8.777,2.594-17.384,1.9-26.335,2.543a68.965,68.965,0,0,0-22.084,5.619c-40.167,17.14-66.053,56.662-103.927,77.842-.882.493-.107,1.772.782,1.34Z" transform="translate(-182.116 -152.003)" fill="#d2444c"/>
        </g>
        <path id="Path_161" data-name="Path 161" d="M202.586,339.3c.972-16.252-20.1-20.188-27.375-7.88-6.66,11.26,15.021,42.069,15.021,42.069h0m2.027-27.373a7.853,7.853,0,1,1,1.377-11.022A7.853,7.853,0,0,1,192.259,346.119Z" transform="translate(-173.94 -20.905)" fill="#efc411"/>
        <g id="Group_159" data-name="Group 159" transform="translate(14.339 52.383)">
          <path id="Path_162" data-name="Path 162" d="M303.317,181.744v57.425l-14.641-14.641h-106.6V181.744H303.317" transform="translate(-182.081 -181.744)" fill="#5987e4"/>
          <g id="Group_151" data-name="Group 151" transform="translate(52.834 13.26)">
            <path id="Path_163" data-name="Path 163" d="M212.078,189.732c0-.254,11.819-.46,26.394-.46s26.4.206,26.4.46-11.815.458-26.4.458S212.078,189.984,212.078,189.732Z" transform="translate(-212.078 -189.272)" fill="#fff"/>
          </g>
          <g id="Group_152" data-name="Group 152" transform="translate(88.506 25.182)">
            <path id="Path_164" data-name="Path 164" d="M232.331,196.5c0-.254,3.324-.458,7.421-.458s7.42.2,7.42.458-3.322.458-7.42.458S232.331,196.753,232.331,196.5Z" transform="translate(-232.331 -196.041)" fill="#fff"/>
          </g>
          <g id="Group_153" data-name="Group 153" transform="translate(83.094 25.204)">
            <path id="Path_165" data-name="Path 165" d="M231.167,199.789c-.25.063-.669-.756-1.166-1.737s-.891-1.812-.69-1.974.972.479,1.511,1.564S231.409,199.73,231.167,199.789Z" transform="translate(-229.258 -196.053)" fill="#fff"/>
          </g>
          <g id="Group_154" data-name="Group 154" transform="translate(57.586 24.77)">
            <path id="Path_166" data-name="Path 166" d="M214.776,196.265c0-.254,4.569-.458,10.2-.458s10.2.2,10.2.458-4.567.458-10.2.458S214.776,196.519,214.776,196.265Z" transform="translate(-214.776 -195.807)" fill="#fff"/>
          </g>
          <g id="Group_155" data-name="Group 155" transform="translate(52.974 24.804)">
            <path id="Path_167" data-name="Path 167" d="M214.3,199.755c-.225.118-.868-.664-1.437-1.745s-.849-2.054-.625-2.172.868.662,1.437,1.745S214.521,199.637,214.3,199.755Z" transform="translate(-212.157 -195.826)" fill="#fff"/>
          </g>
          <g id="Group_156" data-name="Group 156" transform="translate(25.43 24.564)">
            <path id="Path_168" data-name="Path 168" d="M196.519,196.148c0-.254,4.8-.458,10.718-.458s10.719.2,10.719.458-4.8.458-10.719.458S196.519,196.4,196.519,196.148Z" transform="translate(-196.519 -195.69)" fill="#fff"/>
          </g>
          <g id="Group_157" data-name="Group 157" transform="translate(20.552 23.473)">
            <path id="Path_169" data-name="Path 169" d="M195.971,198.458c-.213.137-.868-.507-1.464-1.437s-.9-1.8-.69-1.932.868.507,1.464,1.439S196.184,198.323,195.971,198.458Z" transform="translate(-193.75 -195.071)" fill="#fff"/>
          </g>
          <g id="Group_158" data-name="Group 158" transform="translate(10.795 23.738)">
            <path id="Path_170" data-name="Path 170" d="M188.21,195.681c0-.254,1.43-.46,3.2-.46s3.2.206,3.2.46-1.43.458-3.2.458S188.21,195.934,188.21,195.681Z" transform="translate(-188.21 -195.221)" fill="#fff"/>
          </g>
        </g>
      </g>
      <g id="Group_165" data-name="Group 165" transform="translate(500.223 70.864)">
        <g id="Group_162" data-name="Group 162">
          <g id="Group_161" data-name="Group 161">
            <path id="Path_171" data-name="Path 171" d="M519.592,167.275s.016-.393.093-1.152c.085-.787.206-1.9.363-3.357.065-.738.217-1.559.238-2.475s.026-1.918.041-3c-.005-1.083.074-2.253.007-3.5q-.161-1.865-.34-3.968a64.547,64.547,0,0,0-5.25-19.72,63.772,63.772,0,0,0-15.929-21.693q-1.419-1.236-2.875-2.5c-1.022-.777-2.1-1.508-3.162-2.277a61.445,61.445,0,0,0-22.846-10.011,65.7,65.7,0,0,0-8.879-1.386c-1.515-.164-3.058-.1-4.6-.155l-2.328-.044c-.779.026-1.557.116-2.341.171a61.091,61.091,0,0,0-18.832,4.153,64.314,64.314,0,0,0-31.493,26.015,65.332,65.332,0,0,0-9.057,42.793c.139.974.3,1.943.477,2.9l.035.2-.114.159-20.734,28.814-.437-.712L402.24,191.8l.275-.042.155.231A63.794,63.794,0,0,0,440.3,218.5a48.728,48.728,0,0,0,7.1,1.314q1.77.217,3.516.433c1.164.141,2.334.083,3.487.134a63.891,63.891,0,0,0,25.435-4.541,65.706,65.706,0,0,0,18.918-11.648l3.611-3.392,3.093-3.521a33.929,33.929,0,0,0,2.695-3.487c.8-1.175,1.7-2.232,2.351-3.394a66.883,66.883,0,0,0,5.966-12.15l1.582-4.645q.486-2.055.823-3.48c.224-.916.4-1.62.52-2.128.122-.477.2-.717.2-.717s-.03.248-.127.731c-.106.513-.255,1.222-.447,2.147q-.309,1.432-.756,3.507-.663,2.037-1.522,4.683a65.964,65.964,0,0,1-5.881,12.276c-.645,1.173-1.539,2.244-2.341,3.433a33.826,33.826,0,0,1-2.69,3.533l-3.1,3.568-3.62,3.44a66.005,66.005,0,0,1-19.038,11.845,64.425,64.425,0,0,1-25.7,4.68c-1.166-.049-2.35.012-3.528-.125l-3.556-.43a49.22,49.22,0,0,1-7.19-1.31,64.517,64.517,0,0,1-38.159-26.778l.428.187-30.608,4.763-1.067.167.631-.877c6.714-9.339,13.649-18.982,20.726-28.821l-.079.351c-.18-.974-.344-1.959-.483-2.947a66.151,66.151,0,0,1,9.2-43.4,65.112,65.112,0,0,1,31.952-26.327,61.784,61.784,0,0,1,19.086-4.171c.793-.055,1.582-.143,2.369-.167q1.184.026,2.358.049c1.564.065,3.126,0,4.659.171a66.257,66.257,0,0,1,8.981,1.423,64.345,64.345,0,0,1,16.162,5.913,63.649,63.649,0,0,1,6.908,4.287c1.073.78,2.158,1.524,3.186,2.313q1.464,1.281,2.894,2.536a63.872,63.872,0,0,1,21.1,41.858q.158,2.116.3,3.995c.053,1.251-.041,2.425-.049,3.514q-.045,1.627-.085,3.01c-.035.918-.2,1.738-.282,2.478-.2,1.451-.349,2.566-.454,3.352C519.671,166.892,519.592,167.275,519.592,167.275Z" transform="translate(-370.698 -91.238)" fill="#14365b"/>
          </g>
        </g>
        <g id="Group_164" data-name="Group 164" transform="translate(56.733 40.283)">
          <path id="Path_172" data-name="Path 172" d="M452.449,114.109l7.725,58.568H402.908l8.343-58.568Z" transform="translate(-402.908 -114.109)" fill="#e4b26d"/>
          <g id="Group_163" data-name="Group 163" transform="translate(12.973 8.5)">
            <path id="Path_173" data-name="Path 173" d="M410.3,118.935a27.072,27.072,0,0,0,2.917,5.531,15.439,15.439,0,0,0,4.986,4.407,16.4,16.4,0,0,0,7.9,1.906,16.759,16.759,0,0,0,7.926-1.74,13.567,13.567,0,0,0,4.914-4.444,24.432,24.432,0,0,0,2.637-5.659,4.138,4.138,0,0,1-.233,1.7,15.489,15.489,0,0,1-1.86,4.312,13.717,13.717,0,0,1-5.055,4.831,17.038,17.038,0,0,1-8.34,1.915,16.749,16.749,0,0,1-8.3-2.084,15.382,15.382,0,0,1-5.108-4.773,16.493,16.493,0,0,1-2.055-4.218A4.169,4.169,0,0,1,410.3,118.935Z" transform="translate(-410.274 -118.934)" fill="#fff"/>
          </g>
        </g>
      </g>
    </g>
  </g>
  <text id="AB_" data-name="AB+" transform="translate(143.328 476.209)" fill="#efc411" font-size="25" font-family="GillSans-UltraBold, Gill Sans" font-weight="700"><tspan x="0" y="0">AB+</tspan></text>
  <text id="O_" data-name="O+" transform="translate(300.649 118.465)" fill="#0eae13" font-size="27" font-family="GillSans-UltraBoldCondensed, Gill Sans" font-weight="700"><tspan x="0" y="0">O+</tspan></text>
</svg>
