<svg xmlns="http://www.w3.org/2000/svg" width="708" height="260.211" viewBox="0 0 708 260.211">
  <g id="OBJECTS" transform="translate(-21 -110.344)">
    <g id="Group_1" data-name="Group 1">
      <path id="Path_1" data-name="Path 1" d="M173.982,116.076c-54.622-10.6-103.273,42.779-121.8,81.679S-4.842,329.606,116.417,344.749s144.542-2.535,152.074-55.925S244.646,129.791,173.982,116.076Z" fill="#fff0ee"/>
      <path id="Path_2" data-name="Path 2" d="M507.494,134.874c-41.852,36.665-29.485,107.824-10.1,146.3S566.637,407.042,652.916,320.5s86.577-115.771,49-154.441S561.638,87.439,507.494,134.874Z" fill="#fff0ee"/>
      <path id="Path_3" data-name="Path 3" d="M292.6,307.192c29.372,47.258,103.438,55.912,142.484,37.7,77.622-36.215,0-98.264-3.557-131.278-8.242-76.511-32.273-123.968-76.54-93.182S254.606,246.058,292.6,307.192Z" fill="#fff0ee"/>
    </g>
    <g id="Group_19" data-name="Group 19">
      <g id="Group_7" data-name="Group 7">
        <g id="Group_6" data-name="Group 6">
          <g id="Group_2" data-name="Group 2">
            <path id="Path_4" data-name="Path 4" d="M222.034,358.924a3.4,3.4,0,0,1-1.547,1.987c-1.779.765-12.1,1.8-19.747.957a15.442,15.442,0,0,0,.252-1.968C207.723,361.142,215.6,360.087,222.034,358.924Z" fill="#fad8b4"/>
            <path id="Path_5" data-name="Path 5" d="M201.8,353.667a109.856,109.856,0,0,0,11.62-2.954s1.007,3.633,8.233,3.18c0,0,1.294,2.746.382,5.031-6.431,1.163-14.311,2.218-21.042.976a18.534,18.534,0,0,0-.674-5.972C200.867,353.816,201.372,353.723,201.8,353.667Z" fill="#2c2945"/>
            <path id="Path_6" data-name="Path 6" d="M200.318,353.928a18.534,18.534,0,0,1,.674,5.972,20.114,20.114,0,0,1-7.874-3.084C194.584,355.5,197.891,354.452,200.318,353.928Z" fill="#fad8b4"/>
            <path id="Path_7" data-name="Path 7" d="M200.74,361.868a19.086,19.086,0,0,1-6.464-1.608c-2.327-1.232-2.29-2.42-1.158-3.444a20.114,20.114,0,0,0,7.874,3.084A15.442,15.442,0,0,1,200.74,361.868Z" fill="#fad8b4"/>
          </g>
          <g id="Group_3" data-name="Group 3">
            <path id="Path_8" data-name="Path 8" d="M211.617,355.5a6.216,6.216,0,0,0-1.786-3.935c-.164-.211.1-.558.343-.418,1.377.774,2.066,2.793,2.042,4.29-.008.38-.6.453-.6.063Z"/>
          </g>
          <g id="Group_4" data-name="Group 4">
            <path id="Path_9" data-name="Path 9" d="M209.062,355.683a2.327,2.327,0,0,1-.238.21.286.286,0,0,1-.452-.2,5.555,5.555,0,0,0-.442-1.77c-.281-.589-.8-.822-1.274-1.215a.276.276,0,0,1,.219-.486c1.535.251,1.97,2.122,2.068,3.406-.155-.066-.3-.134-.457-.2.094-.063.179-.109.275-.161.233-.115.483.228.3.411Z"/>
          </g>
          <g id="Group_5" data-name="Group 5">
            <path id="Path_10" data-name="Path 10" d="M210.3,351.445c-.008.054-.015.116-.021.177-.138-.085-.272-.169-.4-.254a4.748,4.748,0,0,0,1.575-2.136,8.914,8.914,0,0,0,.354-1.111c.021-.078.069-1.644-.347-1.238-1.045,1.026-1.212,3.151-1.2,4.453-.251-.009-.5-.012-.749-.021a4.186,4.186,0,0,0-.634-3.059c-.86-1.2-.617.025-.54.271a6.186,6.186,0,0,0,.336.83,20.156,20.156,0,0,0,1.7,2.9c-.234.058-.459.112-.694.169a3.62,3.62,0,0,1,.121-.437.352.352,0,0,1,.666.111c-.006.155-.011.294-.024.449a.391.391,0,0,1-.694.165,19.874,19.874,0,0,1-1.467-2.411c-.349-.639-1.139-1.924-.774-2.7.353-.751,1.245-.509,1.743-.064,1.065.937,1.17,2.611,1.006,3.9-.053.427-.752.417-.755-.014,0-.774.5-6.235,2.422-5.356.9.414.671,1.748.468,2.478a5.594,5.594,0,0,1-2.213,3.245.26.26,0,0,1-.406-.247,1.54,1.54,0,0,0,.032-.173.252.252,0,0,1,.5.079Z"/>
          </g>
        </g>
        <path id="Path_11" data-name="Path 11" d="M221.652,353.893l.378-5.223-8.944-1.53-1.043,4.16S214.324,354.448,221.652,353.893Z" fill="#f9b28f"/>
      </g>
      <g id="Group_13" data-name="Group 13">
        <g id="Group_12" data-name="Group 12">
          <g id="Group_8" data-name="Group 8">
            <path id="Path_12" data-name="Path 12" d="M273.96,347.554a3.417,3.417,0,0,1,.1,2.517c-.867,1.732-8.09,9.177-14.475,13.468a14.793,14.793,0,0,0-1.075-1.666C264.454,358.48,269.8,352.592,273.96,347.554Z" fill="#fad8b4"/>
            <path id="Path_13" data-name="Path 13" d="M255.1,356.587a109.146,109.146,0,0,0,6.975-9.75s3.113,2.126,8.344-2.88c0,0,2.759,1.262,3.537,3.6-4.164,5.038-9.506,10.926-15.451,14.319a18.486,18.486,0,0,0-4.367-4.128C254.489,357.3,254.814,356.908,255.1,356.587Z" fill="#2c2945"/>
            <path id="Path_14" data-name="Path 14" d="M254.142,357.745a18.486,18.486,0,0,1,4.367,4.128,20.121,20.121,0,0,1-8.007,2.72C250.772,362.642,252.625,359.709,254.142,357.745Z" fill="#fad8b4"/>
            <path id="Path_15" data-name="Path 15" d="M259.584,363.539a19.1,19.1,0,0,1-5.976,2.941c-2.573.559-3.311-.374-3.106-1.887a20.121,20.121,0,0,0,8.007-2.72A14.793,14.793,0,0,1,259.584,363.539Z" fill="#fad8b4"/>
          </g>
          <g id="Group_9" data-name="Group 9">
            <path id="Path_16" data-name="Path 16" d="M263.793,351.66a6.21,6.21,0,0,0-3.9-1.855.283.283,0,0,1-.008-.542c1.552-.3,3.381.8,4.327,1.961.24.3-.165.733-.415.436Z"/>
          </g>
          <g id="Group_10" data-name="Group 10">
            <path id="Path_17" data-name="Path 17" d="M261.955,353.444a2.238,2.238,0,0,1-.046.314.287.287,0,0,1-.472.143,5.482,5.482,0,0,0-1.479-1.065,3.826,3.826,0,0,0-1.757-.109.278.278,0,0,1-.146-.515c1.336-.794,2.874.355,3.778,1.271-.162.049-.32.1-.479.141a2.961,2.961,0,0,1,.106-.3.265.265,0,0,1,.495.12Z"/>
          </g>
          <g id="Group_11" data-name="Group 11">
            <path id="Path_18" data-name="Path 18" d="M260.171,349.4c.029.047.062.1.1.149-.162.023-.317.045-.471.065a4.746,4.746,0,0,0-.175-2.648,8.773,8.773,0,0,0-.446-1.078c-.034-.072-1.008-1.3-1.064-.722-.136,1.457,1.107,3.19,1.952,4.179-.2.154-.389.314-.586.468a4.176,4.176,0,0,0-2.457-1.928c-1.433-.367-.456.416-.238.556a6.334,6.334,0,0,0,.791.415,20.023,20.023,0,0,0,3.172,1.114l-.423.577a3.894,3.894,0,0,1-.189-.411c-.13-.312.361-.608.58-.346.1.123.182.234.272.358a.39.39,0,0,1-.423.574,19.929,19.929,0,0,1-2.677-.9c-.679-.262-2.111-.734-2.332-1.564-.215-.8.623-1.192,1.289-1.174,1.419.031,2.578,1.24,3.285,2.332.234.36-.306.8-.588.474-.5-.591-3.64-5.084-1.6-5.653.957-.267,1.639.9,1.955,1.591a5.585,5.585,0,0,1,.4,3.908.259.259,0,0,1-.469.073,1.394,1.394,0,0,0-.086-.152.252.252,0,0,1,.43-.261Z"/>
          </g>
        </g>
        <path id="Path_19" data-name="Path 19" d="M270.423,343.957l-3.081-4.235-7.821,4.6,1.886,3.851S265.181,349.107,270.423,343.957Z" fill="#f9b28f"/>
      </g>
      <path id="Path_20" data-name="Path 20" d="M254.689,251.878l-38.325,3.616s-.33,5.616-.779,12.49c13.639-2.446,27.052-6.691,38.946-13.294C254.624,252.942,254.689,251.878,254.689,251.878Z" fill="#c9391c"/>
      <path id="Path_21" data-name="Path 21" d="M254.531,254.69c-11.894,6.6-25.307,10.848-38.946,13.294-.463,7.108-1.052,15.564-1.533,20.559-.945,9.825-4.346,60.847-4.346,60.847s8.881,3.785,16.44,3.027c0,0,1.323-31.373,1.889-37.418s3.591-36.661,3.591-36.661l4.157.188s2.456,26.079,6.992,38.363,14.74,30.086,14.74,30.086,9.26-2.412,13.984-7.462c0,0-11.906-22.717-13.417-28.151s-4.346-31.135-4.157-40.583C254.05,264.476,254.347,258.19,254.531,254.69Z" fill="#db4d28"/>
      <path id="Path_22" data-name="Path 22" d="M197.327,217.915s-5.81-4.819-6.8-4.11,1.134,2.267,1.134,2.267-8.077-1.842-10.2-.992,3.968,3.118,3.968,3.118-4.3-1.417-4.418-.141,2.341,5.338,10.56,4.592c0,0,9.5,9.516,19.372,11.685-3.122-4.977-5.849-9.85-9.59-14.341C199.28,219.063,197.327,217.915,197.327,217.915Z" fill="#826459"/>
      <path id="Path_23" data-name="Path 23" d="M210.651,206.907s-3.4,14.516-5.859,14.233a13.237,13.237,0,0,1-3.446-1.147c3.741,4.491,6.468,9.364,9.59,14.341.606.133,1.213.246,1.821.32,10.487,1.276,19.909-18.411,19.909-24.647v-5.119S214.761,207.9,210.651,206.907Z" fill="#6b4e45"/>
      <path id="Path_24" data-name="Path 24" d="M256.056,160.432s2.632-7.866.271-12.7-5.052-5.748-5.052-5.748a11.841,11.841,0,0,0-7.724-8.8c-6.861-2.565-12.252,2.134-17.37.262s-9.064-1.235-7.81,1.738c0,0-4.311-1.532-3.57,2.036,0,0-4.489-2.328-6.478,1.356s3,9.987,8.208,9.367,34.484,14.014,34.484,14.014Z"/>
      <path id="Path_25" data-name="Path 25" d="M219.674,190.278s-1.809,13.065,9.44,14.454,14.431-16.088,14.431-16.088-2.794.035-3.978-4.084c-5.372,1.662-11.533,3.526-16.72,3.1C222.314,188.049,220.358,190.1,219.674,190.278Z" fill="#826459"/>
      <path id="Path_26" data-name="Path 26" d="M226.608,180.319s-.684,5.093-3.761,7.34c5.187.427,11.348-1.437,16.72-3.1a16.415,16.415,0,0,1-.515-4.93Z" fill="#6b4e45"/>
      <path id="Path_27" data-name="Path 27" d="M216.673,146.922s-.653,10.375-1.568,15.611.709,13.554,8.152,16.76,21.706,1.664,27.273-8.649c0,0,7.174,3.31,8.6-5.737-.842-7.073-8.122-4.181-8.122-4.181a22.073,22.073,0,0,1-3.98-11.919s-4.356-1.732-13.71-1.378A119.318,119.318,0,0,1,216.673,146.922Z" fill="#826459"/>
      <g id="Group_14" data-name="Group 14">
        <path id="Path_28" data-name="Path 28" d="M229.778,169.788c.519.568,1.795.359,2.423.112a4.18,4.18,0,0,0,2-2.5c.116-.316-.353-.6-.532-.29a7.521,7.521,0,0,1-1.219,1.9,2.934,2.934,0,0,1-2.509.486.182.182,0,0,0-.159.295Z"/>
      </g>
      <g id="Group_15" data-name="Group 15">
        <path id="Path_29" data-name="Path 29" d="M228.989,166.205l-.547-.312q-1.863-.8-.091-2.253a3.41,3.41,0,0,0,1.21.579c.855.086,1.156-.61,1.436-1.27,1.3-3.057.224-7.794-.167-10.951-.059-.484-.8-.356-.743.126a65.414,65.414,0,0,1,.607,8.2c0,1.527-.36,3.7-2.441,2.489a1.874,1.874,0,0,0-1.184-.168c-.836.043-.819,1.187-.715,1.7.227,1.123,1.509,1.844,2.483,2.138.163.049.32-.184.152-.279Z"/>
      </g>
      <g id="Group_16" data-name="Group 16">
        <path id="Path_30" data-name="Path 30" d="M251.2,168.806a4.94,4.94,0,0,1,.7-4.147,4.809,4.809,0,0,1,2.361-1.424,2.451,2.451,0,0,1,2.452.77c.327.279.717-.2.49-.518-1.4-1.948-3.835-1.017-5.4.2a4.528,4.528,0,0,0-.938,5.276.184.184,0,0,0,.334-.152Z"/>
      </g>
      <g id="Group_17" data-name="Group 17">
        <path id="Path_31" data-name="Path 31" d="M250.953,166.5c.554-1.717,2.9-.845,3.962-.362.264.119.561-.261.341-.472a3.649,3.649,0,0,0-3.048-.767c-.732.111-1.674.747-1.634,1.563.01.2.322.216.379.038Z"/>
      </g>
      <path id="Path_32" data-name="Path 32" d="M240.023,162.707c-.082.814-.586,1.429-1.129,1.375s-.916-.758-.834-1.571.587-1.432,1.13-1.377S240.106,161.893,240.023,162.707Z"/>
      <path id="Path_33" data-name="Path 33" d="M223.068,161c-.082.814-.588,1.429-1.131,1.374s-.916-.757-.834-1.571.587-1.431,1.13-1.376S223.149,160.189,223.068,161Z"/>
      <path id="Path_34" data-name="Path 34" d="M245.125,155.734s-3.235-4.727-4.521-4.813c-1.4-.09-.876.992-.876.992s-1.936.366-1.222,1.431,3.941,1.992,5.111,2.8,1.82,1.218,1.82,1.218Z"/>
      <path id="Path_35" data-name="Path 35" d="M218.567,153.237s4.112-3.987,5.389-3.815c1.391.188.661,1.144.661,1.144s1.824.745.914,1.645-4.26,1.17-5.567,1.728-2.025.832-2.025.832Z"/>
      <path id="Path_36" data-name="Path 36" d="M219.674,190.278l9.44,14.454,13.05-16.5s12.232-2.35,16.342,7.43,3.685,13.889,3.685,13.889-3.284,5.386-7.819,5.952L256.1,251.08s-16.157,10.487-40.392,4.251V218.34a19.091,19.091,0,0,1-10.913-2.409s3.26-16.015,5.385-19.842S214.855,189.286,219.674,190.278Z" fill="#db4d28"/>
      <rect id="Rectangle_2" data-name="Rectangle 2" width="37.605" height="4.725" transform="translate(173.046 213.143)" fill="#2c2945"/>
      <path id="Path_37" data-name="Path 37" d="M245.414,219.333c-1.68,4.053-4.137,9.243-5.643,9.07-2.461-.283-22.02-10.488-22.02-10.488s-5.811-4.819-6.8-4.11,1.134,2.267,1.134,2.267-8.079-1.842-10.205-.992,3.969,3.118,3.969,3.118-4.3-1.417-4.419-.141,4.561,3.76,12.781,3.014c0,0,14.172,17.678,24.66,18.953,7.329.892,15.554-8.528,19.845-16.413C254.535,221.59,250.35,219.817,245.414,219.333Z" fill="#826459"/>
      <path id="Path_38" data-name="Path 38" d="M261.686,215.222V210.1s-10.346,5.544-14.456,4.552c0,0-.753,2.112-1.816,4.678,4.936.484,9.121,2.257,13.3,4.278C260.563,220.213,261.686,217.1,261.686,215.222Z" fill="#6b4e45"/>
      <path id="Path_39" data-name="Path 39" d="M176.872,193.869l.331,16.157s-.1,3.117,2.173,3.117a2.414,2.414,0,0,0,2.372-2.371v-16.9Z" fill="#dcf8ff"/>
      <path id="Path_40" data-name="Path 40" d="M177.658,200.671l-.121,8.4s-.08,2.658,1.853,2.658a2.058,2.058,0,0,0,2.023-2.022l-.121-9.032Z" fill="#fc3d3d"/>
      <path id="Path_41" data-name="Path 41" d="M184.029,193.869l.331,16.157s-.094,3.117,2.173,3.117a2.413,2.413,0,0,0,2.371-2.371v-16.9Z" fill="#dcf8ff"/>
      <path id="Path_42" data-name="Path 42" d="M184.815,202.183l-.12,6.884s-.081,2.658,1.852,2.658a2.058,2.058,0,0,0,2.023-2.022l-.121-7.52Z" fill="#fc3d3d"/>
      <path id="Path_43" data-name="Path 43" d="M191.848,193.869l.331,16.157s-.1,3.117,2.173,3.117a2.414,2.414,0,0,0,2.371-2.371v-16.9Z" fill="#dcf8ff"/>
      <path id="Path_44" data-name="Path 44" d="M192.634,200.671l-.12,8.4s-.081,2.658,1.852,2.658a2.058,2.058,0,0,0,2.023-2.022l-.121-9.032Z" fill="#fc3d3d"/>
      <path id="Path_45" data-name="Path 45" d="M199.667,193.869,200,210.026s-.1,3.117,2.172,3.117a2.413,2.413,0,0,0,2.372-2.371v-16.9Z" fill="#dcf8ff"/>
      <path id="Path_46" data-name="Path 46" d="M200.453,198.64l-.121,10.427s-.081,2.658,1.854,2.658a2.059,2.059,0,0,0,2.022-2.022l-.121-11.063Z" fill="#fc3d3d"/>
      <g id="Group_18" data-name="Group 18">
        <path id="Path_47" data-name="Path 47" d="M224.917,277.833h.008a.25.25,0,0,0,0-.5h-.077a.251.251,0,0,0,0,.5c2.369.019,4.885.529,7.251.753,3.19.3,6.434.178,9.637.222.37.006.353-.526,0-.562-2.833-.3-5.666-.043-8.5-.183-2.79-.138-5.6-.754-8.384-.732a.251.251,0,0,0,0,.5h.077a.25.25,0,0,0,0-.5h-.008a.25.25,0,0,0,0,.5Z"/>
      </g>
    </g>
    <g id="Group_28" data-name="Group 28">
      <path id="Path_48" data-name="Path 48" d="M497.6,357.136c2.167.814,4.038,1.681,4.3,2.331.643,1.635-4.158,3.5-11.632,1.724s-8.684-3.45-8.684-3.45-.122-.453-.328-1.232C486.906,359.159,494.843,361.186,497.6,357.136Z"/>
      <path id="Path_49" data-name="Path 49" d="M489.393,333.855c-.031-1.187-.1-2.345-.184-3.463-1.915,1.392-3.808,2.815-5.644,4.323s-4.015,3.461-6.379,5.232c1.285,5.921,3.282,13.609,4.06,16.562,5.66,2.65,13.6,4.677,16.349.627-3.32-1.246-7.337-2.364-7.337-2.364S489.634,343.125,489.393,333.855Z" fill="#fcceb6"/>
      <path id="Path_50" data-name="Path 50" d="M523.887,353.762s-4.6-29.585-5.8-35.308a44.878,44.878,0,0,1-.763-6.041c-4.638,1.5-9.275,2.767-13.916,3.958a8.629,8.629,0,0,0,.813,1.439,74.2,74.2,0,0,0,4.674,20.937c2.976,7.426,5.359,14.5,6.45,17.843,5.73,1.933,11.356,4.1,16.283-.007a2.4,2.4,0,0,0,.157-.409A71.691,71.691,0,0,0,523.887,353.762Z" fill="#fcceb6"/>
      <path id="Path_51" data-name="Path 51" d="M531.783,356.174a2.4,2.4,0,0,1-.157.409c-4.927,4.108-10.553,1.94-16.283.007.416,1.276.644,2.009.644,2.009s12.981,5.32,19.268,2.338C538.44,359.426,535.479,357.606,531.783,356.174Z"/>
      <path id="Path_52" data-name="Path 52" d="M514.036,266.68l-37.456,1.757-.3,11.307c13.2-.754,26.51-.925,39.122-3.291Z" fill="#559984"/>
      <path id="Path_53" data-name="Path 53" d="M495.222,284.951l.328,1.592.1-2.846Z" fill="#db4d28"/>
      <path id="Path_54" data-name="Path 54" d="M476.281,279.744,474.3,354.453s12.269,3.634,18.789,1.721l2.459-69.631-.328-1.592.427-1.254-.1,2.846,14.361,69.631s13.134-.425,16.076-4.007L515.4,276.453C502.791,278.819,489.478,278.99,476.281,279.744Z" fill="#64ad99"/>
      <path id="Path_55" data-name="Path 55" d="M512.155,242.234s7.032,17.008,14.123,14.968,11.685-9.782,14.773-19.417,4.012-13.29,4.012-13.29,6.715-8.328,6.636-10.064-4.418,2.842-4.418,2.842,2.549-6.481,1.63-7.065-3.159,4.4-3.159,4.4,1.878-6.243.831-6.738-2.834,5.587-2.834,5.587.384-5.623-.526-6.211-2.34,7.067-2.34,7.067-1.36-5.535-2.447-5.5-1.583,7.557-1.013,11.918-10.137,20.717-10.137,20.717c-1.953-.25-3.228-9.281-3.228-9.281C518.876,232.279,512.155,242.234,512.155,242.234Z" fill="#fcceb6"/>
      <path id="Path_56" data-name="Path 56" d="M521.377,171.524a16.944,16.944,0,0,0-.652-3.114,9.784,9.784,0,0,0-.882-1.92c-10.746.05-21.443-2.238-29.6-9.547a33.969,33.969,0,0,0-4.322,1.735C494.326,168.2,507.985,171.8,521.377,171.524Z" fill="#2d2d2d"/>
      <path id="Path_57" data-name="Path 57" d="M485.923,158.678c-.784.375-1.571.775-2.37,1.231,0,0-15.084-.667-16.5,15.751a213.763,213.763,0,0,1-5.75,32.5s25,6.335,36.672,7,17.248-2.666,17.248-2.666-2.165-11.17,1.5-19.921c3.13-7.468,5.4-14.812,4.653-21.053C507.985,171.8,494.326,168.2,485.923,158.678Z"/>
      <path id="Path_58" data-name="Path 58" d="M490.245,156.943c8.155,7.309,18.852,9.6,29.6,9.547C516.309,160.42,504.844,152.275,490.245,156.943Z"/>
      <path id="Path_59" data-name="Path 59" d="M485.8,211.163s-8.35.25-11.842,2.168-8.327,5-10.077,14.917-2.583,11.085-2.583,11.085l12.918,7.916a54.875,54.875,0,0,1-.667,11.419c-1,4.834-1.917,11.124,0,11.98s33.7,1.145,37.978,0,5.276-4.9,4.443-12.4a135.689,135.689,0,0,0-2.668-15s9.919-10.168,10.752-11.084-3.667-14.084-7.085-17.585-12.334-4.084-12.334-4.084Z" fill="#64ad99"/>
      <path id="Path_60" data-name="Path 60" d="M502.412,208.386a6.879,6.879,0,0,1-1.439-5.224l-11.751-1.5a30.891,30.891,0,0,1-1,5.257A24.68,24.68,0,0,0,502.412,208.386Z" fill="#f9b28f"/>
      <path id="Path_61" data-name="Path 61" d="M502.412,208.386a24.68,24.68,0,0,1-14.189-1.466c-.526,1.771-1.3,3.491-2.419,4.243l9.791,15.5,9.044-16.169A9.267,9.267,0,0,1,502.412,208.386Z" fill="#fcceb6"/>
      <path id="Path_62" data-name="Path 62" d="M480.72,180.326s-5.939-2.687-6.688,3.251a5.159,5.159,0,0,0,4.813,6.25,19.315,19.315,0,0,0,15.5,13.938c12.878,2.251,19.252-5.813,20.252-11.751s.5-16.376.5-16.376-14.694-2.5-19.5-7.751C495.6,167.887,487.783,178.264,480.72,180.326Z" fill="#fcceb6"/>
      <rect id="Rectangle_3" data-name="Rectangle 3" width="37.605" height="4.726" transform="translate(489.279 233.268)" fill="#2c2945"/>
      <path id="Path_63" data-name="Path 63" d="M500.247,213.993l.329,16.158s-.094,3.117,2.175,3.117a2.412,2.412,0,0,0,2.37-2.37v-16.9Z" fill="#dcf8ff"/>
      <path id="Path_64" data-name="Path 64" d="M501.033,220.8l-.122,8.395s-.08,2.66,1.855,2.66a2.057,2.057,0,0,0,2.02-2.022l-.119-9.033Z" fill="#fc3d3d"/>
      <path id="Path_65" data-name="Path 65" d="M507.4,213.993l.331,16.158s-.093,3.117,2.174,3.117a2.411,2.411,0,0,0,2.369-2.37v-16.9Z" fill="#dcf8ff"/>
      <path id="Path_66" data-name="Path 66" d="M508.189,222.308l-.121,6.883s-.079,2.66,1.854,2.66a2.057,2.057,0,0,0,2.021-2.022l-.118-7.521Z" fill="#fc3d3d"/>
      <path id="Path_67" data-name="Path 67" d="M515.222,213.993l.332,16.158s-.1,3.117,2.172,3.117a2.416,2.416,0,0,0,2.373-2.37v-16.9Z" fill="#dcf8ff"/>
      <path id="Path_68" data-name="Path 68" d="M516.009,220.8l-.121,8.395s-.08,2.66,1.853,2.66a2.06,2.06,0,0,0,2.023-2.022l-.12-9.033Z" fill="#fc3d3d"/>
      <path id="Path_69" data-name="Path 69" d="M461.3,239.333s-3.835,18,3.165,20.334,15.17-1.445,23.17-7.641,10.835-8.682,10.835-8.682,10.25-3.062,11.166-4.538-5.249-.16-5.249-.16,5.768-3.9,5.342-4.9-5.092,1.834-5.092,1.834,5.084-4.082,4.5-5.083-5.5,3-5.5,3,3.5-4.418,3.084-5.418-5.932,4.5-5.932,4.5,2.014-5.333,1.1-5.917-5.583,5.332-7.582,9.249-20.086,11.335-20.086,11.335A49.9,49.9,0,0,0,461.3,239.333Z" fill="#fcceb6"/>
      <g id="Group_20" data-name="Group 20">
        <path id="Path_70" data-name="Path 70" d="M476.32,183.084a4.252,4.252,0,0,1,2.22-.433c.846.145,1.415,1.119,1.615,1.862a4.346,4.346,0,0,1-.478,3.189.415.415,0,0,0,.586.587c1.078-.871,1.077-3.6.475-4.7-.916-1.69-3.254-2.514-4.662-.817a.2.2,0,0,0,.244.316Z" fill="#231f20"/>
      </g>
      <g id="Group_21" data-name="Group 21">
        <path id="Path_71" data-name="Path 71" d="M478.693,185.452a1.554,1.554,0,0,1,.935.051c.284.128.385.446.635.617a.244.244,0,0,0,.363-.209,1.073,1.073,0,0,0-.7-.92,1.621,1.621,0,0,0-1.35.045.216.216,0,0,0,.115.416Z" fill="#231f20"/>
      </g>
      <g id="Group_22" data-name="Group 22">
        <path id="Path_72" data-name="Path 72" d="M491.054,180.008l.069.09a.288.288,0,0,0,.439.057c.823-.654,1.725-1.167,2.6-1.738a4.221,4.221,0,0,1,1.861-.738,2.946,2.946,0,0,0,1.382-.283.373.373,0,0,0-.186-.69,5.294,5.294,0,0,0-3.181.743,15.468,15.468,0,0,0-1.637,1.126c-.329.253-.857,1.03-1.234,1.15a.194.194,0,0,0-.115.283Z" fill="#231f20"/>
      </g>
      <g id="Group_23" data-name="Group 23">
        <path id="Path_73" data-name="Path 73" d="M510.826,178.743a5.8,5.8,0,0,1,1.776,1.9,13.162,13.162,0,0,1,.82,2.268.313.313,0,0,0,.612-.083c.209-1.78-1.446-3.8-2.917-4.582a.289.289,0,0,0-.291.5Z" fill="#231f20"/>
      </g>
      <g id="Group_24" data-name="Group 24">
        <path id="Path_74" data-name="Path 74" d="M500.2,192.629c.321.859,1.252,1.846,2.266,1.645a.29.29,0,0,0,.069-.527,4.889,4.889,0,0,1-1.274-.55c-.3-.245-.458-.664-.822-.807a.2.2,0,0,0-.239.239Z" fill="#231f20"/>
      </g>
      <g id="Group_25" data-name="Group 25">
        <path id="Path_75" data-name="Path 75" d="M503.138,191.129c.975-.06,4.052-2.172,2.514-3.194-.933-.62-2.7.1-2.319-1.841.471-2.438,1.321-4.728,2.019-7.1.116-.4-.448-.52-.6-.164-1.133,2.7-2.35,5.886-2.349,8.854,0,.192.17.787.464.839a2.547,2.547,0,0,0,.823.112c1.46-.47,2.031,1.579-.614,2.068a.219.219,0,0,0,.058.428Z" fill="#231f20"/>
      </g>
      <g id="Group_26" data-name="Group 26">
        <path id="Path_76" data-name="Path 76" d="M474.34,247.888c.628-.163.6-1.794.709-2.3.586-2.663-.107-6.277-.612-8.925-.068-.36-.618-.265-.621.083-.026,3.562,1.258,7.418.348,10.963a.144.144,0,0,0,.176.176Z" fill="#231f20"/>
      </g>
      <g id="Group_27" data-name="Group 27">
        <path id="Path_77" data-name="Path 77" d="M474.415,247.778c.592-.32.742-1.362.956-1.939.665-1.786,1.491-3.583,1.977-5.425.087-.329-.4-.555-.561-.236a35.664,35.664,0,0,0-1.547,4,14.187,14.187,0,0,1-1.133,3.292c-.136.195.123.408.308.308Z" fill="#231f20"/>
      </g>
      <path id="Path_78" data-name="Path 78" d="M496.612,186.3c0,.769-.452,1.391-1.01,1.391s-1.01-.622-1.01-1.391.454-1.391,1.01-1.391S496.612,185.537,496.612,186.3Z" fill="#231f20"/>
      <path id="Path_79" data-name="Path 79" d="M510.683,187.7c0,.767-.454,1.391-1.011,1.391s-1.01-.624-1.01-1.391.451-1.392,1.01-1.392S510.683,186.928,510.683,187.7Z" fill="#231f20"/>
      <path id="Path_80" data-name="Path 80" d="M496.994,193.366c-.47,1.471-2.688,2.076-4.959,1.352s-3.725-2.5-3.256-3.974,2.689-2.076,4.957-1.35S497.463,191.9,496.994,193.366Z" fill="#f9b28f"/>
      <path id="Path_81" data-name="Path 81" d="M513.721,192.507c.532,1.449-.85,3.291-3.085,4.112s-4.479.315-5.011-1.135.848-3.289,3.08-4.11S513.186,191.059,513.721,192.507Z" fill="#f9b28f"/>
    </g>
    <g id="Group_53" data-name="Group 53">
      <g id="Group_39" data-name="Group 39">
        <path id="Path_82" data-name="Path 82" d="M123.657,307.344s-.283,15.024,2.551,22.677h-22.96s2.339-16.892,1.792-27.782q-.036-.728-.091-1.413C105.04,302.239,123.657,307.344,123.657,307.344Z" fill="#6bc7dd"/>
        <g id="Group_29" data-name="Group 29">
          <path id="Path_83" data-name="Path 83" d="M100.13,165.617c4.9-1.3,17.575-2.267,24.661-2.551,3.41-.136,7.866-.141,11.575-.109,6.247,4.468,3.448,14.283,3.448,14.283L95.13,182.623C94.64,177.039,94.613,167.079,100.13,165.617Z" fill="#6bc7dd"/>
          <path id="Path_84" data-name="Path 84" d="M99.28,162.5a175.933,175.933,0,0,1,29.763-1.7,13.119,13.119,0,0,1,7.323,2.158c-3.709-.032-8.165-.027-11.575.109-7.086.284-19.759,1.253-24.661,2.551-5.517,1.462-5.49,11.422-5,17.006l-2.37.285C87.941,162.783,99.28,162.5,99.28,162.5Z" fill="#3793b5"/>
        </g>
        <path id="Path_85" data-name="Path 85" d="M149.38,240.454h8.9l48.376,25.021v4.535l-5.008,5.578-51.639-30Z" fill="#2486a0"/>
        <path id="Path_86" data-name="Path 86" d="M149.38,235.914h8.9l47.9,29.466-4.535,5.67-51.639-30.006Z" fill="#3793b5"/>
        <g id="Group_30" data-name="Group 30">
          <path id="Path_87" data-name="Path 87" d="M92.76,189.145c8.265-3.236,16.724-4.253,34.015-6.522a116.7,116.7,0,0,1,25.365-.574c3.3,3.484,5.991,9.429,6.1,19.567.283,26.645,2.551,63.211,2.551,63.211l-68.728,18.14c-2.576-19.767-8.219-63.986-8.656-75.114C82.84,193.4,87.583,191.171,92.76,189.145Z" fill="#6bc7dd"/>
          <path id="Path_88" data-name="Path 88" d="M92.76,182.908l47.054-5.668a15.547,15.547,0,0,1,12.326,4.809,116.7,116.7,0,0,0-25.365.574c-17.291,2.269-25.75,3.286-34.015,6.522-5.177,2.026-9.92,4.25-9.354,18.708.437,11.128,6.08,55.347,8.656,75.114l-7.521,1.984s-7.087-56.123-7.938-70.579S78.69,184.6,92.76,182.908Z" fill="#3793b5"/>
        </g>
        <g id="Group_31" data-name="Group 31">
          <path id="Path_89" data-name="Path 89" d="M193.1,332.005c-25.512.567-32.314-13.322-43.369-20.124-10.477-6.448-47.99-7.32-56.956-29.1l68.011-17.951s34.3,16.441,42.235,23.244c7.234,6.2,20.353,17.819,22.831,26.911C220.387,321.817,209.68,331.636,193.1,332.005Z" fill="#6bc7dd"/>
          <path id="Path_90" data-name="Path 90" d="M92.779,282.778c8.966,21.783,46.479,22.655,56.956,29.1,11.055,6.8,17.857,20.691,43.369,20.124,16.576-.369,27.283-10.188,32.752-17.023a11.091,11.091,0,0,1,.412,2.567c.283,9.354-26.078,22.109-41.952,22.393s-28.7-14.341-37.858-19.841c-10.8-6.486-34.422-12.187-47.178-17.715a25.032,25.032,0,0,1-14.739-17.435Z" fill="#3793b5"/>
        </g>
        <g id="Group_38" data-name="Group 38">
          <g id="Group_32" data-name="Group 32">
            <path id="Path_91" data-name="Path 91" d="M228.667,345.157s-2.1,3.753,2.35,3.319,15.253-7.075,16.659-9.883-.571-2.879-1.871-2.637S228.667,345.157,228.667,345.157Z" fill="#e95f33"/>
            <path id="Path_92" data-name="Path 92" d="M230.566,333.624l-8.213,4.9a34.155,34.155,0,0,0,2.73,4.531,35.762,35.762,0,0,0,7.426-6.511Z" fill="#f9b28f"/>
            <path id="Path_93" data-name="Path 93" d="M238.819,335.921c-5.22,2.458-5.668,1.588-5.668,1.588l-.642-.965a35.762,35.762,0,0,1-7.426,6.511c1.6,2.2,3.664,4.285,5.569,3.865,3.819-.839,14.181-6.826,16.174-9.765S244.041,333.465,238.819,335.921Z" fill="#fcceb6"/>
            <path id="Path_94" data-name="Path 94" d="M237.647,335.624s-2.984,3.328.191,8.115l2.407-1.407s-1.006-5.418.107-7.043Z" fill="#e95f33"/>
            <path id="Path_95" data-name="Path 95" d="M242.532,334.371a5.95,5.95,0,0,0,.461,6.56l1.737-1.383s-1.632-3.961-.586-5.091Z" fill="#e95f33"/>
          </g>
          <g id="Group_33" data-name="Group 33">
            <path id="Path_96" data-name="Path 96" d="M208.348,352.118s-2.754,3.3,1.7,3.7,16.3-4.139,18.2-6.64-.029-2.934-1.352-2.936S208.348,352.118,208.348,352.118Z" fill="#e95f33"/>
            <path id="Path_97" data-name="Path 97" d="M212.342,341.134l-8.976,3.3a34.044,34.044,0,0,0,1.847,4.956,35.756,35.756,0,0,0,8.5-5.028Z" fill="#f9b28f"/>
            <path id="Path_98" data-name="Path 98" d="M220.029,344.916c-5.585,1.451-5.863.512-5.863.512l-.454-1.066a35.756,35.756,0,0,1-8.5,5.028c1.162,2.456,2.81,4.89,4.76,4.829,3.908-.12,15.2-4.093,17.7-6.613S225.614,343.465,220.029,344.916Z" fill="#fcceb6"/>
            <path id="Path_99" data-name="Path 99" d="M218.933,344.408s-3.548,2.719-1.309,8.009l2.623-.939s.011-5.512,1.406-6.9Z" fill="#e95f33"/>
            <path id="Path_100" data-name="Path 100" d="M223.965,344.075a5.955,5.955,0,0,0-.758,6.534l1.962-1.038s-.873-4.2.364-5.112Z" fill="#e95f33"/>
          </g>
          <path id="Path_101" data-name="Path 101" d="M156.617,267.377s18,11.906,28.628,17.574,18.142,11.339,28.2,23.1,18.85,27.212,18.85,27.212l-9.921,4.681s-17.432-18.286-20.834-20.838-8.079-5.526-8.079-5.526,17.433,20.549,21.26,28.629l-11.9,3.966a265.706,265.706,0,0,0-21.543-22.534c-11.48-10.487-21.259-18-24.66-19.275s-29.542-8.125-34.542-17.314-3.158-11.466-3.158-11.466S148.68,266.386,156.617,267.377Z" fill="#2c2945"/>
          <g id="Group_34" data-name="Group 34">
            <path id="Path_102" data-name="Path 102" d="M148.869,283.151c2.132-.2,4.223-1.581,6.069-2.568,2.791-1.491,5.881-2.963,8.111-5.26a.28.28,0,0,0-.338-.439c-2.194,1.284-4.227,2.814-6.447,4.061-2.2,1.235-4.957,3.264-7.468,3.663-.307.049-.236.572.073.543Z"/>
          </g>
          <g id="Group_35" data-name="Group 35">
            <path id="Path_103" data-name="Path 103" d="M142.208,270.448a33.536,33.536,0,0,0,5.035,4.353c1.743,1.407,3.112,3.133,5.038,4.315a.355.355,0,0,0,.428-.556c-2.992-3.217-6.872-5.575-10.219-8.393a.2.2,0,0,0-.282.281Z"/>
          </g>
          <g id="Group_36" data-name="Group 36">
            <path id="Path_104" data-name="Path 104" d="M150.759,277.687c1.007.016.674-1.877.4-2.418a9.026,9.026,0,0,0-2.517-2.746c-.543-.469-1.107-.914-1.652-1.381a10.407,10.407,0,0,1-1.628-1.337c-.323-.443-1.071-.014-.743.436a17.832,17.832,0,0,0,3.467,2.838,18.715,18.715,0,0,1,1.779,1.471c.2.2,1.646,2.344.79,2.766a.2.2,0,0,0,.1.371Z"/>
          </g>
          <g id="Group_37" data-name="Group 37">
            <path id="Path_105" data-name="Path 105" d="M156.013,281.884c5.463,5.375,12.344,9.443,18.239,14.354,3.449,2.873,6.839,5.816,10.206,8.785,2.827,2.491,5.167,5.495,8.178,7.769.162.123.348-.138.212-.276-5.843-5.892-11.674-11.492-18.068-16.8-5.971-4.963-12.573-9.124-18.533-14.059-.162-.134-.388.081-.234.232Z"/>
          </g>
        </g>
        <path id="Path_106" data-name="Path 106" d="M129.043,330.021h-29.2S99.034,354.4,92.779,364.6h47.885S130.989,347.99,129.043,330.021Z" fill="#3793b5"/>
        <path id="Path_107" data-name="Path 107" d="M89.719,364.6h69.163v5.953H74.562V364.6Z" fill="#2486a0"/>
        <path id="Path_108" data-name="Path 108" d="M84.541,284.951,81.311,258.6h7.637l3.09,24.174Z" fill="#2486a0"/>
        <path id="Path_109" data-name="Path 109" d="M81.311,263.144h8.9l48.378,25.022V292.7l-5.009,5.578-51.638-30Z" fill="#2486a0"/>
        <path id="Path_110" data-name="Path 110" d="M81.311,258.6h8.9l47.9,29.467-4.536,5.668L81.939,263.733Z" fill="#3793b5"/>
      </g>
      <g id="Group_41" data-name="Group 41">
        <rect id="Rectangle_4" data-name="Rectangle 4" width="62.36" height="8.693" transform="translate(21 110.344)" fill="#3793b5"/>
        <rect id="Rectangle_5" data-name="Rectangle 5" width="4.914" height="251.519" transform="translate(51.943 119.037)" fill="#2486a0"/>
        <g id="Group_40" data-name="Group 40">
          <path id="Path_111" data-name="Path 111" d="M70.006,122.533s12.047-1.022,13.89,1.558c2.126,2.977,3.827,28.629-5.244,30.614s-17.433,1.984-18.708-11.2,0-17.432,0-17.432S61.033,122.572,70.006,122.533Z" fill="#dcf8ff"/>
          <path id="Path_112" data-name="Path 112" d="M83.046,133.871c0,.425,2.125,15.023-3.969,17.715s-16.015,3.59-16.3-12.59v-5.125Z" fill="#fc3d3d"/>
          <rect id="Rectangle_6" data-name="Rectangle 6" width="14.457" height="2.977" transform="translate(66.18 138.264)" fill="#fff"/>
          <path id="Path_113" data-name="Path 113" d="M74.4,119.037v3.3l-3.273.117v-3.419Z" fill="#3793b5"/>
        </g>
      </g>
      <g id="Group_52" data-name="Group 52">
        <g id="Group_47" data-name="Group 47">
          <path id="Path_114" data-name="Path 114" d="M101.879,229.617c-4.695-7.024.65-13.851,5.169-19.91,1.65-1.536-.8-4.495-1.85-6.285a17.168,17.168,0,0,1-2.848-9.67c.4-2.218,1.136-5.062,3.268-6.741,5.033-2.533,9.5,1.93,13.311,2.384,5.064,1.136,10.637-3.132,14.617-7.457a5.922,5.922,0,0,1,9.358,1.448c2.534,5.033-2.129,10.609,2.337,15.072,2.3,2.474,6.344,5.487,5.122,8.475-4.775,8.76-.476,18,6.493,23.83a6.429,6.429,0,0,1,2.085,3.3,33.086,33.086,0,0,1-8.445,4.09c-12.67,4.255-31.561,8.531-37.413,7.746-2.529-.336-4.477-.576-4.477-.576l-1.645-6.926-.289,7.5s-.623.1-1.6.242c.591-2.93,1.378-5.84,1.783-8.528C107.455,234.279,103.7,232.233,101.879,229.617Z" fill="#db4d28"/>
          <path id="Path_115" data-name="Path 115" d="M105.9,170.116a37.686,37.686,0,0,0-11.562-.49c2.326-.917,4.916-.877,6.249-3.723,1.854-3.962,4.906-9.325,12.967-9.993a33.16,33.16,0,0,1,6.966.263c-3.014,2.8-5.454,6.806-7.311,10.216C111.841,168.892,108.741,170.855,105.9,170.116Z" fill="#e95f33"/>
          <path id="Path_116" data-name="Path 116" d="M116.99,172.1c-4.984,11.809-16.916,7.159-27.075,4.177a6.763,6.763,0,0,1,1.9-4.908,6.014,6.014,0,0,1,2.515-1.747,37.686,37.686,0,0,1,11.562.49c2.844.739,5.944-1.224,7.309-3.727,1.857-3.41,4.3-7.42,7.311-10.216,1.189.158,2.342.361,3.432.582C120.209,160.317,119.223,167.5,116.99,172.1Z" fill="#ef6843"/>
          <path id="Path_117" data-name="Path 117" d="M93.414,209.344c-3.033-4.055-4.356-7.211-2.873-14.215s.261-6.251-.19-12.685c-.2-2.815-.442-4.685-.436-6.163,10.159,2.982,22.091,7.632,27.075-4.177,2.233-4.606,3.219-11.787,6.959-15.349a59.886,59.886,0,0,1,7.5,2.027s10.438-2.024,13.719,5.547,1.622,12.2,3.331,16,6.151,5.948,7.274,10.652-3.85,8.334-2.325,11.728,5.515,6.683,5.928,10.766,1.981,11.632,5.253,13.82c0,0-.744,3.324-5.693,6.773a6.429,6.429,0,0,0-2.085-3.3c-6.969-5.828-11.268-15.07-6.493-23.83,1.222-2.988-2.818-6-5.122-8.475-4.466-4.463.2-10.039-2.337-15.072a5.922,5.922,0,0,0-9.358-1.448c-3.98,4.325-9.553,8.593-14.617,7.457-3.811-.454-8.278-4.917-13.311-2.384-2.132,1.679-2.871,4.523-3.268,6.741a17.168,17.168,0,0,0,2.848,9.67c1.052,1.79,3.5,4.749,1.85,6.285-4.519,6.059-9.864,12.886-5.169,19.91,1.822,2.616,5.576,4.662,4.98,7.99-.4,2.688-1.192,5.6-1.783,8.528A82.021,82.021,0,0,1,96.36,247s-.157-4.552-1.992-6.768-2.306-5.83-1.448-12.053S96.446,213.4,93.414,209.344Z" fill="#e95f33"/>
          <path id="Path_118" data-name="Path 118" d="M131.754,203.534a6.269,6.269,0,0,0,4.993,6.018c-5.914,2.378-11.684,1.447-17.082-1.2a19.208,19.208,0,0,0,.261-4.436Z" fill="#f2a381"/>
          <path id="Path_119" data-name="Path 119" d="M136.747,209.552a12.487,12.487,0,0,0,3.1.415,9.614,9.614,0,0,1-1.045,1.142c-6.632,3.653-15.806,5.262-21.888,1.688,0,0,2.088-1,2.754-4.443C125.063,211,130.833,211.93,136.747,209.552Z" fill="#f9b28f"/>
          <path id="Path_120" data-name="Path 120" d="M143.7,181.05a85.893,85.893,0,0,0,.207,9.92c.434,5.038-5.9,12.887-16.636,13.568-14.715.931-17.1-5.034-19.575-11.353,0,0-7.117,1.7-7.377-6.016s7.186-3.254,7.186-3.254,7.424-.96,9.583-6.412-1.2-7.352,4.907-9.5,8.423.059,8.423.059,1.931,4.771,6.066,6.619S143.116,178.16,143.7,181.05Z" fill="#f9b28f"/>
          <g id="Group_42" data-name="Group 42">
            <path id="Path_121" data-name="Path 121" d="M141.039,181.76c-.911-1.352-2.631-2.261-3.968-3.125A46.1,46.1,0,0,0,133,176.429c-.379-.194-.068-.734.311-.571a26.035,26.035,0,0,1,4.546,2.566,12.23,12.23,0,0,1,3.53,3.12.2.2,0,0,1-.346.216Z"/>
          </g>
          <g id="Group_43" data-name="Group 43">
            <path id="Path_122" data-name="Path 122" d="M121.374,177.177c-3.3,1.205-6.024,4.2-8.57,6.526a.282.282,0,0,1-.41-.386,24.924,24.924,0,0,1,4.159-3.766c1.435-1.06,2.94-2.342,4.718-2.726a.184.184,0,0,1,.1.352Z"/>
          </g>
          <g id="Group_44" data-name="Group 44">
            <path id="Path_123" data-name="Path 123" d="M106.226,190.6a7.312,7.312,0,0,0-.07-3.287c-.413-1.721-2.251-3.048-3.805-1.732-.273.234-.727-.034-.534-.387.929-1.689,2.965-1,4.146.027,1.45,1.262,1.437,3.957.647,5.528a.209.209,0,0,1-.384-.149Z"/>
          </g>
          <g id="Group_45" data-name="Group 45">
            <path id="Path_124" data-name="Path 124" d="M106.814,188.616l-.021.008a.137.137,0,0,1-.159-.06,1.96,1.96,0,0,1-.141-.352,1.237,1.237,0,0,0-.648-.593,2.213,2.213,0,0,0-.86-.226c-.324-.029-.619.141-.942.123a.3.3,0,0,1-.09-.592,2.4,2.4,0,0,1,2.172.182,1.672,1.672,0,0,1,.77,1.4.115.115,0,0,1-.081.111Z"/>
          </g>
          <g id="Group_46" data-name="Group 46">
            <path id="Path_125" data-name="Path 125" d="M128.633,190.9c.127-.678,1.654-1.588.385-2.034a4.076,4.076,0,0,1-.752.18,2.656,2.656,0,0,1-.838-.068,2.361,2.361,0,0,1-1.022-1.81c-.379-3.1.532-6.42,1.628-9.3.154-.4.809-.254.661.163a37.167,37.167,0,0,0-1.421,5.29c-.158.8-1.084,5.555,1.56,4.921a2.753,2.753,0,0,1,1.449-.11c2.027.5-.8,2.893-1.559,3.082a.163.163,0,0,1-.091-.313Z"/>
          </g>
          <path id="Path_126" data-name="Path 126" d="M118.642,186.8c0,.742.376,1.346.845,1.348s.853-.6.857-1.341-.376-1.346-.845-1.347S118.646,186.054,118.642,186.8Z"/>
          <path id="Path_127" data-name="Path 127" d="M135.041,185.469c.026.742.425,1.33.9,1.314s.829-.63.8-1.372-.426-1.329-.9-1.313S135.016,184.727,135.041,185.469Z"/>
          <path id="Path_128" data-name="Path 128" d="M112.754,193.815c-.053,1.8,1.765,3.312,4.06,3.38s4.2-1.335,4.253-3.133-1.765-3.313-4.059-3.381S112.808,192.016,112.754,193.815Z" fill="#f2a381"/>
          <path id="Path_129" data-name="Path 129" d="M133.129,193.81c.5,1.728,2.7,2.609,4.9,1.969s3.586-2.561,3.083-4.289-2.695-2.611-4.9-1.97S132.627,192.081,133.129,193.81Z" fill="#f2a381"/>
        </g>
        <path id="Path_130" data-name="Path 130" d="M158.149,232.29l-3.942,3.766.4,10.458a33.929,33.929,0,0,0,4.543-3.445C158.563,237.191,158.149,232.29,158.149,232.29Z" fill="#f2a381"/>
        <path id="Path_131" data-name="Path 131" d="M182.95,283.7c-3.287-4.516-19.642-17.651-21.09-21.138-.828-2-1.923-11.621-2.709-19.49a33.929,33.929,0,0,1-4.543,3.445l.8,20.788Z" fill="#f9b28f"/>
        <path id="Path_132" data-name="Path 132" d="M147.7,211.315a8.025,8.025,0,0,0-7.824-1.146,24.749,24.749,0,0,1-22.435,2.564,19.246,19.246,0,0,0-10.508,4.7C121.054,221.807,135.636,218.692,147.7,211.315Z" fill="#64ad99"/>
        <path id="Path_133" data-name="Path 133" d="M149.227,212.7a12.176,12.176,0,0,0-1.525-1.382c-12.066,7.377-26.648,10.492-40.767,6.115a15.023,15.023,0,0,0-3.639,5.234A70.05,70.05,0,0,0,149.227,212.7Z" fill="#fad8b4"/>
        <path id="Path_134" data-name="Path 134" d="M117.115,250.775c13.094-.924,26.012-5.848,37.225-12.982l-.133-1.737a16.516,16.516,0,0,0,4.734-4.984s-.169-.432-.446-1.127a86.907,86.907,0,0,1-42.095,17.9c.172.037.338.077.511.113Z" fill="#fad8b4"/>
        <path id="Path_135" data-name="Path 135" d="M155.558,253.608,155,246.37c-10.986,7.425-24.175,11.342-37.314,12.265l.272,3.748C131.168,262.206,144.155,259.473,155.558,253.608Z" fill="#fad8b4"/>
        <path id="Path_136" data-name="Path 136" d="M155.558,253.608c-11.4,5.865-24.39,8.6-37.6,8.775l.477,6.563a88.744,88.744,0,0,0,37.494-10.506Z" fill="#64ad99"/>
        <path id="Path_137" data-name="Path 137" d="M118.435,268.946l.482,6.642s32.739-8.353,37.7-8.211l-.688-8.937A88.744,88.744,0,0,1,118.435,268.946Z" fill="#fad8b4"/>
        <path id="Path_138" data-name="Path 138" d="M155,246.37l-.66-8.577c-11.213,7.134-24.131,12.058-37.225,12.982l.571,7.86C130.825,257.712,144.014,253.795,155,246.37Z" fill="#64ad99"/>
        <path id="Path_139" data-name="Path 139" d="M158.495,229.945c-.718-1.8-2.185-5.405-3.52-8.3-16.2,11.207-35.046,18.149-54.627,14.73a30.235,30.235,0,0,0-.29,5.212,56.314,56.314,0,0,0,16.342,6.265A86.907,86.907,0,0,0,158.495,229.945Z" fill="#64ad99"/>
        <path id="Path_140" data-name="Path 140" d="M153.545,218.756c-15.191,10.368-34.075,14.373-52.455,12.77-.351,1.9-.585,3.5-.742,4.845,19.581,3.419,38.423-3.523,54.627-14.73C154.461,220.525,153.967,219.511,153.545,218.756Z" fill="#fad8b4"/>
        <path id="Path_141" data-name="Path 141" d="M152.932,217.774a40.963,40.963,0,0,0-3.705-5.077,70.05,70.05,0,0,1-45.931,9.967,16.637,16.637,0,0,0-.819,2.479c-.6,2.418-1.043,4.529-1.387,6.383,18.38,1.6,37.264-2.4,52.455-12.77A9.118,9.118,0,0,0,152.932,217.774Z" fill="#64ad99"/>
        <path id="Path_142" data-name="Path 142" d="M116.911,247.961,103.248,243.3a63.33,63.33,0,0,0-.312,7.609c4.793,1.519,9.626,3.295,14.558,4.385Z" fill="#f2a381"/>
        <path id="Path_143" data-name="Path 143" d="M141.593,281.55c-3.48-3.4-23.385-17.29-23.385-17.29l-.714-8.969c-4.932-1.09-9.765-2.866-14.558-4.385.127,8.74,1.972,22.451,11.793,26.96,14.817,6.8,18.29,7.794,18.715,8.362s2.267,9.354,4.252,9.779-.425-8.788-.425-8.788,2.763,8.462,3.543,8.8-.78-8.943-.78-8.943,2.463,8.016,3.464,7.8-1.267-9.146-1.267-9.146,2.339,6.946,3.686,6.8-1.135-6.733-1.135-6.733,2.835,1.559,3.472.142S143.91,283.815,141.593,281.55Z" fill="#f9b28f"/>
        <path id="Path_144" data-name="Path 144" d="M114.305,268.551s-4.593,7.62-17.308,7.037c-11.142-.508-18.519-20.115-21.354-56.964s-1.446-59.9-2.235-66.329" fill="none" stroke="#fc3d3d" stroke-miterlimit="10" stroke-width="1.134"/>
        <path id="Path_145" data-name="Path 145" d="M113.248,271.05s4.926-2.914,6.514-3.748l-2.319-1.248-6.085,3.609Z" fill="#fefefe"/>
        <g id="Group_48" data-name="Group 48">
          <path id="Path_146" data-name="Path 146" d="M125.31,192.9a4.74,4.74,0,0,0,3.273,2.343c.255.036.48-.337.194-.462a10.329,10.329,0,0,1-1.856-.894c-.467-.325-.875-1.1-1.446-1.2a.148.148,0,0,0-.165.215Z"/>
        </g>
        <g id="Group_49" data-name="Group 49">
          <path id="Path_147" data-name="Path 147" d="M116.878,248.047c.413-.435-.215-2.275-.262-2.637-.239-1.876-.671-3.736-.947-5.608-.05-.341-.634-.261-.6.081a35.929,35.929,0,0,0,.689,3.959c.156.733.334,1.46.478,2.2a6.762,6.762,0,0,1,.434,1.923c-.013.109.141.158.209.086Z"/>
        </g>
        <g id="Group_50" data-name="Group 50">
          <path id="Path_148" data-name="Path 148" d="M117.225,248.183c.254-.974.346-1.975.567-2.955.276-1.234.622-2.445.815-3.7a.34.34,0,0,0-.656-.181,35.185,35.185,0,0,0-1.321,6.752c-.039.345.51.4.6.08Z"/>
        </g>
        <g id="Group_51" data-name="Group 51">
          <path id="Path_149" data-name="Path 149" d="M151.79,229.537v.052c0,.311.5.395.554.076l.01-.053-.518.068a28.979,28.979,0,0,1,2.048,5.331.335.335,0,0,0,.645-.178,22.212,22.212,0,0,0-2.2-5.439c-.115-.192-.48-.187-.518.067l.144-.137a.219.219,0,0,0-.162.213Z"/>
        </g>
      </g>
    </g>
    <g id="Group_81" data-name="Group 81">
      <g id="Group_64" data-name="Group 64">
        <path id="Path_150" data-name="Path 150" d="M626.343,307.344s.284,15.024-2.551,22.677h22.959s-2.337-16.892-1.791-27.782q.037-.728.091-1.413C644.96,302.239,626.343,307.344,626.343,307.344Z" fill="#6bc7dd"/>
        <g id="Group_54" data-name="Group 54">
          <path id="Path_151" data-name="Path 151" d="M649.869,165.617c-4.9-1.3-17.573-2.267-24.659-2.551-3.409-.136-7.866-.141-11.576-.109-6.247,4.468-3.448,14.283-3.448,14.283l44.684,5.383C655.361,177.039,655.389,167.079,649.869,165.617Z" fill="#6bc7dd"/>
          <path id="Path_152" data-name="Path 152" d="M650.721,162.5a175.951,175.951,0,0,0-29.764-1.7,13.122,13.122,0,0,0-7.323,2.158c3.71-.032,8.167-.027,11.576.109,7.086.284,19.76,1.253,24.659,2.551,5.52,1.462,5.492,11.422,5,17.006l2.37.285C662.059,162.783,650.721,162.5,650.721,162.5Z" fill="#3793b5"/>
        </g>
        <path id="Path_153" data-name="Path 153" d="M600.621,240.454h-8.9l-48.376,25.021v4.535l5.008,5.578,51.639-30Z" fill="#2486a0"/>
        <path id="Path_154" data-name="Path 154" d="M600.621,235.914h-8.9l-47.9,29.466,4.536,5.67,51.639-30.006Z" fill="#3793b5"/>
        <g id="Group_55" data-name="Group 55">
          <path id="Path_155" data-name="Path 155" d="M657.24,189.145c-8.265-3.236-16.724-4.253-34.015-6.522a116.7,116.7,0,0,0-25.365-.574c-3.295,3.484-5.99,9.429-6.1,19.567-.283,26.645-2.552,63.211-2.552,63.211l68.728,18.14c2.576-19.767,8.219-63.986,8.655-75.114C667.161,193.4,662.417,191.171,657.24,189.145Z" fill="#6bc7dd"/>
          <path id="Path_156" data-name="Path 156" d="M657.24,182.908l-47.054-5.668a15.548,15.548,0,0,0-12.326,4.809,116.7,116.7,0,0,1,25.365.574c17.291,2.269,25.75,3.286,34.015,6.522,5.177,2.026,9.921,4.25,9.353,18.708-.436,11.128-6.079,55.347-8.655,75.114l7.522,1.984s7.086-56.123,7.936-70.579S671.311,184.6,657.24,182.908Z" fill="#3793b5"/>
        </g>
        <g id="Group_56" data-name="Group 56">
          <path id="Path_157" data-name="Path 157" d="M556.9,332.005c25.512.567,32.314-13.322,43.369-20.124,10.477-6.448,47.991-7.32,56.957-29.1L589.21,264.827s-34.3,16.441-42.233,23.244c-7.236,6.2-20.354,17.819-22.833,26.911C529.613,321.817,540.32,331.636,556.9,332.005Z" fill="#6bc7dd"/>
          <path id="Path_158" data-name="Path 158" d="M657.222,282.778c-8.966,21.783-46.48,22.655-56.957,29.1-11.055,6.8-17.857,20.691-43.369,20.124-16.576-.369-27.283-10.188-32.752-17.023a11.145,11.145,0,0,0-.413,2.567c-.282,9.354,26.08,22.109,41.953,22.393s28.7-14.341,37.859-19.841c10.8-6.486,34.422-12.187,47.178-17.715a25.035,25.035,0,0,0,14.739-17.435Z" fill="#3793b5"/>
        </g>
        <g id="Group_63" data-name="Group 63">
          <g id="Group_57" data-name="Group 57">
            <path id="Path_159" data-name="Path 159" d="M521.334,345.157s2.1,3.753-2.351,3.319-15.252-7.075-16.659-9.883.572-2.879,1.871-2.637S521.334,345.157,521.334,345.157Z" fill="#e95f33"/>
            <path id="Path_160" data-name="Path 160" d="M519.434,333.624l8.212,4.9a33.958,33.958,0,0,1-2.729,4.531,35.809,35.809,0,0,1-7.425-6.511Z" fill="#f9b28f"/>
            <path id="Path_161" data-name="Path 161" d="M511.183,335.921c5.219,2.458,5.667,1.588,5.667,1.588l.642-.965a35.809,35.809,0,0,0,7.425,6.511c-1.595,2.2-3.662,4.285-5.568,3.865-3.82-.839-14.183-6.826-16.173-9.765S505.96,333.465,511.183,335.921Z" fill="#fcceb6"/>
            <path id="Path_162" data-name="Path 162" d="M512.354,335.624s2.983,3.328-.192,8.115l-2.4-1.407s1.006-5.418-.109-7.043Z" fill="#e95f33"/>
            <path id="Path_163" data-name="Path 163" d="M507.469,334.371a5.952,5.952,0,0,1-.461,6.56l-1.738-1.383s1.632-3.961.587-5.091Z" fill="#e95f33"/>
          </g>
          <g id="Group_58" data-name="Group 58">
            <path id="Path_164" data-name="Path 164" d="M541.653,352.118s2.754,3.3-1.7,3.7-16.3-4.139-18.2-6.64.03-2.934,1.353-2.936S541.653,352.118,541.653,352.118Z" fill="#e95f33"/>
            <path id="Path_165" data-name="Path 165" d="M537.659,341.134l8.975,3.3a34.041,34.041,0,0,1-1.847,4.956,35.794,35.794,0,0,1-8.5-5.028Z" fill="#f9b28f"/>
            <path id="Path_166" data-name="Path 166" d="M529.971,344.916c5.584,1.451,5.864.512,5.864.512l.453-1.066a35.794,35.794,0,0,0,8.5,5.028c-1.162,2.456-2.809,4.89-4.76,4.829-3.907-.12-15.2-4.093-17.7-6.613S524.386,343.465,529.971,344.916Z" fill="#fcceb6"/>
            <path id="Path_167" data-name="Path 167" d="M531.068,344.408s3.547,2.719,1.31,8.009l-2.625-.939s-.01-5.512-1.4-6.9Z" fill="#e95f33"/>
            <path id="Path_168" data-name="Path 168" d="M526.035,344.075a5.953,5.953,0,0,1,.757,6.534l-1.961-1.038s.873-4.2-.363-5.112Z" fill="#e95f33"/>
          </g>
          <path id="Path_169" data-name="Path 169" d="M593.384,267.377s-18,11.906-28.629,17.574-18.14,11.339-28.2,23.1S517.7,335.265,517.7,335.265l9.92,4.681s17.433-18.286,20.833-20.838,8.079-5.526,8.079-5.526-17.431,20.549-21.259,28.629l11.905,3.966a265.627,265.627,0,0,1,21.544-22.534c11.48-10.487,21.257-18,24.659-19.275s29.542-8.125,34.542-17.314,3.158-11.466,3.158-11.466S601.322,266.386,593.384,267.377Z" fill="#e95f33"/>
          <g id="Group_59" data-name="Group 59">
            <path id="Path_170" data-name="Path 170" d="M601.205,282.608c-2.262-.359-4.6-2.112-6.6-3.19-2.538-1.372-4.836-3.082-7.318-4.534a.281.281,0,0,0-.338.439,28.187,28.187,0,0,0,7.24,4.8c2.114,1.109,4.507,2.794,6.941,3.023.309.029.381-.494.073-.543Z"/>
          </g>
          <g id="Group_60" data-name="Group 60">
            <path id="Path_171" data-name="Path 171" d="M607.51,270.167c-3.345,2.818-7.231,5.173-10.218,8.393a.356.356,0,0,0,.429.556,34.584,34.584,0,0,0,4.542-3.9c1.831-1.611,3.959-2.879,5.528-4.77a.2.2,0,0,0-.281-.281Z"/>
          </g>
          <g id="Group_61" data-name="Group 61">
            <path id="Path_172" data-name="Path 172" d="M599.343,277.316c-.6-.294.159-1.87.293-2.115a8.031,8.031,0,0,1,2.275-2.122c1.081-.877,2.646-1.71,3.467-2.838.327-.45-.421-.879-.744-.436a8.957,8.957,0,0,1-1.253,1.026c-.525.462-1.072.9-1.61,1.346a12.218,12.218,0,0,0-2.726,2.678c-.34.525-1,2.851.2,2.832a.2.2,0,0,0,.1-.371Z"/>
          </g>
          <g id="Group_62" data-name="Group 62">
            <path id="Path_173" data-name="Path 173" d="M593.756,281.652c-5.464,4.521-11.485,8.432-17.061,12.843a219.565,219.565,0,0,0-19.543,18.021c-.136.138.05.4.213.276a75.663,75.663,0,0,0,7.006-6.672c3.577-3.5,7.546-6.666,11.378-9.882,5.882-4.936,12.772-8.975,18.239-14.354.155-.151-.072-.366-.232-.232Z"/>
          </g>
        </g>
        <path id="Path_174" data-name="Path 174" d="M620.957,330.021h29.2s.812,24.377,7.069,34.581H609.336S619.01,347.99,620.957,330.021Z" fill="#3793b5"/>
        <path id="Path_175" data-name="Path 175" d="M660.282,364.6H591.119v5.953h84.319V364.6Z" fill="#2486a0"/>
        <path id="Path_176" data-name="Path 176" d="M665.46,284.951l3.232-26.347h-7.639l-3.089,24.174Z" fill="#2486a0"/>
        <path id="Path_177" data-name="Path 177" d="M668.691,263.144h-8.9l-48.374,25.022V292.7l5.006,5.578,51.64-30Z" fill="#2486a0"/>
        <path id="Path_178" data-name="Path 178" d="M668.691,258.6h-8.9l-47.9,29.467,4.535,5.668,51.64-30.006Z" fill="#3793b5"/>
      </g>
      <g id="Group_66" data-name="Group 66">
        <rect id="Rectangle_7" data-name="Rectangle 7" width="62.359" height="8.693" transform="translate(666.641 110.344)" fill="#3793b5"/>
        <rect id="Rectangle_8" data-name="Rectangle 8" width="4.914" height="251.519" transform="translate(693.143 119.037)" fill="#2486a0"/>
        <g id="Group_65" data-name="Group 65">
          <path id="Path_179" data-name="Path 179" d="M679.994,122.533s-12.045-1.022-13.89,1.558c-2.126,2.977-3.827,28.629,5.244,30.614s17.431,1.984,18.709-11.2,0-17.432,0-17.432S688.968,122.572,679.994,122.533Z" fill="#dcf8ff"/>
          <path id="Path_180" data-name="Path 180" d="M666.954,133.871c0,.425-2.126,15.023,3.97,17.715s16.014,3.59,16.3-12.59v-5.125Z" fill="#fc3d3d"/>
          <rect id="Rectangle_9" data-name="Rectangle 9" width="14.456" height="2.977" transform="translate(669.364 138.264)" fill="#fff"/>
          <path id="Path_181" data-name="Path 181" d="M675.6,119.037v3.3l3.273.117v-3.419Z" fill="#3793b5"/>
        </g>
      </g>
      <g id="Group_80" data-name="Group 80">
        <g id="Group_79" data-name="Group 79">
          <path id="Path_182" data-name="Path 182" d="M631.257,156.183a8.814,8.814,0,0,1,4.45-.066c4.9,1.182,9.441,3.444,10.088,9.281A33.986,33.986,0,0,1,631.257,156.183Z" fill="#cd7659"/>
          <path id="Path_183" data-name="Path 183" d="M631.257,156.183a33.986,33.986,0,0,0,14.538,9.215c.02.186.051.364.061.559.407,6.26-4.227,7.561-4.227,7.561-9.759.163-14.718-6.342-15.287-10.814C625.946,159.6,628.171,157.051,631.257,156.183Z" fill="#bf674f"/>
          <path id="Path_184" data-name="Path 184" d="M648.431,185.181c.017,6.157-2.794,7.246-3.39,8.858-11.685-4.995-26.189-10.03-29.393-22.295a14.552,14.552,0,0,0,1.013-2.771A131.123,131.123,0,0,0,648.431,185.181Z" fill="#bf674f"/>
          <path id="Path_185" data-name="Path 185" d="M615.625,168.24c.346.245.69.491,1.036.733a14.552,14.552,0,0,1-1.013,2.771,19.962,19.962,0,0,1-.541-3.167C615.279,168.464,615.453,168.352,615.625,168.24Z" fill="#bf674f"/>
          <path id="Path_186" data-name="Path 186" d="M615.039,167.826c.194.14.392.275.586.414-.172.112-.346.224-.518.337C615.084,168.328,615.053,168.082,615.039,167.826Z" fill="#cd7659"/>
          <path id="Path_187" data-name="Path 187" d="M615.107,168.577a19.962,19.962,0,0,0,.541,3.167c-2.663,5.534-8.613,9.445-15.044,10.572a33.52,33.52,0,0,1,1.551-7.47A45.757,45.757,0,0,0,615.107,168.577Z" fill="#bf674f"/>
          <path id="Path_188" data-name="Path 188" d="M615.625,168.24c-.194-.139-.392-.274-.586-.414.014.256.045.5.068.751a45.757,45.757,0,0,1-12.952,6.269c.092-.279.181-.556.281-.84,2.6-7.318,9.35-13.009,24.151-10.245,0,0,18.051.732,21.06,14.962a32.016,32.016,0,0,1,.784,6.458,131.123,131.123,0,0,1-31.77-16.208,13.843,13.843,0,0,0,.33-1.635C616.539,167.64,616.082,167.94,615.625,168.24Z" fill="#cd7659"/>
          <path id="Path_189" data-name="Path 189" d="M616.991,167.338a13.843,13.843,0,0,1-.33,1.635c-.346-.242-.69-.488-1.036-.733C616.082,167.94,616.539,167.64,616.991,167.338Z" fill="#cd7659"/>
          <path id="Path_190" data-name="Path 190" d="M633.886,189.215c3.713,1.751,7.566,3.29,11.155,4.824a1.84,1.84,0,0,0,0,1.272c1.057,3.251,6.346,7.4,4.96,13.253s-2.926,8.132-2.926,8.132a19.914,19.914,0,0,1-5.774,1.545l-1.385-7.319-.648,7.319s-1.985-.18-5.028-.48C632.121,208.318,631.078,198.361,633.886,189.215Z" fill="#cd7659"/>
          <path id="Path_191" data-name="Path 191" d="M615.648,171.744c2.219,8.5,9.864,13.524,18.238,17.471-2.808,9.146-1.765,19.1.356,28.546-8.446-.834-25.036-2.6-29.936-4.051v-4.577l-1.544,4.148-2.584-.744c5.692-9.666,7.87-21.817,8.054-33.03A18.511,18.511,0,0,0,615.648,171.744Z" fill="#bf674f"/>
          <path id="Path_192" data-name="Path 192" d="M599.1,202.954c1.789-6.261,1.708-8.863,1.544-12.441a54.517,54.517,0,0,1-.042-8.2,22.9,22.9,0,0,0,7.628-2.809c-.184,11.213-2.362,23.364-8.054,33.03l-2.214-.639S597.313,209.215,599.1,202.954Z" fill="#cd7659"/>
          <path id="Path_193" data-name="Path 193" d="M625.041,219.379s9.521.05,12.529,5.906a93.669,93.669,0,0,1,4.252,9.212s-3.179,8.7-8.544,8.7c0,0,1.389,11.614.964,16.432-.2,2.27-4.69,11.255-6.317,12.15s-3.363.764-8.239.521-22.65-4.836-25.089-5,.845-29.222,1.171-29.789-3.66-3.01-5.693-10.817c0,0,3.335-7.724,6.832-10.244s5.936-3.09,10.245-2.033S625.041,219.379,625.041,219.379Z" fill="#2c2945"/>
          <path id="Path_194" data-name="Path 194" d="M610.363,212.158a4.084,4.084,0,0,1-3.211,2.261s1.869,3.17,8.864,4.96,9.025,0,9.025,0c-2.256-1.333-1.685-3.32-2.276-5.464a7.539,7.539,0,0,1-.236-1.622A40.6,40.6,0,0,1,610.363,212.158Z" fill="#f9b28f"/>
          <path id="Path_195" data-name="Path 195" d="M623.385,206.151l-11.617,1.1a14.738,14.738,0,0,1-.589,3.077,8.365,8.365,0,0,1-.816,1.835,40.6,40.6,0,0,0,12.166.135A21.875,21.875,0,0,1,623.385,206.151Z" fill="#f2a381"/>
          <path id="Path_196" data-name="Path 196" d="M634.881,188.236s5.772-.732,4.958,5.773-6.423,3.577-6.423,3.577-3.179,10.955-16.344,10.491c-11.546-.407-17.077-8.62-15.856-16.832a72.263,72.263,0,0,1,2.6-12.117s7.157-3.822,10.977-7.562C614.795,171.566,627.4,185.146,634.881,188.236Z" fill="#f9b28f"/>
          <path id="Path_197" data-name="Path 197" d="M618.13,198.562c0,1.421,1.929,2.572,4.308,2.572s4.31-1.151,4.31-2.572-1.93-2.571-4.31-2.571S618.13,197.143,618.13,198.562Z" fill="#f2a381"/>
          <path id="Path_198" data-name="Path 198" d="M602.679,195.439c-.383,1.2.937,2.692,2.948,3.333s3.952.189,4.335-1.012-.939-2.692-2.949-3.334S603.062,194.239,602.679,195.439Z" fill="#f2a381"/>
          <g id="Group_67" data-name="Group 67">
            <path id="Path_199" data-name="Path 199" d="M637.862,191.6c-.821-1.059-2.947-1.366-3.816-.214-1.018,1.352-.268,3.239.18,4.619.066.209-.234.4-.38.22-1.2-1.421-1.307-4.246.1-5.576a2.987,2.987,0,0,1,4.157.765c.076.147-.131.329-.242.186Z"/>
          </g>
          <g id="Group_68" data-name="Group 68">
            <path id="Path_200" data-name="Path 200" d="M636.142,193.107a5.537,5.537,0,0,0-1.548-.056,1.338,1.338,0,0,0-.809.717.17.17,0,0,1-.291,0c-.265-.424.322-.822.644-.99.685-.357,1.306-.07,2,.018.191.025.2.31,0,.311Z"/>
          </g>
          <g id="Group_69" data-name="Group 69">
            <path id="Path_201" data-name="Path 201" d="M626.579,188.842c-.628-.995-1.1-2.08-1.765-3.069a7.834,7.834,0,0,0-3.509-2.788c-.28-.111-.274-.6.076-.567,1.346.107,2.6,1.4,3.465,2.329a11.6,11.6,0,0,1,2.091,3.945c.082.215-.244.331-.358.15Z"/>
          </g>
          <g id="Group_70" data-name="Group 70">
            <path id="Path_202" data-name="Path 202" d="M608.119,181.767c-.812.476-1.676.882-2.515,1.308-.937.476-1.376,1.59-2.219,2.19-.368.262-.715-.343-.353-.6.847-.613,1.284-1.66,2.251-2.133a13.553,13.553,0,0,1,2.694-1.1.184.184,0,0,1,.142.335Z"/>
          </g>
          <g id="Group_71" data-name="Group 71">
            <path id="Path_203" data-name="Path 203" d="M615.1,196.189h.032a.193.193,0,0,1,.185.143c.128.4-.48.947-.712,1.192a2.563,2.563,0,0,1-1.946.844c-.448-.04-.461-.735,0-.71a2.235,2.235,0,0,0,1.509-.572,3.278,3.278,0,0,0,.793-.8v.2a.134.134,0,0,0-.015-.026.18.18,0,0,1,.154-.268Z"/>
          </g>
          <g id="Group_72" data-name="Group 72">
            <path id="Path_204" data-name="Path 204" d="M612.116,195a4.778,4.778,0,0,1-2.469-2.968,1.235,1.235,0,0,1,1.107-1.59c.452,0,.87.408,1.186.666,1.758,1.436,1.74-1.584,1.813-2.485.209-2.6-.048-5.208.039-7.81a.271.271,0,0,1,.542,0c-.024,2.071.088,4.136.055,6.207-.022,1.371.105,3.4-.5,4.7-.309.668-.506.877-1.2.754-.258-.045-.691-.537-.862-.707q-.809-1.058-1.276,1.2a9.7,9.7,0,0,0,1.7,1.849c.089.094-.026.253-.138.181Z"/>
          </g>
          <g id="Group_73" data-name="Group 73">
            <path id="Path_205" data-name="Path 205" d="M619.26,192.891c.152-1.217.409-3.9,2.129-3.908a2.448,2.448,0,0,1,2.257,1.46c.618,1.224.353,2.607.283,3.912a.352.352,0,0,1-.7,0,13.706,13.706,0,0,0-.011-2.955c-.2-.895-1.071-2.092-2.136-1.635s-1.038,2.316-1.614,3.182c-.056.081-.219.062-.205-.056Z"/>
          </g>
          <g id="Group_74" data-name="Group 74">
            <path id="Path_206" data-name="Path 206" d="M608.176,191.026c-.2-1.075-.561-4.5-2.429-3.568-1.167.583-1.078,2.711-1.1,3.787-.008.369-.6.477-.666.089-.275-1.479.136-4.047,1.743-4.635A2.065,2.065,0,0,1,608,187.735c.622,1,.4,2.167.369,3.266,0,.106-.171.137-.191.025Z"/>
          </g>
          <g id="Group_78" data-name="Group 78">
            <g id="Group_75" data-name="Group 75">
              <path id="Path_207" data-name="Path 207" d="M615.853,191.245a7.531,7.531,0,1,1,7.531,7.531A7.539,7.539,0,0,1,615.853,191.245Zm.488,0a7.043,7.043,0,1,0,7.043-7.045A7.052,7.052,0,0,0,616.341,191.245Z" fill="#2c2945"/>
            </g>
            <g id="Group_76" data-name="Group 76">
              <path id="Path_208" data-name="Path 208" d="M595.676,191.245a7.532,7.532,0,1,1,7.532,7.531A7.54,7.54,0,0,1,595.676,191.245Zm.488,0a7.043,7.043,0,1,0,7.044-7.045A7.051,7.051,0,0,0,596.164,191.245Z" fill="#2c2945"/>
            </g>
            <g id="Group_77" data-name="Group 77">
              <path id="Path_209" data-name="Path 209" d="M615.983,190.6l.326-.365c-.07-.06-1.707-1.461-6-.642l.092.48C614.457,189.294,615.968,190.583,615.983,190.6Z" fill="#2c2945"/>
            </g>
          </g>
        </g>
        <path id="Path_210" data-name="Path 210" d="M591.616,231.058l4.178,5-.4,10.458a33.6,33.6,0,0,1-4.542-3.445C591.437,237.191,591.616,231.058,591.616,231.058Z" fill="#f2a381"/>
        <path id="Path_211" data-name="Path 211" d="M567.05,283.7c3.288-4.516,19.642-17.651,21.092-21.138.827-2,1.921-11.621,2.709-19.49a33.6,33.6,0,0,0,4.542,3.445l-.8,20.788Z" fill="#f9b28f"/>
        <path id="Path_212" data-name="Path 212" d="M633.225,255.473l-1.433,8.787s-19.9,13.889-23.385,17.29c-2.316,2.265-7.3,2.977-6.661,4.394s3.474-.142,3.474-.142-2.481,6.591-1.135,6.733,3.685-6.8,3.685-6.8-2.268,8.929-1.266,9.146,3.463-7.8,3.463-7.8-1.56,9.282-.78,8.943,3.543-8.8,3.543-8.8-2.409,9.212-.424,8.788,3.826-9.213,4.252-9.779.922-1.933,15.742-8.736c9.82-4.509,11.409-15.906,11.536-24.648a46.9,46.9,0,0,0-.5-5.868,34.757,34.757,0,0,1-10.1,5.761Z" fill="#f9b28f"/>
        <path id="Path_213" data-name="Path 213" d="M633.278,243.2l-.041,9.541a34.757,34.757,0,0,0,10.1-5.761c-.7-5.326-1.874-11.6-1.874-11.6S636.72,242.15,633.278,243.2Z" fill="#f2a381"/>
        <path id="Path_214" data-name="Path 214" d="M635.7,268.551s4.594,7.62,17.309,7.037c11.142-.508,18.519-20.115,21.354-56.964s1.445-59.9,2.235-66.329" fill="none" stroke="#fc3d3d" stroke-miterlimit="10" stroke-width="1.134"/>
        <path id="Path_215" data-name="Path 215" d="M636.753,271.05s-4.927-2.914-6.514-3.748l2.319-1.248,6.085,3.609Z" fill="#fefefe"/>
      </g>
    </g>
    <g id="Group_113" data-name="Group 113">
      <g id="Group_102" data-name="Group 102">
        <path id="Path_216" data-name="Path 216" d="M356.738,307.344s-.283,15.024,2.551,22.677H336.33s2.338-16.892,1.792-27.782c-.026-.485-.055-.956-.092-1.413C338.122,302.239,356.738,307.344,356.738,307.344Z" fill="#6bc7dd"/>
        <g id="Group_82" data-name="Group 82">
          <path id="Path_217" data-name="Path 217" d="M333.211,165.617c4.9-1.3,17.575-2.267,24.661-2.551,3.409-.136,7.866-.141,11.575-.109,6.247,4.468,3.449,14.283,3.449,14.283l-44.685,5.383C327.721,177.039,327.694,167.079,333.211,165.617Z" fill="#6bc7dd"/>
          <path id="Path_218" data-name="Path 218" d="M332.361,162.5a175.933,175.933,0,0,1,29.763-1.7,13.119,13.119,0,0,1,7.323,2.158c-3.709-.032-8.166-.027-11.575.109-7.086.284-19.759,1.253-24.661,2.551-5.517,1.462-5.49,11.422-5,17.006l-2.369.285C321.023,162.783,332.361,162.5,332.361,162.5Z" fill="#3793b5"/>
        </g>
        <path id="Path_219" data-name="Path 219" d="M382.461,240.454h8.9l48.377,25.021v4.535l-5.008,5.578-51.639-30Z" fill="#2486a0"/>
        <path id="Path_220" data-name="Path 220" d="M382.461,235.914h8.9l47.9,29.466-4.535,5.67L383.09,241.044Z" fill="#3793b5"/>
        <g id="Group_83" data-name="Group 83">
          <path id="Path_221" data-name="Path 221" d="M325.842,189.145c8.264-3.236,16.723-4.253,34.014-6.522a116.7,116.7,0,0,1,25.365-.574c3.3,3.484,5.992,9.429,6.1,19.567.285,26.645,2.552,63.211,2.552,63.211l-68.728,18.14c-2.576-19.767-8.219-63.986-8.655-75.114C315.921,193.4,320.664,191.171,325.842,189.145Z" fill="#6bc7dd"/>
          <path id="Path_222" data-name="Path 222" d="M325.842,182.908,372.9,177.24a15.545,15.545,0,0,1,12.325,4.809,116.7,116.7,0,0,0-25.365.574c-17.291,2.269-25.75,3.286-34.014,6.522-5.178,2.026-9.921,4.25-9.354,18.708.436,11.128,6.079,55.347,8.655,75.114l-7.522,1.984s-7.086-56.123-7.936-70.579S311.771,184.6,325.842,182.908Z" fill="#3793b5"/>
        </g>
        <g id="Group_84" data-name="Group 84">
          <path id="Path_223" data-name="Path 223" d="M426.185,332.005c-25.511.567-32.314-13.322-43.369-20.124-10.476-6.448-47.99-7.32-56.955-29.1l68.01-17.951s34.3,16.441,42.234,23.244c7.235,6.2,20.354,17.819,22.833,26.911C453.469,321.817,442.761,331.636,426.185,332.005Z" fill="#6bc7dd"/>
          <path id="Path_224" data-name="Path 224" d="M325.861,282.778c8.965,21.783,46.479,22.655,56.955,29.1,11.055,6.8,17.858,20.691,43.369,20.124,16.576-.369,27.284-10.188,32.753-17.023a11.034,11.034,0,0,1,.411,2.567c.284,9.354-26.078,22.109-41.952,22.393S388.7,325.6,379.54,320.1c-10.8-6.486-34.423-12.187-47.179-17.715a25.038,25.038,0,0,1-14.74-17.435Z" fill="#3793b5"/>
        </g>
        <g id="Group_101" data-name="Group 101">
          <g id="Group_90" data-name="Group 90">
            <g id="Group_89" data-name="Group 89">
              <g id="Group_85" data-name="Group 85">
                <path id="Path_225" data-name="Path 225" d="M456.645,351.52a3.413,3.413,0,0,0,2.056,1.452c1.925.216,12.1-1.792,19.177-4.812a15.205,15.205,0,0,1-.813-1.811C470.983,349.493,463.137,350.768,456.645,351.52Z" fill="#fad8b4"/>
                <path id="Path_226" data-name="Path 226" d="M474.485,340.618a109.314,109.314,0,0,1-11.975.545s.088,3.767-6.959,5.429c0,0-.442,3,1.094,4.928,6.492-.752,14.338-2.027,20.42-5.171a18.479,18.479,0,0,1-1.086-5.91C475.42,340.492,474.912,340.548,474.485,340.618Z" fill="#2c2945"/>
                <path id="Path_227" data-name="Path 227" d="M475.979,340.439a18.479,18.479,0,0,0,1.086,5.91,20.072,20.072,0,0,0,6.641-5.235C481.922,340.279,478.454,340.237,475.979,340.439Z" fill="#fad8b4"/>
                <path id="Path_228" data-name="Path 228" d="M477.878,348.16a19.111,19.111,0,0,0,5.72-3.413c1.87-1.856,1.488-2.982.108-3.633a20.072,20.072,0,0,1-6.641,5.235A15.205,15.205,0,0,0,477.878,348.16Z" fill="#fad8b4"/>
              </g>
              <g id="Group_86" data-name="Group 86">
                <path id="Path_229" data-name="Path 229" d="M465.623,345.224a6.215,6.215,0,0,1,.567-4.284c.1-.25-.253-.506-.45-.3-1.094,1.142-1.167,3.274-.709,4.7.117.361.7.261.592-.112Z"/>
              </g>
              <g id="Group_87" data-name="Group 87">
                <path id="Path_230" data-name="Path 230" d="M468.119,344.654a2.253,2.253,0,0,0,.289.132.286.286,0,0,0,.376-.318,5.547,5.547,0,0,1-.091-1.819,3.842,3.842,0,0,1,.869-1.535.278.278,0,0,0-.353-.4c-1.4.686-1.268,2.6-.991,3.859.131-.108.253-.216.379-.322a2.669,2.669,0,0,0-.309-.074.264.264,0,0,0-.169.479Z"/>
              </g>
              <g id="Group_88" data-name="Group 88">
                <path id="Path_231" data-name="Path 231" d="M465.7,340.957c.022.052.047.108.07.166.108-.124.21-.243.311-.361a4.75,4.75,0,0,1-2.127-1.587,8.827,8.827,0,0,1-.66-.961c-.042-.068-.543-1.553-.028-1.286,1.3.679,2.075,2.666,2.444,3.913.237-.081.474-.156.711-.236a4.174,4.174,0,0,1-.278-3.112c.471-1.4.6-.155.593.1a6.333,6.333,0,0,1-.081.89,20.022,20.022,0,0,1-.792,3.267l.714-.041a3.577,3.577,0,0,0-.242-.382c-.191-.28-.706-.028-.605.3.049.149.1.281.152.424a.391.391,0,0,0,.713-.042,19.759,19.759,0,0,0,.7-2.734c.151-.712.534-2.171-.041-2.808-.555-.617-1.339-.126-1.688.444-.746,1.206-.362,2.838.17,4.025.173.392.839.18.716-.235-.224-.739-2.282-5.822-3.869-4.422-.745.659-.135,1.867.269,2.506a5.575,5.575,0,0,0,3.061,2.463.258.258,0,0,0,.316-.352c-.032-.054-.053-.1-.08-.158a.251.251,0,0,0-.452.219Z"/>
              </g>
            </g>
            <path id="Path_232" data-name="Path 232" d="M455.551,346.592l-1.876-4.888,8.116-4.058,2.2,3.679S462.726,345,455.551,346.592Z" fill="#f9b28f"/>
          </g>
          <g id="Group_96" data-name="Group 96">
            <g id="Group_95" data-name="Group 95">
              <g id="Group_91" data-name="Group 91">
                <path id="Path_233" data-name="Path 233" d="M442.861,359.995a3.417,3.417,0,0,0,2.058,1.451c1.925.218,12.1-1.79,19.178-4.811a14.95,14.95,0,0,1-.813-1.81C457.2,357.966,449.354,359.243,442.861,359.995Z" fill="#fad8b4"/>
                <path id="Path_234" data-name="Path 234" d="M460.7,349.093a109.805,109.805,0,0,1-11.977.544s.089,3.769-6.958,5.431c0,0-.442,3,1.092,4.927,6.493-.752,14.341-2.029,20.423-5.17a18.436,18.436,0,0,1-1.086-5.911C461.639,348.965,461.129,349.024,460.7,349.093Z" fill="#2c2945"/>
                <path id="Path_235" data-name="Path 235" d="M462.2,348.914a18.436,18.436,0,0,0,1.086,5.911,20.123,20.123,0,0,0,6.641-5.235C468.14,348.753,464.672,348.712,462.2,348.914Z" fill="#fad8b4"/>
                <path id="Path_236" data-name="Path 236" d="M464.1,356.635a19.105,19.105,0,0,0,5.718-3.414c1.871-1.854,1.49-2.98.11-3.631a20.123,20.123,0,0,1-6.641,5.235A14.95,14.95,0,0,0,464.1,356.635Z" fill="#fad8b4"/>
              </g>
              <g id="Group_92" data-name="Group 92">
                <path id="Path_237" data-name="Path 237" d="M451.841,353.7a6.217,6.217,0,0,1,.567-4.285c.1-.249-.253-.507-.451-.3-1.092,1.141-1.166,3.271-.709,4.7.117.362.7.26.593-.111Z"/>
              </g>
              <g id="Group_93" data-name="Group 93">
                <path id="Path_238" data-name="Path 238" d="M454.338,353.128a2.266,2.266,0,0,0,.289.133.286.286,0,0,0,.376-.318,5.522,5.522,0,0,1-.091-1.819,3.838,3.838,0,0,1,.868-1.534.278.278,0,0,0-.353-.4c-1.394.686-1.268,2.6-.99,3.86.129-.109.25-.216.379-.324a2.789,2.789,0,0,0-.31-.074.264.264,0,0,0-.168.479Z"/>
              </g>
              <g id="Group_94" data-name="Group 94">
                <path id="Path_239" data-name="Path 239" d="M451.92,349.434c.023.049.048.105.071.163.109-.122.212-.24.31-.36a4.741,4.741,0,0,1-2.126-1.586,8.48,8.48,0,0,1-.658-.963c-.045-.066-.545-1.552-.03-1.283,1.3.677,2.075,2.663,2.444,3.912.237-.082.473-.157.711-.238a4.175,4.175,0,0,1-.279-3.112c.472-1.4.6-.154.6.1a6.487,6.487,0,0,1-.081.889,19.892,19.892,0,0,1-.793,3.266c.242-.011.473-.026.715-.041a4.041,4.041,0,0,0-.243-.381c-.191-.28-.706-.028-.605.3.049.145.1.278.153.423a.389.389,0,0,0,.71-.042,19.7,19.7,0,0,0,.706-2.734c.15-.714.533-2.172-.041-2.808-.556-.617-1.34-.127-1.688.442-.746,1.207-.362,2.838.17,4.025.173.391.839.181.715-.235-.225-.739-2.282-5.819-3.868-4.421-.746.658-.137,1.868.269,2.505a5.571,5.571,0,0,0,3.061,2.463.257.257,0,0,0,.314-.352c-.03-.053-.053-.1-.079-.157a.252.252,0,0,0-.453.221Z"/>
              </g>
            </g>
            <path id="Path_240" data-name="Path 240" d="M441.769,355.068l-1.875-4.889,8.115-4.058,2.2,3.678S448.943,353.474,441.769,355.068Z" fill="#f9b28f"/>
          </g>
          <path id="Path_241" data-name="Path 241" d="M390.07,267.291s19.076,12.616,30.343,18.626S439.64,297.933,450.3,310.4s14.3,28.254,14.3,28.254l-10.513,4.961s-12.8-18.795-16.408-21.5-8.561-5.858-8.561-5.858,18.475,21.78,22.53,30.341L439.038,350.8a281.425,281.425,0,0,0-22.832-23.883c-12.166-11.115-22.53-19.077-26.136-20.427s-31.308-8.612-36.608-18.351-3.346-12.15-3.346-12.15S381.659,266.24,390.07,267.291Z" fill="#2c2945"/>
          <g id="Group_97" data-name="Group 97">
            <path id="Path_242" data-name="Path 242" d="M381.859,284.006c2.261-.212,4.476-1.674,6.434-2.719,2.958-1.581,6.232-3.143,8.6-5.576a.3.3,0,0,0-.359-.464c-2.326,1.359-4.48,2.98-6.834,4.3-2.333,1.311-5.253,3.459-7.916,3.882-.325.052-.25.606.078.575Z"/>
          </g>
          <g id="Group_98" data-name="Group 98">
            <path id="Path_243" data-name="Path 243" d="M374.8,270.544a35.728,35.728,0,0,0,5.335,4.615c1.846,1.491,3.3,3.317,5.339,4.571a.376.376,0,0,0,.454-.588c-3.165-3.412-7.284-5.911-10.829-8.9a.212.212,0,0,0-.3.3Z"/>
          </g>
          <g id="Group_99" data-name="Group 99">
            <path id="Path_244" data-name="Path 244" d="M383.84,277.687c1.007.016.676-1.876.4-2.418a9.009,9.009,0,0,0-2.519-2.746c-.543-.469-1.107-.914-1.652-1.381a10.335,10.335,0,0,1-1.626-1.337c-.324-.443-1.071-.014-.744.436a17.832,17.832,0,0,0,3.467,2.838,18.971,18.971,0,0,1,1.779,1.471c.2.2,1.648,2.344.789,2.766a.2.2,0,0,0,.1.371Z"/>
          </g>
          <g id="Group_100" data-name="Group 100">
            <path id="Path_245" data-name="Path 245" d="M389.433,282.665c5.67,5.68,12.982,9.93,19.156,15.069,3.714,3.091,7.365,6.259,10.99,9.454,2.994,2.641,5.476,5.823,8.665,8.233.173.131.369-.145.226-.292-6.244-6.3-12.486-12.28-19.324-17.954-6.267-5.2-13.261-9.525-19.467-14.756-.169-.144-.408.084-.246.246Z"/>
          </g>
        </g>
        <path id="Path_246" data-name="Path 246" d="M362.124,330.021h-29.2s-.813,24.377-7.067,34.581h47.885S364.07,347.99,362.124,330.021Z" fill="#3793b5"/>
        <path id="Path_247" data-name="Path 247" d="M322.8,364.6h69.163v5.953h-84.32V364.6Z" fill="#2486a0"/>
        <path id="Path_248" data-name="Path 248" d="M317.621,284.951,314.392,258.6h7.638l3.089,24.174Z" fill="#2486a0"/>
        <path id="Path_249" data-name="Path 249" d="M314.392,263.144h8.9l48.377,25.022V292.7l-5.009,5.578-51.639-30Z" fill="#2486a0"/>
        <path id="Path_250" data-name="Path 250" d="M314.392,258.6h8.9l47.9,29.467-4.535,5.668-51.639-30.006Z" fill="#3793b5"/>
      </g>
      <g id="Group_104" data-name="Group 104">
        <rect id="Rectangle_10" data-name="Rectangle 10" width="62.36" height="8.693" transform="translate(254.081 110.344)" fill="#3793b5"/>
        <rect id="Rectangle_11" data-name="Rectangle 11" width="4.913" height="251.519" transform="translate(285.025 119.037)" fill="#2486a0"/>
        <g id="Group_103" data-name="Group 103">
          <path id="Path_251" data-name="Path 251" d="M303.088,122.533s12.046-1.022,13.89,1.558c2.125,2.977,3.826,28.629-5.245,30.614s-17.432,1.984-18.708-11.2,0-17.432,0-17.432S294.113,122.572,303.088,122.533Z" fill="#dcf8ff"/>
          <path id="Path_252" data-name="Path 252" d="M316.127,133.871c0,.425,2.125,15.023-3.968,17.715s-16.016,3.59-16.3-12.59v-5.125Z" fill="#fc3d3d"/>
          <rect id="Rectangle_12" data-name="Rectangle 12" width="14.457" height="2.977" transform="translate(299.261 138.264)" fill="#fff"/>
          <path id="Path_253" data-name="Path 253" d="M307.482,119.037v3.3l-3.273.117v-3.419Z" fill="#3793b5"/>
        </g>
      </g>
      <g id="Group_112" data-name="Group 112">
        <path id="Path_254" data-name="Path 254" d="M392.023,231.072s-.169-.432-.447-1.127c-.718-1.8-2.185-5.405-3.52-8.3-.512-1.116-1.008-2.13-1.43-2.885a9.466,9.466,0,0,0-.612-.982,41.1,41.1,0,0,0-3.706-5.077c-.467-.492-3.826-1.366-4.512-1.473-8.032-1.244-8.12.416-11.434,1.542,0,0,.015,7.031-12.684,2.291,0,0-10.949,1.239-15.676,5.268-2,1.7-3.487,9.347-3.831,11.2-.351,1.9-.585,3.5-.742,4.845a30.235,30.235,0,0,0-.29,5.212,56.314,56.314,0,0,0,16.342,6.265c.171.037.337.077.511.113l.2,2.814.571,7.86.272,3.748.477,6.563.482,6.642s32.739-8.353,37.7-8.211l-2.754-9.078-.371-4.833-.557-7.237-.661-8.578-.133-1.737S390.38,234.025,392.023,231.072Z" fill="#feb01b"/>
        <path id="Path_255" data-name="Path 255" d="M351.29,264.26l-1.3-16.3L336.33,243.3s-3.237,27.015,10.909,34.271a49.953,49.953,0,0,1,6.729-11.428C352.33,264.987,351.29,264.26,351.29,264.26Z" fill="#f9b28f"/>
        <path id="Path_256" data-name="Path 256" d="M367.043,275.541c-4.553-3.367-9.928-7.182-13.075-9.4a49.953,49.953,0,0,0-6.729,11.428c.191.1.373.207.571.3,5.141,2.36,8.914,4.02,11.67,5.206A29.48,29.48,0,0,1,367.043,275.541Z" fill="#f2a381"/>
        <path id="Path_257" data-name="Path 257" d="M374.675,281.55c-1.163-1.135-4.158-3.442-7.632-6.009a29.48,29.48,0,0,0-7.563,7.531c5.188,2.233,6.768,2.785,7.045,3.156.425.566,2.267,9.354,4.252,9.779s-.425-8.788-.425-8.788,2.764,8.462,3.543,8.8-.779-8.943-.779-8.943,2.463,8.016,3.463,7.8-1.266-9.146-1.266-9.146,2.337,6.946,3.683,6.8-1.133-6.733-1.133-6.733,2.834,1.559,3.473.142S376.991,283.815,374.675,281.55Z" fill="#f9b28f"/>
        <path id="Path_258" data-name="Path 258" d="M347.386,268.551s-4.593,7.62-17.309,7.037c-11.14-.508-18.518-20.115-21.353-56.964s-1.446-59.9-2.235-66.329" fill="none" stroke="#fc3d3d" stroke-miterlimit="10" stroke-width="1.134"/>
        <path id="Path_259" data-name="Path 259" d="M346.329,271.05s4.926-2.914,6.515-3.748l-2.32-1.248-6.085,3.609Z" fill="#fefefe"/>
        <g id="Group_105" data-name="Group 105">
          <path id="Path_260" data-name="Path 260" d="M358.392,192.9a4.736,4.736,0,0,0,3.272,2.343c.256.036.481-.337.194-.462A10.361,10.361,0,0,1,360,193.89c-.467-.325-.875-1.1-1.445-1.2a.148.148,0,0,0-.165.215Z"/>
        </g>
        <g id="Group_106" data-name="Group 106">
          <path id="Path_261" data-name="Path 261" d="M349.959,248.047c.413-.434-.216-2.276-.262-2.637-.242-1.876-.67-3.735-.947-5.608-.051-.341-.634-.261-.6.081a35.929,35.929,0,0,0,.689,3.959c.156.733.333,1.46.478,2.2a6.729,6.729,0,0,1,.434,1.923c-.013.109.141.158.209.086Z"/>
        </g>
        <g id="Group_107" data-name="Group 107">
          <path id="Path_262" data-name="Path 262" d="M385.357,236.066c.413-.435-.215-2.276-.261-2.638-.242-1.876-.67-3.735-.948-5.608-.05-.34-.633-.26-.6.081a35.893,35.893,0,0,0,.688,3.959c.157.734.334,1.461.479,2.2a6.753,6.753,0,0,1,.433,1.922c-.013.109.141.158.209.087Z"/>
        </g>
        <g id="Group_108" data-name="Group 108">
          <path id="Path_263" data-name="Path 263" d="M350.306,248.183c.254-.974.347-1.975.567-2.955.276-1.234.622-2.446.815-3.7a.34.34,0,0,0-.656-.181,35.017,35.017,0,0,0-1.321,6.752c-.038.345.511.4.6.08Z"/>
        </g>
        <path id="Path_264" data-name="Path 264" d="M385.221,235.914s2.012,17.818-1.021,19.464c-4.827,2.621-20.211,5.425-25.5,10.676s-3.737,7.962-3.311,7.962,3.189-3.242,3.189-3.242-2.667,3.171-1.83,3.738,3.543-3.094,3.543-3.094-2.493,2.886-1.643,3.452,3.756-4.1,3.756-4.1-1.772,2.96-.921,3.6,4.786-4.065,4.786-4.065,11.471-3.9,17.291-5.48,10.488-2.849,11.126-11.345-2.662-22.41-2.662-22.41Z" fill="#f9b28f"/>
        <g id="Group_111" data-name="Group 111">
          <path id="Path_265" data-name="Path 265" d="M375.936,173.038c1.023,4.021-3.134,6.317-3.134,6.317s-4.625,6.2-10.232,12.429a55.542,55.542,0,0,1-19.907-19.57C353.666,174.993,364.681,173.829,375.936,173.038Z" fill="#bf674f"/>
          <path id="Path_266" data-name="Path 266" d="M335,183.441c-.705-10.03,5.617-12.366,5.869-12.662,7.05-8.282,24.411-9.238,31.9-2.386a9.889,9.889,0,0,1,3.174,4.645c-11.255.791-22.27,1.955-33.273-.824a55.542,55.542,0,0,0,19.907,19.57c-5.418,6.019-11.752,12.064-15.718,12.566C338.782,205.371,335.7,193.47,335,183.441Z" fill="#cd7659"/>
          <path id="Path_267" data-name="Path 267" d="M353.971,214.1a101.821,101.821,0,0,1,12.952-2.185,4.025,4.025,0,0,0,2.389,2.1s-8.909,4.867-16.4,2.773A11.309,11.309,0,0,0,353.971,214.1Z" fill="#f9b28f"/>
          <path id="Path_268" data-name="Path 268" d="M353.934,208.989l11.812-.643a11.491,11.491,0,0,0,1.177,3.573,101.821,101.821,0,0,0-12.952,2.185A9.265,9.265,0,0,0,353.934,208.989Z" fill="#f2a381"/>
          <path id="Path_269" data-name="Path 269" d="M372.8,179.355a63.037,63.037,0,0,0,2.661,9.973c1.589,3.978,2.048,15.6-13.059,19.918-15.691,2.131-17.348-8.931-17.294-8.945s-5.209,2.914-6.792-2.355,4.522-5.492,4.522-5.492,3.488-8.931,3.354-13.612C346.194,178.842,363.055,180.664,372.8,179.355Z" fill="#f9b28f"/>
          <g id="Group_109" data-name="Group 109">
            <path id="Path_270" data-name="Path 270" d="M363.8,198.062c-.424.1-.741.4-1.186.432a2.7,2.7,0,0,1-1.27-.193,3.58,3.58,0,0,1-1.921-2.018c-.1-.273.287-.467.475-.277a3.952,3.952,0,0,1,.515.727,2.786,2.786,0,0,0,1.065.947,2.171,2.171,0,0,0,1.138.249c.385-.006.738-.252,1.131-.279.237-.017.279.358.053.412Z"/>
          </g>
          <g id="Group_110" data-name="Group 110">
            <path id="Path_271" data-name="Path 271" d="M364.794,193.608a3.407,3.407,0,0,0,.8-1.45q-1.311-1.4-2.085-.262a2.581,2.581,0,0,1-.955.664c-.571.154-.864-.147-1.117-.606-.6-1.1-.526-2.834-.71-4.041a32.235,32.235,0,0,1-.467-5.5.346.346,0,0,1,.677-.087c.005.025.011.049.016.074a.341.341,0,0,1-.658.178c-.009-.024-.016-.049-.023-.073l.676-.086a49.012,49.012,0,0,0,.755,7.484c.15,1.03.487,2.4,1.759,1.166a2.811,2.811,0,0,1,1.436-.821c2.231-.525.823,2.956.105,3.565a.146.146,0,0,1-.208-.206Z"/>
          </g>
          <path id="Path_272" data-name="Path 272" d="M352.629,193.224c.211.782.757,1.315,1.222,1.19s.669-.861.458-1.643-.758-1.315-1.222-1.189S352.418,192.442,352.629,193.224Z"/>
          <path id="Path_273" data-name="Path 273" d="M368.456,189.617c.211.782.757,1.315,1.222,1.189s.668-.859.457-1.642-.756-1.315-1.22-1.19S368.245,188.836,368.456,189.617Z"/>
          <path id="Path_274" data-name="Path 274" d="M347.109,188.792s1.955-4.441,3.522-5.021,3.377.031,2.895.866,1.511.9-.243,1.71C349.187,188.233,345.984,191,347.109,188.792Z" fill="#bf674f"/>
          <path id="Path_275" data-name="Path 275" d="M372.953,184.872s-3.153-3.689-4.82-3.79-3.225,1-2.524,1.664-1.185,1.3.728,1.566C370.8,184.937,374.667,186.661,372.953,184.872Z" fill="#bf674f"/>
        </g>
      </g>
    </g>
  </g>
</svg>
