<?xml version="1.0" encoding="utf-8"?>
<!-- Generator: Adobe Illustrator 21.0.0, SVG Export Plug-In . SVG Version: 6.00 Build 0)  -->
<svg version="1.1" xmlns="http://www.w3.org/2000/svg" xmlns:xlink="http://www.w3.org/1999/xlink" x="0px" y="0px"
	 viewBox="0 0 500 500" style="enable-background:new 0 0 500 500;" xml:space="preserve">
<style type="text/css">
	.st0{fill:#E8E3DD;}
	.st1{clip-path:url(#SVGID_2_);}
	.st2{fill:#ABC94C;}
	.st3{fill:#FFFFFF;}
	.st4{opacity:0.5;fill:#ABC94C;}
	.st5{fill:none;stroke:#FFFFFF;stroke-width:6;stroke-miterlimit:10;}
	.st6{fill:none;stroke:#FFFFFF;stroke-width:4;stroke-linecap:round;stroke-miterlimit:10;}
	.st7{opacity:0.3;}
	.st8{fill:#1D181F;}
	.st9{fill:#FCEE21;}
	.st10{fill:#FBB03B;}
	.st11{opacity:0.2;fill:#1D181F;}
	.st12{fill:#FF931E;}
	.st13{fill:#03658C;}
	.st14{opacity:0.5;fill:#03658C;}
	.st15{font-family:'Quicksand-Bold';}
	.st16{font-size:12px;}
	.st17{fill:#C62626;}
	.st18{font-family:'MyriadPro-Regular';}
	.st19{font-size:13.7597px;}
	.st20{font-size:14px;}
	.st21{fill:#F7DF00;}
	.st22{font-size:11.8533px;}
	.st23{fill:#7CC427;}
	.st24{display:none;}
	.st25{display:inline;}
	.st26{fill:#37465D;}
</style>
<g id="_BACKGROUND">
	<rect class="st0" width="500" height="500"/>
</g>
<g id="OBJECTS">
	<g>
		<defs>
			<rect id="SVGID_1_" width="500" height="500"/>
		</defs>
		<clipPath id="SVGID_2_">
			<use xlink:href="#SVGID_1_"  style="overflow:visible;"/>
		</clipPath>
		<g class="st1">
			<g>
				<circle class="st2" cx="172.8" cy="133.5" r="43.2"/>
				<path class="st3" d="M172.8,180.7c-26,0-47.2-21.2-47.2-47.2c0-26,21.2-47.2,47.2-47.2c26,0,47.2,21.2,47.2,47.2
					C220,159.5,198.9,180.7,172.8,180.7z M172.8,94.3c-21.6,0-39.2,17.6-39.2,39.2s17.6,39.2,39.2,39.2c21.6,0,39.2-17.6,39.2-39.2
					S194.5,94.3,172.8,94.3z"/>
			</g>
			<g>
				<circle class="st4" cx="172.8" cy="133.5" r="23.1"/>
				<polygon class="st2" points="396.4,201.6 389.8,233.1 268.6,215 279.4,184.4 				"/>
				<polygon class="st2" points="424.2,60.2 394.6,90.3 359.2,96.1 338.1,117.5 401.5,133.5 452.9,106.2 				"/>
				<polygon class="st2" points="420.1,278.1 389.8,345.7 412.1,380.3 473.5,377.2 488.9,359.1 473.5,323.4 446.7,315.4 				"/>
				<polygon class="st2" points="399.9,513.7 385.4,477 333.3,461.7 280.3,391.4 258.6,418.1 322.4,513.7 				"/>
				<polygon class="st2" points="55.8,303.8 74.8,329.3 72.2,408.1 26.6,348.5 				"/>
				<polygon class="st2" points="27.4,443.9 62.3,490.2 41.3,517.1 -6.6,517.1 -6.6,470.7 				"/>
				<polygon class="st2" points="178.3,268.8 159,308.7 185.9,348.5 216,341.1 				"/>
				<polygon class="st2" points="43.8,-11 49.6,57.6 24.7,77 -14.6,48.9 -14.6,-11 				"/>
			</g>
			<g>
				<polygon class="st0" points="110.3,336.4 96.4,316.9 121.3,307.9 133.1,323.4 				"/>
				<polygon class="st0" points="140.1,319.5 133.1,309.9 151,298.3 159,308.7 				"/>
				<polygon class="st0" points="50.5,379.6 33,400 52.3,425.3 73.5,409.5 				"/>
				<polygon class="st0" points="48.1,428.4 37,414.9 24.3,425.3 33,439.7 				"/>
				<polygon class="st0" points="27.4,443.9 19,432.8 8.7,441.4 16,452.3 				"/>
				<polygon class="st0" points="105,385.7 94.7,396.7 106.4,405.7 117,398.8 				"/>
				<polygon class="st0" points="140.1,412.4 105.9,432.8 111.7,441.1 144.3,421.7 				"/>
				<polygon class="st0" points="102.7,435.6 108.8,445.9 101,454.4 98.4,437.6 				"/>
				<polygon class="st0" points="66.4,299.9 53.3,284.3 79.5,273.3 96.4,288.9 				"/>
				<polygon class="st0" points="17.3,307 7.2,331.6 30.8,342 41.3,326.1 				"/>
				<polygon class="st0" points="74.8,269 55.8,273.3 41.3,260.6 54.2,250 				"/>
				<path class="st0" d="M109,284.2l24.4-9l7.4-27.6C140.8,247.6,99.3,239.1,109,284.2z"/>
				<polygon class="st0" points="150.9,209.4 134.5,203.6 131.3,216.4 147.9,220.7 				"/>
				<polygon class="st0" points="58,184.2 50,207.7 13.3,207.7 16,184.2 				"/>
				<polygon class="st0" points="90.9,148.5 85.9,166 65.9,157.2 73.4,141 				"/>
				<polygon class="st0" points="67.8,138.6 58,153.5 41.3,152.1 34.8,139.4 55.8,133.5 				"/>
				<polygon class="st0" points="41.8,64.6 61.1,76.9 41.8,96.1 20.7,83.8 				"/>
				<polygon class="st0" points="15.6,88.4 34.9,101.2 29.4,114.3 -8.5,125.7 -11.2,112.8 				"/>
				<polygon class="st0" points="117.1,74.9 123,60.6 106,51.2 93.9,56.3 83.6,66.3 				"/>
				<polygon class="st0" points="79.9,25.1 86.1,46.1 78.6,53.6 48.8,47.1 47.4,30.1 				"/>
				<polygon class="st0" points="163.5,30.1 149.1,39.4 154.8,56.3 163.5,63.9 172.8,61.8 				"/>
				<polygon class="st0" points="231,29.2 220.6,50.4 206.8,47 216,25.9 				"/>
				<polygon class="st0" points="255,46.9 264.6,54.7 276.6,40.7 267.8,33.8 				"/>
				<polygon class="st0" points="270.3,31.2 280,39 291.9,25 283.1,18.1 				"/>
				<polygon class="st0" points="285.7,15.5 295.3,23.3 307.3,9.3 298.5,2.4 				"/>
				<polygon class="st0" points="275.4,81 259.2,87.1 262.3,103.7 298.2,100.1 				"/>
				<polygon class="st0" points="310.7,50.4 291.9,69.5 301.3,79 325.9,63.3 				"/>
				<polygon class="st0" points="334.8,70.9 317.7,77.7 308.9,87.2 317.3,98.1 361.6,93.6 				"/>
				<polygon class="st0" points="194.6,234.3 177,225.3 172.8,237.7 183.7,257.8 				"/>
				<polygon class="st0" points="231,278.6 217.9,295 231,309.7 245,302.1 				"/>
				<polygon class="st0" points="160.4,422.2 160.4,399.2 183.7,387.4 212,399.2 194.6,418.1 				"/>
				<polygon class="st0" points="221.9,470.7 192.5,484.1 199.5,517.1 242.8,511.1 				"/>
				<polygon class="st0" points="217,461.4 198.2,466.9 179.4,462 192.5,424.1 194.6,424.1 				"/>
				<polygon class="st0" points="299.3,368.1 267.8,360.7 265.2,371.7 280.3,387.4 				"/>
				<polygon class="st0" points="277.9,217.1 288,237.7 307.3,237.7 301,219.9 				"/>
				<polygon class="st0" points="310.1,245.7 288,245.7 297,266.6 318.3,268.8 				"/>
				<polygon class="st0" points="288,288.3 288,306.3 307.3,309.7 307.3,294.1 				"/>
				<polygon class="st0" points="314.9,295.1 314.9,311.2 329.2,315.4 330.4,299 				"/>
				<polygon class="st0" points="358.2,371.7 334.6,379 341.2,396.1 363.4,398.2 				"/>
				<polygon class="st0" points="364.6,404.3 343.4,401.7 347.4,415.6 367.3,418.1 				"/>
				<polygon class="st0" points="368.3,422.9 349,422.9 345.3,434.2 372.5,444.5 				"/>
				<polygon class="st0" points="396,357.5 387.7,367 391.8,377.1 406.3,389.7 411.5,381.3 				"/>
				<polygon class="st0" points="402.5,393.1 389.8,385.9 381.8,395.8 392.1,409.9 				"/>
				<polygon class="st0" points="388.7,413.6 381.8,405.5 367.3,413.6 373.7,436.3 383.9,426.2 				"/>
				<polygon class="st0" points="439.3,442.3 421.9,455.7 416.3,449 434.7,433.7 				"/>
				<polygon class="st0" points="433.3,429 424.2,436.3 411.5,418.1 418.3,407.6 				"/>
				<polygon class="st0" points="463.6,447.7 458.2,460.6 481.3,470 484.9,455.7 				"/>
				<polygon class="st0" points="435.3,478.9 446.7,470 473.4,483.1 487.6,502.2 469.7,509.5 				"/>
				<polygon class="st0" points="450.3,433.7 478.5,420.9 480,395.7 470,388.1 441.1,422 				"/>
				<polygon class="st0" points="464,444.7 471.4,436.3 492.8,440.5 493.9,455.7 				"/>
				<polygon class="st0" points="379.1,305.2 368.5,312.6 378.1,327.6 389.8,320.7 				"/>
				<polygon class="st0" points="326.8,262.5 332.5,278.1 353.5,280 350.2,261.2 				"/>
				<polygon class="st0" points="356.2,262.5 358.6,280 366.5,280 366.5,262.5 				"/>
				<polygon class="st0" points="379.8,248.5 402,275.2 413.3,264.4 391.6,235.5 				"/>
				<polygon class="st0" points="432.7,252.8 463,285.2 486.6,278.1 455,252.8 				"/>
				<polygon class="st0" points="491.8,282.2 467.3,290.7 475.9,309.7 507,312.6 508.8,295.9 				"/>
				<polygon class="st0" points="396.4,215 411.5,226.3 427.2,222.7 424.2,204.7 398.7,201.6 				"/>
				<polygon class="st0" points="429.1,226.3 413.3,231.7 416.6,238.8 432.6,241.6 				"/>
				<polygon class="st0" points="481.4,212.5 491.8,221.8 506.1,221.8 506.1,210.9 490,201.6 				"/>
				<polygon class="st0" points="477.7,217.1 486.6,226.3 486,237.3 474.4,238.2 468.7,228.5 				"/>
				<polygon class="st0" points="461.6,168.8 477.6,178 484.6,175.2 477.6,162 				"/>
				<polygon class="st0" points="483.4,160.2 490,173.6 506.1,175.2 506.1,153.1 				"/>
				<polygon class="st0" points="435,207.9 440.9,231.7 449.1,233.1 444.7,208.7 				"/>
			</g>
			<g>
				<g>
					<circle class="st5" cx="172.8" cy="133.5" r="70.2"/>
					<polyline class="st5" points="217.9,187.2 276,285.3 365.4,307.8 453.5,444.5 527.3,467.9 					"/>
					<polyline class="st5" points="185.9,202.4 245,302.1 242.8,395 322.4,511.1 322.4,511.1 					"/>
					<polyline class="st5" points="403.1,521.9 372.5,444.5 412.1,380.3 475.9,377.1 					"/>
					<polyline class="st5" points="421.4,275.2 389.8,345.7 331.2,364.4 244.2,334.8 106.4,371.7 55.8,303.8 					"/>
					<polyline class="st5" points="231,209.4 389.8,233.1 451.7,315.7 527.3,341.1 					"/>
					<line class="st5" x1="471.4" y1="322.3" x2="516.5" y2="407.6"/>
					<line class="st5" x1="490" y1="357.5" x2="441.1" y2="425.2"/>
					<line class="st5" x1="542.4" y1="250" x2="404.6" y2="252.8"/>
					<line class="st5" x1="529.8" y1="312.6" x2="453.8" y2="251.8"/>
					<polyline class="st5" points="153.2,200.8 133.4,275.2 55.8,303.8 -32.8,439.5 					"/>
					<polyline class="st5" points="26.6,348.5 89.8,430.5 102.7,517.1 					"/>
					<line class="st5" x1="41.3" y1="517.1" x2="92.8" y2="451.1"/>
					<polyline class="st5" points="73.5,327.6 73.5,409.5 -17,477 					"/>
					<polyline class="st5" points="119.8,368.1 160.4,422.2 194.6,418.1 242.8,511.1 					"/>
					<polyline class="st5" points="185,445.9 129.6,471.2 122,517.1 					"/>
					<line class="st5" x1="89.8" y1="430.5" x2="143.1" y2="399.2"/>
					<line class="st5" x1="62.3" y1="490.2" x2="28.3" y2="443.2"/>
					<line class="st5" x1="133.4" y1="275.2" x2="190" y2="349.3"/>
					<polyline class="st5" points="199.5,225.3 159,308.7 89.1,348.5 					"/>
					<line class="st5" x1="217" y1="342" x2="179.4" y2="266.6"/>
					<line class="st5" x1="276" y1="285.3" x2="275.4" y2="345.4"/>
					<line class="st5" x1="206.9" y1="237.7" x2="245.8" y2="234.3"/>
					<polyline class="st5" points="276,309.7 355.3,356.7 372.5,444.5 303.2,421.7 					"/>
					<polyline class="st5" points="308.6,356.7 258.6,418.1 194.6,418.1 					"/>
					<polyline class="st5" points="385.4,477 333.3,461.7 280.3,391.4 					"/>
					<polyline class="st5" points="243.5,365 194.6,418.1 160.4,517.1 					"/>
					<polyline class="st5" points="269.6,434.2 250,456.7 280.3,507.2 					"/>
					<line class="st5" x1="453.5" y1="444.5" x2="390.3" y2="489.3"/>
					<line class="st5" x1="471.4" y1="511.1" x2="421.9" y2="466.9"/>
					<line class="st5" x1="301" y1="219.9" x2="328.8" y2="298.6"/>
					<polyline class="st5" points="408.3,304.3 372.6,262.5 314.9,259.2 					"/>
					<polyline class="st5" points="372.6,262.5 389.8,233.1 396.6,200.8 					"/>
					<polyline class="st5" points="241.9,145.7 416.3,181 516.5,149.9 					"/>
					<polyline class="st5" points="521.6,219.9 441.1,173.3 427.2,119.9 					"/>
					<line class="st5" x1="124.4" y1="184.2" x2="-5.2" y2="184.2"/>
					<polyline class="st5" points="237.5,106.2 394.6,90.3 453.8,30.1 527.3,30.1 					"/>
					<line class="st5" x1="220.6" y1="82.1" x2="314.9" y2="-14.6"/>
					<polyline class="st5" points="172.8,63.3 161.7,23.6 102.7,-14.6 					"/>
					<polyline class="st5" points="129.7,78.2 49.6,57.6 -21.1,121.8 					"/>
					<polyline class="st5" points="96.4,288.9 48.2,244.5 -26.9,259.2 					"/>
					<polyline class="st5" points="90.9,68.2 55.8,133.5 -21.1,155 					"/>
					<polyline class="st5" points="144.6,233.1 117.5,225.3 67.8,262.5 					"/>
					<line class="st5" x1="48.2" y1="244.5" x2="67.8" y2="184.2"/>
					<line class="st5" x1="41.3" y1="326.1" x2="-14.6" y2="281.8"/>
					<line class="st5" x1="55.8" y1="133.5" x2="106" y2="155"/>
					<line class="st5" x1="26.6" y1="78.4" x2="-14.6" y2="48.9"/>
					<line class="st5" x1="49.6" y1="57.6" x2="43.8" y2="-14.6"/>
					<line class="st5" x1="147.9" y1="14.7" x2="47.4" y2="30.1"/>
					<polyline class="st5" points="288,155 279.3,180.6 267.8,214.9 					"/>
					<polyline class="st5" points="278.1,184.2 457.4,209.4 481.4,250 					"/>
					<line class="st5" x1="424.2" y1="204.7" x2="435" y2="252.2"/>
					<line class="st5" x1="490" y1="201.6" x2="468.7" y2="228.5"/>
					<line class="st5" x1="521.6" y1="51.8" x2="441.1" y2="87.3"/>
					<line class="st5" x1="521.6" y1="117.5" x2="459.9" y2="117.5"/>
					<line class="st5" x1="475.9" y1="71.9" x2="486" y2="117.5"/>
					<polyline class="st5" points="264.2,150.2 298.2,100.1 245.8,56.3 					"/>
					<line class="st5" x1="342" y1="165.9" x2="286.4" y2="117.5"/>
					<polyline class="st5" points="314.2,141.7 361.6,93.6 301,42.2 					"/>
					<polyline class="st5" points="401.5,178 401.5,133.5 338.1,117.5 					"/>
					<line class="st5" x1="452.9" y1="106.2" x2="401.5" y2="133.5"/>
					<line class="st5" x1="359.2" y1="-14.6" x2="267.8" y2="74.6"/>
					<polyline class="st5" points="331.6,68.2 379.8,30 424.2,60.2 486,159.4 					"/>
					<line class="st5" x1="415.2" y1="-5.3" x2="401.5" y2="44.8"/>
					<line class="st5" x1="275.4" y1="25.9" x2="234.5" y2="-14.6"/>
					<polyline class="st5" points="185.9,-11 216,24.3 198.2,68 					"/>
					<line class="st5" x1="262.3" y1="39.4" x2="216" y2="24.3"/>
					<line class="st5" x1="147.1" y1="68.2" x2="106" y2="21.1"/>
					<line class="st5" x1="161.7" y1="-11" x2="206" y2="48.9"/>
				</g>
				<g>
					<line class="st5" x1="172.8" y1="90.3" x2="172.8" y2="63.3"/>
					<line class="st5" x1="151.5" y1="96" x2="138" y2="72.6"/>
					<line class="st5" x1="135.8" y1="111.6" x2="112.5" y2="98.2"/>
					<line class="st5" x1="130.1" y1="133" x2="103.1" y2="133"/>
					<line class="st5" x1="135.8" y1="154.4" x2="112.5" y2="167.9"/>
					<line class="st5" x1="151.5" y1="170" x2="138" y2="193.4"/>
					<line class="st5" x1="172.8" y1="175.7" x2="172.8" y2="202.7"/>
					<line class="st5" x1="194.2" y1="170" x2="207.7" y2="193.4"/>
					<line class="st5" x1="209.8" y1="154.4" x2="233.2" y2="167.9"/>
					<line class="st5" x1="215.6" y1="133" x2="242.5" y2="133"/>
					<line class="st5" x1="209.8" y1="111.6" x2="233.2" y2="98.2"/>
					<line class="st5" x1="194.2" y1="96" x2="207.7" y2="72.6"/>
				</g>
				<line class="st6" x1="215" y1="251.5" x2="238.6" y2="251.5"/>
				<line class="st6" x1="225.3" y1="268.8" x2="245" y2="268.8"/>
				<g>
					<g>
						<path class="st3" d="M168.4,323.1c1.9,0,1.9-3,0-3C166.5,320.1,166.5,323.1,168.4,323.1L168.4,323.1z"/>
					</g>
				</g>
				<line class="st6" x1="165.7" y1="317.4" x2="149.6" y2="329.4"/>
				<line class="st6" x1="176" y1="331" x2="157.6" y2="342"/>
				<line class="st6" x1="170.3" y1="285.3" x2="156.5" y2="251.5"/>
				<line class="st6" x1="69.6" y1="26.7" x2="66.8" y2="9.2"/>
				<line class="st6" x1="87.5" y1="25.1" x2="84.7" y2="7.6"/>
				<line class="st6" x1="11.8" y1="145.8" x2="15.5" y2="126.3"/>
				<line class="st6" x1="26.6" y1="141.2" x2="30.3" y2="121.7"/>
				<line class="st6" x1="84.5" y1="250" x2="67.3" y2="236"/>
				<line class="st6" x1="99.5" y1="239.3" x2="82.2" y2="225.3"/>
				<line class="st6" x1="318.3" y1="334.8" x2="345.3" y2="325.6"/>
				<line class="st6" x1="336.4" y1="345.7" x2="363.4" y2="336.5"/>
				<line class="st6" x1="374.8" y1="172.6" x2="371.4" y2="150.2"/>
				<line class="st6" x1="355.1" y1="167.8" x2="351.8" y2="145.4"/>
				<line class="st6" x1="346.6" y1="56.3" x2="338.1" y2="28.5"/>
				<line class="st6" x1="432.6" y1="205.9" x2="442" y2="194.1"/>
				<line class="st6" x1="448.2" y1="208.3" x2="457.6" y2="196.5"/>
				<line class="st6" x1="378" y1="458.3" x2="397.7" y2="432.2"/>
				<line class="st6" x1="382.3" y1="470" x2="402" y2="443.9"/>
				<line class="st6" x1="318.3" y1="360.1" x2="304.8" y2="383.1"/>
				<line class="st6" x1="329.1" y1="365" x2="315.6" y2="388"/>
				<line class="st6" x1="297.7" y1="186.9" x2="307.3" y2="172.6"/>
				<line class="st6" x1="313.5" y1="189.5" x2="323.1" y2="175.2"/>
				<line class="st6" x1="329.3" y1="192.1" x2="338.9" y2="177.8"/>
				<line class="st6" x1="170.4" y1="452.5" x2="153.5" y2="436.3"/>
				<line class="st6" x1="158.1" y1="457.6" x2="141.1" y2="441.3"/>
				<line class="st6" x1="50.7" y1="426.5" x2="64.6" y2="445.5"/>
				<line class="st6" x1="41.1" y1="434.4" x2="55.1" y2="453.4"/>
				<line class="st6" x1="62.3" y1="417.8" x2="76.2" y2="436.8"/>
			</g>
			<g class="st7">
				<path class="st8" d="M369.1,452.4c-0.3,0-0.6,0-0.9-0.1l-69.4-22.8c-0.6-0.2-1.1-0.6-1.5-1l-20.5-27.3l-19.3,23.7
					c-0.6,0.7-1.5,1.1-2.5,1.1c-0.9,0-1.8-0.5-2.3-1.3l-15.8-23c-0.4-0.5-0.5-1.1-0.5-1.8l1.3-56.3l-134,35.9
					c-1.2,0.3-2.4-0.1-3.2-1.1l-17.3-23.2c-0.5-0.7-0.7-1.6-0.5-2.4c0.2-0.8,0.7-1.6,1.5-2l22.6-12.9c1.4-0.8,3.3-0.3,4.1,1.1
					c0.8,1.4,0.3,3.3-1.1,4.1l-19.7,11.2l14,18.8L240,336.8c0.9-0.2,1.9,0,2.6,0.5c0.7,0.6,1.2,1.5,1.1,2.4l-1.4,59.3l13,18.9
					l19.2-23.6c0.6-0.7,1.5-1.2,2.4-1.1c0.9,0,1.8,0.5,2.3,1.2l22.3,29.6l66.2,21.8l37.3-60.6l-21.3-33.1c-0.5-0.9-0.6-1.9-0.2-2.9
					l17.8-39.6l-34.5-40.3c-0.8-1-1-2.4-0.3-3.5l15-25.6l-117.6-17.6c-0.9-0.1-1.7-0.6-2.1-1.4c-0.5-0.8-0.6-1.7-0.3-2.5l19.1-56.7
					l-20.4-4.1c-1-0.2-1.8-0.9-2.2-1.8c-0.4-0.9-0.3-2,0.3-2.8l32.4-47.9l-36.9-30.8c-1.3-1.1-1.4-3-0.4-4.2c1.1-1.3,3-1.4,4.2-0.4
					l39,32.6c1.2,1,1.4,2.7,0.6,4l-31.4,46.4l19.3,3.9c0.8,0.2,1.6,0.7,2,1.4c0.4,0.7,0.5,1.6,0.2,2.5l-19.1,56.5l118.5,17.7
					c1,0.1,1.8,0.8,2.3,1.7c0.4,0.9,0.4,2-0.1,2.8l-16.1,27.6l34.3,40.2c0.8,0.9,0.9,2.1,0.5,3.2l-17.9,39.9l21.5,33.3
					c0.6,1,0.6,2.2,0,3.2L371.7,451C371.1,451.9,370.2,452.4,369.1,452.4z"/>
			</g>
			<g>
				<path class="st9" d="M372.5,447.5c-0.3,0-0.6,0-0.9-0.1l-69.4-22.8c-0.6-0.2-1.1-0.6-1.5-1l-20.5-27.3L260.9,420
					c-0.6,0.7-1.5,1.1-2.5,1.1c-0.9,0-1.8-0.5-2.3-1.3l-15.8-23c-0.4-0.5-0.5-1.1-0.5-1.8l1.3-56.3l-134,35.9
					c-1.2,0.3-2.4-0.1-3.2-1.1l-17.3-23.2c-0.5-0.7-0.7-1.6-0.5-2.4c0.2-0.8,0.7-1.6,1.5-2l22.6-12.9c1.4-0.8,3.3-0.3,4.1,1.1
					c0.8,1.4,0.3,3.3-1.1,4.1l-19.7,11.2l14,18.8l135.9-36.4c0.9-0.2,1.9,0,2.6,0.5c0.7,0.6,1.2,1.5,1.1,2.4l-1.4,59.3l13,18.9
					l19.2-23.6c0.6-0.7,1.5-1.2,2.4-1.1c0.9,0,1.8,0.5,2.3,1.2l22.3,29.6l66.2,21.8l37.3-60.6l-21.3-33.1c-0.5-0.9-0.6-1.9-0.2-2.9
					l17.8-39.6l-34.5-40.3c-0.8-1-1-2.4-0.3-3.5l15-25.6l-117.6-17.6c-0.9-0.1-1.7-0.6-2.1-1.4c-0.5-0.8-0.6-1.7-0.3-2.5l19.1-56.7
					l-20.4-4.1c-1-0.2-1.8-0.9-2.2-1.8c-0.4-0.9-0.3-2,0.3-2.8l32.4-47.9l-36.9-30.8c-1.3-1.1-1.4-3-0.4-4.2c1.1-1.3,3-1.4,4.2-0.4
					l39,32.6c1.2,1,1.4,2.7,0.6,4l-31.4,46.4l19.3,3.9c0.8,0.2,1.6,0.7,2,1.4c0.4,0.7,0.5,1.6,0.2,2.5l-19.1,56.5l118.5,17.7
					c1,0.1,1.8,0.8,2.3,1.7c0.4,0.9,0.4,2-0.1,2.8l-16.1,27.6l34.3,40.2c0.8,0.9,0.9,2.1,0.5,3.2l-17.9,39.9l21.5,33.3
					c0.6,1,0.6,2.2,0,3.2l-39.6,64.2C374.5,447,373.6,447.5,372.5,447.5z"/>
			</g>
			<g>
				<path class="st10" d="M372.5,447.5c-0.3,0-0.6,0-0.9-0.1l-69.4-22.8c-0.6-0.2-1.1-0.6-1.5-1l-20.5-27.3L260.9,420
					c-0.6,0.7-1.5,1.1-2.5,1.1c-0.9,0-1.8-0.5-2.3-1.3l-15.8-23c-0.4-0.5-0.5-1.1-0.5-1.8l1.3-56.3l-134,35.9
					c-1.2,0.3-2.4-0.1-3.2-1.1l-17.3-23.2c-0.5-0.7-0.7-1.6-0.5-2.4c0.2-0.8,0.7-1.6,1.5-2l22.6-12.9c1.4-0.8,3.3-0.3,4.1,1.1
					c0.8,1.4,0.3,3.3-1.1,4.1l-19.7,11.2l14,18.8l135.9-36.4c0.9-0.2,1.9,0,2.6,0.5c0.7,0.6,1.2,1.5,1.1,2.4l-1.4,59.3l13,18.9
					l19.2-23.6c0.6-0.7,1.5-1.2,2.4-1.1c0.9,0,1.8,0.5,2.3,1.2l22.3,29.6l66.2,21.8l37.3-60.6l-21.3-33.1c-0.5-0.9-0.6-1.9-0.2-2.9
					l17.8-39.6l-34.5-40.3c-1.1-1.3-0.9-3.2,0.3-4.2c1.3-1.1,3.2-0.9,4.2,0.3l35.7,41.8c0.8,0.9,0.9,2.1,0.5,3.2l-17.9,39.9
					l21.5,33.3c0.6,1,0.6,2.2,0,3.2l-39.6,64.2C374.5,447,373.6,447.5,372.5,447.5z"/>
			</g>
			<ellipse class="st11" cx="58" cy="161.1" rx="10.8" ry="3.4"/>
			<ellipse class="st11" cx="215.6" cy="217.1" rx="10.8" ry="3.4"/>
			<ellipse class="st11" cx="114.7" cy="326.1" rx="10.8" ry="3.4"/>
			<ellipse class="st11" cx="253.9" cy="64.8" rx="10.8" ry="3.4"/>
			<ellipse class="st11" cx="379.1" cy="73.2" rx="10.8" ry="3.4"/>
			<ellipse class="st11" cx="465.5" cy="418.1" rx="10.8" ry="3.4"/>
			<g>
				<g>
					<circle class="st12" cx="379.1" cy="47.6" r="14.5"/>
					<polygon class="st12" points="379.1,73.2 367.6,56.4 390.6,56.4 					"/>
					<circle class="st3" cx="379.1" cy="47.6" r="9.2"/>
				</g>
			</g>
			<g>
				<g>
					<circle class="st12" cx="465.5" cy="392.3" r="14.5"/>
					<polygon class="st12" points="465.5,417.9 454,401.1 477.1,401.1 					"/>
					<circle class="st3" cx="465.5" cy="392.3" r="9.2"/>
				</g>
			</g>
			<g>
				<g>
					<circle class="st12" cx="215.6" cy="190.4" r="14.5"/>
					<polygon class="st12" points="215.6,216 204,199.2 227.1,199.2 					"/>
					<circle class="st3" cx="215.6" cy="190.4" r="9.2"/>
				</g>
			</g>
			<g>
				<g>
					<circle class="st13" cx="254.1" cy="38.7" r="14.5"/>
					<polygon class="st13" points="254.1,64.3 242.6,47.4 265.7,47.4 					"/>
					<circle class="st3" cx="254.1" cy="38.7" r="9.2"/>
				</g>
			</g>
			<g>
				<g>
					<circle class="st13" cx="114.7" cy="295.4" r="16.9"/>
					<polygon class="st13" points="114.7,325.3 101.3,305.6 128.1,305.6 					"/>
					<circle class="st3" cx="114.7" cy="295.4" r="10.7"/>
				</g>
			</g>
			<g>
				<g>
					<circle class="st12" cx="58" cy="135.5" r="14.5"/>
					<polygon class="st12" points="58,161.1 46.5,144.2 69.6,144.2 					"/>
					<circle class="st3" cx="58" cy="135.5" r="9.2"/>
				</g>
				<g>
					<path class="st12" d="M54.6,137c-0.4,0-0.7,0.1-0.9,0.4c-0.3,0.3-0.4,0.6-0.4,0.9c0,0.4,0.1,0.7,0.4,0.9
						c0.2,0.3,0.5,0.4,0.9,0.4c0.4,0,0.7-0.1,0.9-0.4c0.2-0.3,0.4-0.6,0.4-0.9c0-0.4-0.1-0.7-0.4-0.9C55.2,137.1,54.9,137,54.6,137z
						"/>
					<path class="st12" d="M54,133.1l-0.7,1.7h-0.3c-0.5,0-0.7,0.2-0.7,0.6v3.6h0.7v-0.6c0-0.4,0.2-0.8,0.5-1.1
						c0.3-0.3,0.7-0.5,1.1-0.5c0.6,0,1,0.3,1.3,0.8v-4.7h-1.3C54.3,132.7,54.1,132.8,54,133.1z"/>
					<path class="st12" d="M61.9,137c-0.4,0-0.7,0.1-0.9,0.4c-0.2,0.3-0.4,0.6-0.4,0.9c0,0.4,0.1,0.7,0.4,0.9
						c0.2,0.3,0.5,0.4,0.9,0.4c0.3,0,0.6-0.1,0.9-0.4c0.3-0.3,0.4-0.6,0.4-0.9c0-0.4-0.1-0.7-0.4-0.9C62.5,137.1,62.2,137,61.9,137z
						"/>
					<path class="st12" d="M56.1,131.4v7.4h4.2l0-0.6c0-0.4,0.2-0.8,0.5-1.1c0.3-0.3,0.7-0.5,1.1-0.5c0.4,0,0.8,0.2,1.1,0.5
						c0.3,0.3,0.5,0.7,0.5,1.1v0.6h0.3v-7.4H56.1z"/>
				</g>
			</g>
			<g>
				
					<ellipse transform="matrix(0.3656 -0.9308 0.9308 0.3656 -14.8697 537.0899)" class="st14" cx="386.6" cy="279.5" rx="25" ry="25"/>
				<g>
					<polygon class="st13" points="405.6,282 391,284.1 386.8,298.3 372.9,263.3 					"/>
					<polygon class="st13" points="405.6,282 391,284.1 386.8,298.3 387.1,279.6 					"/>
					<polygon class="st14" points="405.6,282 372.9,263.3 387.1,279.6 					"/>
				</g>
			</g>
			<g>
				<path class="st13" d="M352.6,65.6c0,2.8-2.2,5-5,5h-71.5c-2.8,0-5-2.2-5-5v-9.1c0-2.8,2.2-5,5-5h71.5c2.8,0,5,2.2,5,5V65.6z"/>
				<text transform="matrix(1 0 0 1 282.042 65.0464)" class="st3 st15 st16">3KM 150M</text>
			</g>
		</g>
	</g>
	<path class="st3" d="M58.4,145.1h-1.6c-5.6,0-10.2-4.6-10.2-10.2v0c0-5.6,4.6-10.2,10.2-10.2h1.6c5.6,0,10.2,4.6,10.2,10.2v0
		C68.6,140.5,64,145.1,58.4,145.1z"/>
	<text transform="matrix(1.0763 0 0 1 53.5278 138.6082)" class="st17 st18 st19">A</text>
	<text transform="matrix(1 0 0 1 211.833 194.8334)" class="st17 st18 st20">A</text>
	<text transform="matrix(1 0 0 1 373.2217 51.953)" class="st21 st18 st22">AB</text>
	<text transform="matrix(1 0 0 1 459.8887 396.6194)" class="st21 st18 st22">AB</text>
	<text transform="matrix(1 0 0 1 248.8705 42.9911)" class="st23 st18 st20">B-</text>
	<text transform="matrix(1 0 0 1 110.5556 299.2862)" class="st23 st18 st20">B-</text>
</g>
<g id="DESIGNED_BY_FREEPIK" class="st24">
	<g class="st25">
		<path class="st26" d="M178.6,480.1c-0.3,0-0.4,0.1-0.6,0.3c-0.1,0.2-0.2,0.4-0.2,0.8v2.5c-0.3-0.3-0.6-0.6-1-0.8
			c-0.3-0.2-0.7-0.2-1.2-0.2c-0.8,0-1.5,0.3-2,0.9c-0.5,0.6-0.8,1.4-0.8,2.5c0,0.5,0.1,1,0.2,1.4c0.1,0.4,0.3,0.8,0.6,1.1
			c0.2,0.3,0.5,0.6,0.9,0.7c0.3,0.2,0.7,0.3,1.1,0.3c0.3,0,0.6,0,0.8-0.1c0.3-0.1,0.5-0.2,0.7-0.4c0.2-0.2,0.4-0.4,0.7-0.6v0.2
			c0,0.3,0.1,0.5,0.2,0.7c0.2,0.2,0.3,0.2,0.6,0.2c0.2,0,0.4-0.1,0.6-0.2c0.1-0.2,0.2-0.4,0.2-0.7v-7.4c0-0.3-0.1-0.6-0.2-0.7
			C179.1,480.2,178.9,480.1,178.6,480.1z M177.5,487.2c-0.1,0.3-0.3,0.6-0.6,0.7c-0.2,0.2-0.5,0.2-0.8,0.2c-0.3,0-0.6-0.1-0.8-0.2
			c-0.2-0.2-0.4-0.4-0.6-0.7c-0.1-0.3-0.2-0.7-0.2-1.2c0-0.4,0.1-0.8,0.2-1.1c0.1-0.3,0.3-0.6,0.6-0.7c0.2-0.2,0.5-0.3,0.8-0.3
			c0.3,0,0.6,0.1,0.8,0.3c0.2,0.2,0.4,0.4,0.6,0.7c0.2,0.3,0.2,0.7,0.2,1.2C177.7,486.5,177.7,486.9,177.5,487.2z"/>
		<path class="st26" d="M186.3,486.2c0.2-0.1,0.4-0.4,0.4-0.8c0-0.5-0.1-0.9-0.4-1.3c-0.2-0.4-0.6-0.8-1.1-1.1
			c-0.5-0.3-1-0.4-1.7-0.4c-0.5,0-1,0.1-1.4,0.2c-0.4,0.2-0.8,0.4-1.1,0.7c-0.3,0.3-0.5,0.7-0.6,1.1c-0.2,0.4-0.2,0.9-0.2,1.4
			c0,1,0.3,1.9,0.9,2.5c0.6,0.6,1.4,0.9,2.5,0.9c0.5,0,0.9-0.1,1.3-0.2c0.4-0.1,0.7-0.3,0.9-0.5c0.2-0.2,0.4-0.4,0.5-0.6
			c0.1-0.2,0.2-0.4,0.2-0.5c0-0.2,0-0.3-0.2-0.4c-0.1-0.1-0.2-0.1-0.4-0.1c-0.2,0-0.3,0-0.4,0.1c-0.2,0.2-0.4,0.4-0.5,0.5
			c-0.1,0.1-0.3,0.2-0.4,0.3c-0.2,0.1-0.3,0.2-0.5,0.2c-0.2,0-0.3,0.1-0.5,0.1c-0.3,0-0.6-0.1-0.8-0.2c-0.2-0.1-0.4-0.4-0.6-0.7
			c-0.2-0.3-0.2-0.6-0.2-1h3.3C185.7,486.4,186,486.4,186.3,486.2z M181.9,485.5c0.1-0.6,0.2-1,0.5-1.3c0.3-0.3,0.6-0.4,1-0.4
			c0.4,0,0.8,0.1,1.1,0.4c0.3,0.3,0.4,0.7,0.5,1.3H181.9z"/>
		<path class="st26" d="M191.9,485.8c-0.3-0.2-0.8-0.3-1.3-0.5c-0.4-0.1-0.8-0.2-1-0.3c-0.3-0.1-0.4-0.2-0.6-0.3
			c-0.1-0.1-0.2-0.3-0.2-0.4c0-0.2,0.1-0.4,0.3-0.5c0.2-0.1,0.5-0.2,0.8-0.2c0.3,0,0.5,0,0.7,0.2c0.2,0.1,0.3,0.2,0.4,0.4
			c0.2,0.2,0.3,0.3,0.4,0.4c0.1,0.1,0.3,0.2,0.4,0.2c0.2,0,0.4-0.1,0.6-0.2c0.1-0.1,0.2-0.3,0.2-0.5c0-0.2-0.1-0.4-0.2-0.5
			c-0.1-0.2-0.3-0.4-0.5-0.5c-0.2-0.2-0.5-0.3-0.9-0.4c-0.3-0.1-0.7-0.1-1.2-0.1c-0.6,0-1,0.1-1.4,0.3c-0.4,0.2-0.7,0.4-0.9,0.7
			c-0.2,0.3-0.3,0.6-0.3,1c0,0.4,0.1,0.7,0.3,1c0.2,0.3,0.5,0.5,0.9,0.6c0.4,0.2,0.8,0.3,1.4,0.4c0.5,0.1,0.9,0.3,1.1,0.4
			c0.2,0.1,0.3,0.4,0.3,0.6c0,0.2-0.1,0.4-0.3,0.5c-0.2,0.2-0.5,0.2-0.8,0.2c-0.4,0-0.7-0.1-1-0.2c-0.2-0.2-0.4-0.4-0.6-0.7
			c-0.1-0.2-0.2-0.3-0.3-0.4c-0.1-0.1-0.2-0.1-0.4-0.1c-0.2,0-0.4,0.1-0.5,0.2c-0.1,0.1-0.2,0.3-0.2,0.5c0,0.3,0.1,0.6,0.3,0.8
			c0.2,0.3,0.5,0.5,1,0.7c0.4,0.2,0.9,0.3,1.5,0.3c0.6,0,1.2-0.1,1.6-0.3c0.4-0.2,0.8-0.4,1-0.8c0.2-0.3,0.3-0.7,0.3-1.2
			c0-0.3-0.1-0.6-0.2-0.8C192.5,486.2,192.2,486,191.9,485.8z"/>
		<path class="st26" d="M194.6,480.2c-0.2,0-0.4,0.1-0.6,0.2c-0.2,0.2-0.3,0.3-0.3,0.6c0,0.3,0.1,0.5,0.2,0.6
			c0.2,0.1,0.4,0.2,0.6,0.2c0.2,0,0.4-0.1,0.6-0.2c0.2-0.2,0.2-0.4,0.2-0.6c0-0.3-0.1-0.5-0.3-0.6
			C195,480.3,194.8,480.2,194.6,480.2z"/>
		<path class="st26" d="M194.6,482.6c-0.2,0-0.4,0.1-0.6,0.3c-0.2,0.2-0.2,0.4-0.2,0.7v4.8c0,0.3,0.1,0.6,0.2,0.8
			c0.2,0.2,0.4,0.3,0.6,0.3c0.2,0,0.4-0.1,0.6-0.3c0.2-0.2,0.2-0.4,0.2-0.8v-4.9c0-0.3-0.1-0.5-0.2-0.7
			C195,482.7,194.8,482.6,194.6,482.6z"/>
		<path class="st26" d="M202,482.6c-0.2,0-0.4,0.1-0.6,0.2c-0.1,0.2-0.2,0.4-0.2,0.7v0.2c-0.3-0.4-0.6-0.7-1-0.9
			c-0.3-0.2-0.8-0.3-1.2-0.3c-0.4,0-0.8,0.1-1.1,0.2c-0.3,0.1-0.6,0.3-0.9,0.6c-0.2,0.3-0.5,0.6-0.6,1c-0.1,0.4-0.2,0.9-0.2,1.4
			c0,0.7,0.1,1.3,0.3,1.8c0.2,0.5,0.5,0.9,1,1.2c0.4,0.3,0.9,0.4,1.5,0.4c0.5,0,0.9-0.1,1.2-0.3c0.3-0.2,0.6-0.5,0.9-0.8
			c0,0.5,0,0.9,0,1.2c0,0.2-0.1,0.5-0.2,0.7c-0.1,0.2-0.3,0.4-0.5,0.5c-0.2,0.1-0.6,0.2-1,0.2c-0.2,0-0.4,0-0.6-0.1
			c-0.2,0-0.3-0.1-0.4-0.2c-0.1-0.1-0.2-0.2-0.3-0.3c-0.1-0.1-0.2-0.2-0.3-0.3c-0.2-0.2-0.4-0.3-0.6-0.3c-0.2,0-0.4,0.1-0.5,0.2
			c-0.1,0.1-0.2,0.3-0.2,0.5c0,0.3,0.1,0.5,0.4,0.8c0.2,0.3,0.6,0.5,1,0.6c0.5,0.2,1,0.2,1.6,0.2c0.6,0,1.2-0.1,1.6-0.2
			c0.4-0.1,0.8-0.3,1-0.6c0.3-0.3,0.5-0.6,0.6-1c0.1-0.4,0.2-0.9,0.2-1.4v-4.9c0-0.4-0.1-0.7-0.2-0.9
			C202.5,482.7,202.3,482.6,202,482.6z M200.9,487.1c-0.2,0.3-0.4,0.5-0.6,0.7c-0.2,0.2-0.5,0.2-0.8,0.2c-0.5,0-0.9-0.2-1.2-0.5
			c-0.3-0.3-0.4-0.9-0.4-1.5c0-0.7,0.1-1.2,0.4-1.6c0.3-0.4,0.7-0.6,1.2-0.6c0.5,0,0.9,0.2,1.2,0.6c0.3,0.4,0.5,0.9,0.5,1.6
			C201.1,486.5,201.1,486.8,200.9,487.1z"/>
		<path class="st26" d="M209.6,483.7c-0.2-0.4-0.4-0.6-0.8-0.8c-0.3-0.2-0.7-0.3-1.2-0.3c-0.5,0-0.9,0.1-1.2,0.3
			c-0.1,0-0.2,0.1-0.3,0.2c-0.2,0.2-0.5,0.4-0.7,0.7v-0.2c0-0.2,0-0.4-0.1-0.5c-0.1-0.1-0.2-0.2-0.3-0.3c-0.1-0.1-0.3-0.1-0.4-0.1
			c-0.2,0-0.4,0.1-0.6,0.2c-0.1,0.2-0.2,0.4-0.2,0.7v4.9c0,0.3,0.1,0.6,0.2,0.8c0.2,0.2,0.4,0.3,0.6,0.3c0.2,0,0.5-0.1,0.6-0.3
			c0.2-0.2,0.2-0.4,0.2-0.8v-2.1c0-0.7,0-1.2,0.1-1.4c0.1-0.3,0.3-0.6,0.5-0.7c0.2-0.2,0.5-0.3,0.8-0.3c0.5,0,0.8,0.1,0.9,0.4
			c0.2,0.3,0.2,0.7,0.2,1.3v2.8c0,0.3,0.1,0.6,0.2,0.8c0.2,0.2,0.4,0.3,0.6,0.3c0.2,0,0.4-0.1,0.6-0.3c0.2-0.2,0.2-0.4,0.2-0.8v-3.1
			c0-0.4,0-0.7-0.1-0.9C209.8,484.1,209.7,483.9,209.6,483.7z"/>
		<path class="st26" d="M216.7,486.2c0.2-0.1,0.4-0.4,0.4-0.8c0-0.5-0.1-0.9-0.4-1.3c-0.2-0.4-0.6-0.8-1.1-1.1
			c-0.5-0.3-1-0.4-1.7-0.4c-0.5,0-1,0.1-1.4,0.2c-0.4,0.2-0.8,0.4-1,0.7c-0.3,0.3-0.5,0.7-0.6,1.1c-0.1,0.4-0.2,0.9-0.2,1.4
			c0,1,0.3,1.9,0.9,2.5c0.6,0.6,1.4,0.9,2.5,0.9c0.5,0,0.9-0.1,1.3-0.2c0,0,0,0,0,0c0.3-0.1,0.6-0.3,0.9-0.4
			c0.2-0.2,0.4-0.4,0.5-0.6c0.1-0.2,0.2-0.4,0.2-0.5c0-0.2-0.1-0.3-0.2-0.4c-0.1-0.1-0.2-0.1-0.4-0.1c-0.2,0-0.3,0-0.4,0.1
			c-0.2,0.2-0.4,0.4-0.5,0.5c-0.1,0.1-0.3,0.2-0.4,0.3c-0.2,0.1-0.3,0.2-0.5,0.2c-0.2,0-0.3,0.1-0.5,0.1h0c0,0,0,0,0,0
			c-0.3,0-0.6-0.1-0.8-0.2c-0.2-0.1-0.4-0.4-0.6-0.7c0-0.1-0.1-0.1-0.1-0.2v0c-0.1-0.2-0.2-0.5-0.2-0.8h3.3
			C216.1,486.4,216.4,486.4,216.7,486.2z M212.4,485.5c0.1-0.6,0.2-1,0.5-1.3c0.3-0.3,0.6-0.4,1-0.4c0.4,0,0.8,0.1,1.1,0.4
			c0.3,0.3,0.4,0.7,0.5,1.3H212.4z"/>
		<path class="st26" d="M223.3,480.1c-0.3,0-0.5,0.1-0.6,0.3c-0.1,0.2-0.2,0.4-0.2,0.8v2.5c-0.3-0.3-0.6-0.6-1-0.8
			c-0.3-0.2-0.7-0.2-1.2-0.2c-0.8,0-1.5,0.3-2,0.9c-0.5,0.6-0.8,1.4-0.8,2.5c0,0.5,0.1,1,0.2,1.4c0.1,0.4,0.3,0.8,0.6,1.1
			c0.2,0.3,0.5,0.6,0.9,0.7c0.3,0.2,0.7,0.3,1.1,0.3c0.3,0,0.6,0,0.8-0.1c0.3-0.1,0.5-0.2,0.7-0.4c0.2-0.2,0.4-0.4,0.7-0.6v0.2
			c0,0.3,0.1,0.5,0.2,0.7c0.2,0.2,0.3,0.2,0.6,0.2c0.2,0,0.4-0.1,0.6-0.2c0.2-0.2,0.2-0.4,0.2-0.7v-7.4c0-0.3-0.1-0.6-0.2-0.7
			C223.7,480.2,223.5,480.1,223.3,480.1z M222.2,487.2c-0.1,0.3-0.3,0.6-0.6,0.7c-0.2,0.2-0.5,0.2-0.8,0.2c-0.3,0-0.6-0.1-0.8-0.2
			c-0.2-0.2-0.4-0.4-0.6-0.7c-0.1-0.3-0.2-0.7-0.2-1.2c0-0.4,0.1-0.8,0.2-1.1c0.1-0.3,0.3-0.6,0.6-0.7c0.2-0.2,0.5-0.3,0.8-0.3
			c0.3,0,0.6,0.1,0.8,0.3c0.2,0.2,0.4,0.4,0.6,0.7c0.1,0.3,0.2,0.7,0.2,1.2C222.4,486.5,222.3,486.9,222.2,487.2z"/>
		<path class="st26" d="M234,484.2c-0.2-0.5-0.6-0.9-1-1.1c-0.4-0.3-0.9-0.4-1.5-0.4c-0.5,0-0.9,0.1-1.2,0.3c-0.3,0.2-0.6,0.4-1,0.8
			v-2.6c0-0.3-0.1-0.5-0.2-0.7c-0.1-0.2-0.3-0.2-0.6-0.2c-0.2,0-0.4,0.1-0.6,0.3c-0.1,0.2-0.2,0.4-0.2,0.8v7.3
			c0,0.3,0.1,0.6,0.2,0.7c0.1,0.2,0.3,0.2,0.6,0.2c0.2,0,0.4-0.1,0.6-0.2c0.2-0.2,0.2-0.4,0.2-0.7v-0.2c0.2,0.2,0.3,0.4,0.4,0.5
			c0.1,0.1,0.2,0.2,0.4,0.3c0.2,0.1,0.4,0.2,0.6,0.2c0.2,0.1,0.5,0.1,0.7,0.1c0.4,0,0.8-0.1,1.2-0.3c0.3-0.2,0.6-0.4,0.9-0.7
			c0.2-0.3,0.4-0.7,0.6-1.1c0.1-0.4,0.2-0.9,0.2-1.4C234.3,485.3,234.2,484.7,234,484.2z M232.2,487.6c-0.3,0.4-0.7,0.6-1.1,0.6
			c-0.5,0-0.9-0.2-1.2-0.5c-0.3-0.4-0.5-0.9-0.5-1.5c0-0.4,0.1-0.8,0.2-1.2c0.1-0.3,0.3-0.6,0.6-0.8c0.3-0.2,0.5-0.3,0.9-0.3
			c0.3,0,0.6,0.1,0.8,0.3c0.2,0.2,0.4,0.4,0.5,0.7c0.1,0.3,0.2,0.7,0.2,1.1C232.6,486.7,232.5,487.2,232.2,487.6z"/>
		<path class="st26" d="M240.2,482.7c-0.1-0.1-0.2-0.1-0.4-0.1c-0.2,0-0.3,0-0.4,0.1c-0.1,0.1-0.2,0.2-0.3,0.4
			c-0.1,0.2-0.2,0.4-0.3,0.7l-1.3,3.8l-1.4-4.1c-0.1-0.3-0.2-0.5-0.3-0.7c-0.1-0.2-0.3-0.2-0.5-0.2c-0.1,0-0.3,0-0.4,0.1
			c-0.1,0.1-0.2,0.2-0.3,0.3c-0.1,0.1-0.1,0.2-0.1,0.4c0,0.1,0.1,0.4,0.2,0.7l2.1,5.2l-0.2,0.4c-0.1,0.3-0.2,0.5-0.3,0.6
			c-0.1,0.1-0.2,0.2-0.3,0.3c-0.1,0.1-0.3,0.1-0.4,0.1c-0.1,0-0.2,0-0.3,0c-0.1,0-0.2,0-0.3,0c-0.2,0-0.4,0.1-0.5,0.2
			c-0.1,0.1-0.2,0.2-0.2,0.4c0,0.3,0.1,0.5,0.4,0.6c0.2,0.1,0.6,0.2,1.1,0.2c0.5,0,0.9-0.1,1.2-0.2c0.3-0.2,0.5-0.4,0.7-0.7
			c0.2-0.3,0.4-0.7,0.6-1.2l2.2-5.7c0-0.2,0.1-0.3,0.1-0.4c0-0.1,0.1-0.3,0.1-0.3c0-0.1,0-0.2-0.1-0.4
			C240.4,482.9,240.3,482.8,240.2,482.7z"/>
		<path class="st26" d="M263,481.6c0.1-0.2,0.3-0.3,0.6-0.3c0.1,0,0.2,0,0.4,0c0.2,0,0.3,0,0.3,0c0.1,0,0.3-0.1,0.4-0.2
			c0.1-0.1,0.2-0.2,0.2-0.4c0-0.5-0.5-0.7-1.5-0.7c-0.6,0-1,0.1-1.3,0.2c-0.3,0.1-0.5,0.4-0.7,0.7c-0.1,0.3-0.2,0.7-0.2,1.3v0.5
			h-0.4c-0.6,0-0.8,0.2-0.8,0.6c0,0.2,0.1,0.3,0.2,0.4c0.1,0.1,0.3,0.2,0.6,0.2h0.5v4.4c0,0.3,0.1,0.6,0.2,0.8
			c0.2,0.2,0.4,0.3,0.6,0.3c0.3,0,0.5-0.1,0.6-0.3c0.2-0.2,0.2-0.4,0.2-0.8V484h0.4c0.3,0,0.5,0,0.7-0.1c0.2-0.1,0.3-0.2,0.3-0.5
			c0-0.4-0.3-0.6-1-0.6h-0.4v-0.4C262.9,482,262.9,481.8,263,481.6z"/>
		<path class="st26" d="M269.2,483.6c0-0.3-0.2-0.5-0.5-0.7c-0.3-0.2-0.7-0.3-1-0.3c-0.4,0-0.6,0.1-0.8,0.3
			c-0.2,0.2-0.4,0.4-0.6,0.8c0-0.3-0.1-0.6-0.2-0.8c-0.1-0.2-0.3-0.3-0.6-0.3c-0.5,0-0.8,0.4-0.8,1.1v4.7c0,0.3,0.1,0.6,0.2,0.8
			c0.2,0.2,0.4,0.3,0.6,0.3c0.2,0,0.4-0.1,0.6-0.3c0.2-0.2,0.2-0.4,0.2-0.8V487c0-0.5,0-0.9,0-1.3c0-0.3,0.1-0.7,0.2-0.9
			c0.1-0.3,0.2-0.4,0.4-0.6c0.2-0.1,0.4-0.2,0.6-0.2c0.2,0,0.4,0,0.6,0.1c0.2,0.1,0.4,0.1,0.4,0.1c0.2,0,0.3-0.1,0.5-0.2
			C269.2,483.9,269.2,483.8,269.2,483.6z"/>
		<path class="st26" d="M275,486.2c0.2-0.1,0.4-0.4,0.4-0.8c0-0.5-0.1-0.9-0.4-1.3c-0.2-0.4-0.6-0.8-1-1.1c-0.5-0.3-1-0.4-1.7-0.4
			c-0.5,0-1,0.1-1.4,0.2c-0.4,0.2-0.8,0.4-1,0.7c-0.3,0.3-0.5,0.7-0.6,1.1c-0.2,0.4-0.2,0.9-0.2,1.4c0,1,0.3,1.9,0.9,2.5
			c0.6,0.6,1.4,0.9,2.5,0.9c0.5,0,0.9-0.1,1.3-0.2c0.4-0.1,0.7-0.3,0.9-0.5c0.2-0.2,0.4-0.4,0.5-0.6c0.1-0.2,0.2-0.4,0.2-0.5
			c0-0.2-0.1-0.3-0.2-0.4s-0.2-0.1-0.4-0.1c-0.2,0-0.3,0-0.4,0.1c-0.2,0.2-0.4,0.4-0.5,0.5c-0.1,0.1-0.3,0.2-0.4,0.3
			c-0.2,0.1-0.3,0.2-0.5,0.2c-0.2,0.1-0.4,0.1-0.6,0.1c-0.3,0-0.6-0.1-0.8-0.2c-0.2-0.2-0.4-0.4-0.6-0.7c-0.1-0.3-0.2-0.6-0.2-1h3.3
			C274.5,486.4,274.8,486.4,275,486.2z M270.7,485.5c0.1-0.6,0.2-1,0.5-1.3c0.3-0.3,0.6-0.4,1-0.4c0.5,0,0.8,0.1,1.1,0.4
			c0.3,0.3,0.4,0.7,0.5,1.3H270.7z"/>
		<path class="st26" d="M282,486.2c0.2-0.1,0.4-0.4,0.4-0.8c0-0.5-0.1-0.9-0.4-1.3c-0.2-0.4-0.6-0.8-1.1-1.1c-0.5-0.3-1-0.4-1.7-0.4
			c-0.5,0-1,0.1-1.4,0.2c-0.4,0.2-0.8,0.4-1,0.7c-0.3,0.3-0.5,0.7-0.6,1.1c-0.2,0.4-0.2,0.9-0.2,1.4c0,1,0.3,1.9,0.9,2.5
			c0.6,0.6,1.4,0.9,2.5,0.9c0.5,0,0.9-0.1,1.3-0.2c0.4-0.1,0.7-0.3,0.9-0.5c0.2-0.2,0.4-0.4,0.5-0.6c0.1-0.2,0.2-0.4,0.2-0.5
			c0-0.2,0-0.3-0.2-0.4c-0.1-0.1-0.2-0.1-0.4-0.1c-0.2,0-0.3,0-0.4,0.1c-0.2,0.2-0.4,0.4-0.5,0.5c-0.1,0.1-0.3,0.2-0.4,0.3
			c-0.2,0.1-0.3,0.2-0.5,0.2c-0.2,0.1-0.3,0.1-0.5,0.1c-0.3,0-0.6-0.1-0.8-0.2c-0.2-0.2-0.4-0.4-0.6-0.7c-0.2-0.3-0.2-0.6-0.2-1h3.3
			C281.4,486.4,281.8,486.4,282,486.2z M277.7,485.5c0.1-0.6,0.2-1,0.5-1.3c0.3-0.3,0.6-0.4,1-0.4c0.4,0,0.8,0.1,1.1,0.4
			c0.3,0.3,0.4,0.7,0.5,1.3H277.7z"/>
		<path class="st26" d="M289.3,484.2c-0.3-0.5-0.6-0.9-1-1.2c-0.4-0.3-0.9-0.4-1.4-0.4c-0.4,0-0.8,0.1-1.1,0.3
			c-0.3,0.2-0.7,0.5-1,0.9v-0.2c0-0.3-0.1-0.5-0.2-0.7c-0.2-0.2-0.3-0.2-0.6-0.2c-0.2,0-0.4,0.1-0.6,0.2c-0.1,0.2-0.2,0.4-0.2,0.7
			v7.2c0,0.4,0.1,0.6,0.2,0.8c0.1,0.2,0.3,0.3,0.6,0.3c0.5,0,0.8-0.4,0.8-1.1v-2.5c0.2,0.2,0.3,0.4,0.5,0.5c0.1,0.1,0.3,0.2,0.4,0.3
			c0.3,0.2,0.7,0.3,1.2,0.3c0.4,0,0.8-0.1,1.1-0.2c0.4-0.2,0.7-0.4,0.9-0.7c0.2-0.3,0.4-0.7,0.6-1.1c0.1-0.4,0.2-0.9,0.2-1.4
			c0-0.1,0-0.1,0-0.2C289.6,485.2,289.5,484.6,289.3,484.2z M287.8,487c0,0,0,0.1,0,0.1c-0.1,0.3-0.3,0.6-0.6,0.7
			c-0.2,0.2-0.5,0.2-0.8,0.2c-0.1,0-0.1,0-0.2,0c-0.4,0-0.7-0.2-1-0.5c-0.3-0.4-0.5-0.9-0.5-1.6c0-0.7,0.2-1.2,0.5-1.6
			c0.3-0.4,0.7-0.5,1.2-0.5c0.3,0,0.6,0.1,0.8,0.3c0.2,0.2,0.4,0.4,0.6,0.7c0.1,0.3,0.2,0.7,0.2,1.1
			C288,486.4,287.9,486.7,287.8,487z"/>
		<path class="st26" d="M291.3,482.6c-0.2,0-0.4,0.1-0.6,0.2c-0.2,0.2-0.2,0.4-0.2,0.8v4.8c0,0.3,0.1,0.6,0.2,0.8
			c0.2,0.2,0.4,0.3,0.6,0.3c0.2,0,0.4-0.1,0.6-0.3c0.2-0.2,0.2-0.4,0.2-0.8v-4.9c0-0.3-0.1-0.5-0.2-0.7
			C291.8,482.7,291.6,482.6,291.3,482.6z"/>
		<path class="st26" d="M291.3,480.2c-0.2,0-0.4,0.1-0.6,0.2c-0.2,0.2-0.3,0.4-0.3,0.6c0,0.3,0.1,0.5,0.3,0.6
			c0.2,0.1,0.4,0.2,0.6,0.2c0.2,0,0.4-0.1,0.6-0.2c0.2-0.1,0.2-0.3,0.2-0.6c0-0.3-0.1-0.5-0.2-0.6
			C291.8,480.2,291.6,480.2,291.3,480.2z"/>
		<path class="st26" d="M298.9,487.8l-1.7-2.7l0.9-0.8c0.5-0.4,0.7-0.7,0.7-1c0-0.2-0.1-0.4-0.2-0.5c-0.1-0.1-0.3-0.2-0.5-0.2
			c-0.2,0-0.3,0-0.4,0.1c-0.1,0.1-0.3,0.3-0.5,0.5l-1.9,2v-4.1c0-0.3-0.1-0.6-0.2-0.8c-0.2-0.2-0.4-0.3-0.6-0.3
			c-0.3,0-0.5,0.1-0.6,0.3c-0.1,0.2-0.2,0.5-0.2,0.8v7.2c0,0.3,0.1,0.6,0.2,0.8c0.1,0.2,0.4,0.3,0.6,0.3c0.2,0,0.4-0.1,0.6-0.3
			c0.2-0.2,0.3-0.4,0.3-0.7v-1.3l0.9-0.9l1.5,2.4c0.2,0.3,0.3,0.5,0.5,0.6c0.1,0.1,0.3,0.2,0.5,0.2c0.2,0,0.4-0.1,0.6-0.2
			c0.1-0.2,0.2-0.4,0.2-0.6c0-0.1,0-0.2-0.1-0.3C299.2,488.2,299.1,488,298.9,487.8z"/>
		<path class="st26" d="M301.2,487.6c-0.3,0-0.5,0.1-0.7,0.3c-0.2,0.2-0.3,0.4-0.3,0.6c0,0.3,0.1,0.5,0.3,0.7
			c0.2,0.2,0.4,0.2,0.7,0.2c0.2,0,0.5-0.1,0.6-0.3c0.2-0.2,0.3-0.4,0.3-0.7c0-0.3-0.1-0.5-0.3-0.6
			C301.7,487.7,301.5,487.6,301.2,487.6z"/>
		<path class="st26" d="M308.9,486.6c-0.2,0-0.3,0.1-0.4,0.2c-0.1,0.1-0.2,0.3-0.3,0.4c-0.2,0.3-0.4,0.6-0.6,0.7
			c-0.2,0.2-0.5,0.2-0.9,0.2c-0.2,0-0.5,0-0.7-0.1c-0.2-0.1-0.4-0.2-0.5-0.4c-0.1-0.2-0.3-0.4-0.3-0.7c-0.1-0.3-0.1-0.6-0.1-0.9
			c0-0.7,0.2-1.2,0.5-1.6c0.3-0.4,0.7-0.6,1.2-0.6c0.3,0,0.6,0.1,0.8,0.2c0.2,0.2,0.4,0.4,0.6,0.7c0.1,0.2,0.2,0.3,0.3,0.4
			c0.1,0.1,0.2,0.1,0.4,0.1c0.2,0,0.4-0.1,0.5-0.2c0.1-0.1,0.2-0.3,0.2-0.5c0-0.2-0.1-0.4-0.2-0.6c-0.1-0.2-0.3-0.4-0.6-0.6
			c-0.3-0.2-0.6-0.4-0.9-0.5c-0.4-0.1-0.8-0.2-1.2-0.2c-0.7,0-1.3,0.1-1.8,0.4c-0.5,0.3-0.9,0.7-1.2,1.2c-0.3,0.5-0.4,1.1-0.4,1.8
			c0,1,0.3,1.8,0.9,2.4c0.6,0.6,1.4,0.9,2.4,0.9c0.5,0,0.9-0.1,1.3-0.2c0.4-0.1,0.7-0.3,1-0.5c0.3-0.2,0.4-0.4,0.6-0.7
			c0.1-0.2,0.2-0.5,0.2-0.7c0-0.2-0.1-0.3-0.2-0.5C309.2,486.7,309.1,486.6,308.9,486.6z"/>
		<path class="st26" d="M315.9,483.5c-0.3-0.3-0.7-0.5-1.1-0.7c-0.4-0.2-0.9-0.2-1.4-0.2c-0.5,0-1,0.1-1.4,0.2
			c-0.4,0.2-0.8,0.4-1.1,0.7c-0.3,0.3-0.5,0.7-0.7,1.1c-0.2,0.4-0.2,0.9-0.2,1.4c0,0.5,0.1,1,0.2,1.4c0.2,0.4,0.4,0.8,0.7,1.1
			c0.3,0.3,0.7,0.5,1.1,0.7c0.4,0.2,0.9,0.2,1.4,0.2c0.5,0,1-0.1,1.4-0.2c0.4-0.2,0.8-0.4,1.1-0.7c0.3-0.3,0.5-0.7,0.7-1.1
			c0.2-0.4,0.2-0.9,0.2-1.4c0-0.5-0.1-1-0.2-1.4C316.4,484.2,316.2,483.9,315.9,483.5z M314.7,487.6c-0.3,0.4-0.7,0.6-1.2,0.6
			c-0.3,0-0.6-0.1-0.9-0.3c-0.2-0.2-0.4-0.4-0.6-0.8c-0.1-0.3-0.2-0.7-0.2-1.1c0-0.4,0.1-0.8,0.2-1.2c0.1-0.3,0.3-0.6,0.6-0.8
			c0.2-0.2,0.5-0.2,0.9-0.2c0.5,0,0.9,0.2,1.2,0.6c0.3,0.4,0.4,0.9,0.4,1.6C315.1,486.7,315,487.2,314.7,487.6z"/>
		<path class="st26" d="M326.9,483.7c-0.2-0.3-0.4-0.6-0.7-0.8c-0.3-0.2-0.7-0.3-1.2-0.3c-0.4,0-0.8,0.1-1.1,0.3
			c-0.3,0.2-0.6,0.4-0.9,0.8c-0.2-0.3-0.4-0.6-0.8-0.8c-0.3-0.2-0.7-0.3-1.1-0.3c-0.4,0-0.8,0.1-1.1,0.3c-0.3,0.2-0.6,0.4-0.9,0.8
			v-0.2c0-0.3-0.1-0.5-0.2-0.6c-0.2-0.2-0.3-0.2-0.6-0.2c-0.2,0-0.4,0.1-0.6,0.2c-0.1,0.2-0.2,0.4-0.2,0.7v4.8
			c0,0.3,0.1,0.6,0.2,0.8c0.2,0.2,0.4,0.3,0.6,0.3c0.3,0,0.5-0.1,0.6-0.3c0.2-0.2,0.2-0.4,0.2-0.8v-2.3c0-0.7,0.1-1.2,0.3-1.6
			c0.2-0.4,0.5-0.6,1.1-0.6c0.3,0,0.5,0.1,0.6,0.2c0.1,0.1,0.2,0.3,0.2,0.6c0,0.2,0,0.6,0,1v2.7c0,0.4,0.1,0.6,0.2,0.8
			c0.2,0.2,0.4,0.3,0.6,0.3c0.3,0,0.5-0.1,0.6-0.3c0.2-0.2,0.2-0.4,0.2-0.8v-2.2c0-0.7,0.1-1.2,0.2-1.5c0.1-0.2,0.3-0.4,0.5-0.5
			c0.2-0.1,0.4-0.2,0.6-0.2c0.3,0,0.5,0.1,0.6,0.2c0.1,0.1,0.2,0.3,0.2,0.5c0,0.2,0,0.5,0,0.9v2.8c0,0.3,0.1,0.6,0.2,0.8
			c0.2,0.2,0.4,0.3,0.6,0.3c0.3,0,0.5-0.1,0.6-0.3c0.2-0.2,0.2-0.4,0.2-0.8v-3.3C327.2,484.4,327.1,484,326.9,483.7z"/>
		<path class="st26" d="M248.7,479.6c0.6-0.2,1.2-0.3,1.7-0.4c0.5-0.1,0.9-0.1,1.2-0.1c0.3,0,0.6,0,0.8,0.1l0.1-0.5
			c0,0-0.8-0.2-1.8-0.2l-0.1-0.3c0.3-0.1,0.5-0.3,0.5-0.7c0-0.4-0.3-0.7-0.7-0.7c-0.4,0-0.7,0.3-0.7,0.7c0,0.3,0.2,0.6,0.5,0.7
			l0.1,0.3c-1.1,0.1-1.9,0.6-1.9,0.6L248.7,479.6z"/>
		<path class="st26" d="M245.7,481.7C245.8,481.6,245.8,481.6,245.7,481.7l-0.1-0.2l-0.3-0.2c0,0-0.5,0.5-0.9,1.3c0,0,0-0.1-0.1-0.1
			c-0.1-0.1-0.3-0.2-0.5-0.2c0,0,0,0,0,0c-0.1,0-0.2,0-0.3-0.1c0.1-0.1,0.1-0.2,0.1-0.3c0-0.2-0.2-0.4-0.4-0.4
			c-0.2,0-0.4,0.2-0.4,0.4c0,0.2,0.2,0.4,0.4,0.4c0,0,0.1,0,0.1,0c0.1,0.1,0.3,0.2,0.5,0.2c0.1,0,0.2,0,0.3,0.1
			c0.1,0.1,0.1,0.2,0.1,0.3c0,0,0,0,0,0c-0.3,0.8-0.2,1.7-0.2,1.7l0.7,0c0-0.3,0.1-1,0.2-1.4C245.3,482.3,245.7,481.7,245.7,481.7
			L245.7,481.7z"/>
		<path class="st26" d="M257.6,479.7c-0.2,0-0.4,0.2-0.4,0.4c0,0,0,0.1,0,0.1c-0.1,0.1-0.2,0.3-0.2,0.5c0,0.1,0,0.2-0.1,0.3
			c-0.1,0-0.1,0.1-0.2,0.1c-0.5-0.7-1.1-1.1-1.1-1.1l-0.5,0.5c0.4,0.3,0.8,0.8,1.1,1.3c0.3,0.4,0.5,0.8,0.7,1.3l0.7-0.3
			c0,0-0.3-0.7-0.7-1.4c0.1,0,0.1-0.1,0.2-0.1c0.1-0.1,0.2-0.3,0.2-0.5c0-0.1,0-0.2,0.1-0.3c0.1,0.1,0.2,0.1,0.3,0.1
			c0.2,0,0.4-0.2,0.4-0.4C258,479.9,257.8,479.7,257.6,479.7z"/>
		<path class="st26" d="M255.8,485.7c-0.9,0.4-2.4,1-4.4,1.3c-0.8,0.1-1.5,0.1-2.2,0.1c-0.9,0-1.7-0.1-2.3-0.1
			c-0.7-0.1-1.2-0.2-1.6-0.3c0,0,0,0,0,0c0.1,0.3,0.2,0.5,0.3,0.8c0,0,0,0,0,0c0,0,0,0.1,0,0.1c0,0,0,0.1,0,0.1c0,0,0,0,0,0
			c0.2,0.4,0.4,0.7,0.7,1c0.9,1,1.9,1.2,1.9,1.2l0,0l0,0c0,0,0.8,0.3,2.1,0.3c1.3,0,2.5-0.3,3.7-0.8c0.9-0.4,1.7-1.1,2.1-1.7
			c0.3-0.5,0.5-1,0.7-1.5c0.1-0.3,0.1-0.7,0.1-1.2C256.8,485.2,256.4,485.4,255.8,485.7z"/>
		<path class="st26" d="M251.4,486.5c1.9-0.3,3.3-0.8,4.2-1.3c0.7-0.3,1.2-0.7,1.4-0.8c-0.2-0.7-0.7-1.7-1.1-2.4
			c-1.3-1.9-2.7-2.3-3.4-2.4c-0.3,0-0.5-0.1-0.8-0.1c-0.3,0-0.6,0-1.1,0.1c-0.5,0-1,0.2-1.6,0.4c-0.9,0.3-1.7,0.7-2.3,1.3l0,0
			c-0.1,0.1-0.3,0.3-0.5,0.5c0,0-0.4,0.6-0.7,1.5c-0.2,0.7-0.2,1.6-0.2,1.6c0,0.2,0,0.4,0,0.7c0,0,0,0,0,0c0,0,0,0,0,0.1
			c0,0.2,0,0.3,0.1,0.5C245.6,486.3,248.3,486.9,251.4,486.5z M254,481.5c0.6,0,1.1,0.5,1.1,1.1c0,0.6-0.5,1.1-1.1,1.1
			c-0.6,0-1.1-0.5-1.1-1.1C252.8,482,253.3,481.5,254,481.5z M246.8,483.2c0-1,0.8-1.8,1.8-1.8c1,0,1.8,0.8,1.8,1.8
			c0,1-0.8,1.8-1.8,1.8C247.6,485.1,246.8,484.2,246.8,483.2z"/>
	</g>
</g>
</svg>
